<svg width="162" height="162" viewBox="0 0 162 162" fill="none" xmlns="http://www.w3.org/2000/svg">
<circle cx="81" cy="81" r="81" fill="#A6A6A6"/>
<path d="M93.3401 97.3723H54.9406V101.619H93.3401V97.3723Z" fill="#FF5A36"/>
<path d="M43.4109 89.7974C54.346 89.7974 60.6826 97.3935 60.6826 106.334C60.6826 115.274 54.8139 122.698 44.1497 122.698C32.3491 122.698 26.7126 113.311 26.7126 106.253C26.7126 99.1949 32.342 89.7974 43.4109 89.7974Z" fill="#37474F"/>
<path d="M41.7291 89.7974C52.1259 89.7974 58.1458 97.3935 58.1458 106.334C58.1458 115.274 52.5692 122.698 42.4257 122.698C31.2056 122.698 25.8542 113.297 25.8542 106.239C25.8542 99.1809 31.2056 89.7974 41.7291 89.7974Z" fill="#263238"/>
<path d="M41.8346 96.2183C48.1677 96.2183 51.8374 100.848 51.8374 106.295C51.8374 111.741 48.4386 116.262 42.2604 116.262C35.4206 116.262 32.1556 110.542 32.1556 106.239C32.1556 101.936 35.4206 96.2183 41.8346 96.2183Z" fill="#C7C7C7"/>
<path d="M74.3655 69.7532V68.3142L37.5668 69.4999V72.7368C37.5668 72.7368 26.9097 84.5058 25.8331 96.7392L62.7338 97.5202L68.6622 97.3725H75.9418V89.9768C75.9418 89.9768 70.439 85.9659 71.4031 77.7716C71.7232 75.0519 74.3655 69.7532 74.3655 69.7532Z" fill="#FF5A36"/>
<path d="M59.2963 95.8066C58.9128 96.5103 53.3151 97.5201 42.7037 97.8051C33.1513 98.0619 26.016 97.8508 25.4636 97.2351C24.9112 96.6194 26.3186 85.73 32.7854 79.8332C39.2521 73.9364 48.4069 73.0885 54.4445 76.6069C59.7537 79.6925 63.7154 87.5349 59.2963 95.8066Z" fill="#FF5A36"/>
<path opacity="0.1" d="M61.0977 85.4979C60.5304 82.9193 59.2219 80.5628 57.3331 78.718C55.4396 76.8208 53.0752 75.4619 50.4828 74.7809C47.591 74.0591 44.5624 74.0918 41.6869 74.8759C40.2478 75.2533 38.8562 75.7927 37.5387 76.4838C36.1477 77.2313 34.8367 78.119 33.6263 79.1332C33.3026 79.4006 32.9754 79.668 32.6552 79.9424C32.627 79.9635 32.6552 80.0022 32.6974 79.9811C33.9153 78.9101 35.2338 77.9593 36.6345 77.1418C37.9126 76.4118 39.2686 75.8276 40.6771 75.4002C43.4695 74.5268 46.4349 74.36 49.3077 74.9146C51.904 75.4364 54.3103 76.6523 56.2705 78.433C58.1593 80.1335 59.5485 82.3171 60.2885 84.7485C61.1681 87.711 60.8796 90.9725 60.0035 93.8963C59.8874 94.2903 59.7607 94.6773 59.6306 95.0644C59.6306 95.1066 59.6798 95.1207 59.6939 95.082C60.8761 92.0456 61.7592 88.7735 61.0977 85.4979Z" fill="black"/>
<path d="M35.5192 98.9276C29.1122 98.9276 25.7205 98.7305 24 98.048L24.7987 96.039C26.8112 96.8376 33.1126 96.8236 43.2525 96.7075C50.7432 96.6195 56.2705 95.9123 59.7185 94.5964L60.4891 96.616C56.7596 98.0233 51.1302 98.7692 43.2772 98.8607C40.2971 98.9029 37.7287 98.9276 35.5192 98.9276Z" fill="#DBDBDB"/>
<path d="M74.9707 69.2605C74.9707 69.2605 75.217 61.2105 74.9707 60.8938C74.7244 60.5772 37.4718 59.9051 36.3565 60.0037C35.2412 60.1022 35.1286 69.5033 35.213 69.9431C35.2975 70.3829 73.9996 69.3449 74.9707 69.2605Z" fill="#37474F"/>
<path d="M78.4609 61.0557C78.3519 60.9291 73.6302 60.7954 73.3699 60.7883C73.1095 60.7813 73.018 69.3626 73.1587 69.3556C73.2995 69.3485 78.2885 69.4189 78.4539 69.2359C78.6193 69.053 78.6967 61.3302 78.4609 61.0557Z" fill="#455A64"/>
<path d="M52.3687 60.0107C52.2352 60.1499 52.148 60.3268 52.1189 60.5174C52.0747 60.7181 52.0429 60.9214 52.0239 61.1261C51.9781 61.5342 51.9535 61.9494 51.9324 62.361C51.8972 63.1914 51.8761 64.0252 51.862 64.8626C51.8479 65.7 51.8268 66.5303 51.862 67.3571C51.8651 67.7666 51.8933 68.1755 51.9465 68.5815C51.9676 68.7777 52.0137 68.9705 52.0837 69.155C52.1094 69.2378 52.1549 69.313 52.2162 69.3743C52.2775 69.4356 52.3527 69.4811 52.4355 69.5068C52.3427 69.5041 52.2525 69.4749 52.1758 69.4225C52.0991 69.3701 52.0391 69.2968 52.0028 69.2113C51.9043 69.0273 51.8276 68.8325 51.7741 68.6308C51.6745 68.2182 51.6098 67.7981 51.5805 67.3747C51.5156 66.532 51.4945 65.6864 51.5172 64.8415C51.5383 64.0006 51.5735 63.1562 51.6685 62.3153C51.7142 61.8947 51.7811 61.4766 51.8691 61.0627C51.9182 60.858 51.9781 60.656 52.0485 60.4576C52.1048 60.2852 52.2033 60.0706 52.3687 60.0107Z" fill="#455A64"/>
<path d="M123.728 89.6636C134.667 89.6636 141 97.2597 141 106.2C141 115.14 135.131 122.553 124.464 122.553C112.659 122.553 107.023 113.166 107.023 106.112C107.023 99.0576 112.66 89.6636 123.728 89.6636Z" fill="#37474F"/>
<path d="M122.047 89.6636C132.443 89.6636 138.467 97.2597 138.467 106.2C138.467 115.14 132.887 122.553 122.747 122.553C111.527 122.553 106.168 113.166 106.168 106.112C106.168 99.0576 111.527 89.6636 122.047 89.6636Z" fill="#263238"/>
<path d="M122.152 96.0847C128.485 96.0847 132.158 100.715 132.158 106.161C132.158 111.608 128.76 116.129 122.578 116.129C115.742 116.129 112.477 110.408 112.477 106.109C112.477 101.809 115.742 96.0847 122.152 96.0847Z" fill="#C7C7C7"/>
<path d="M106.034 52.3161H101.731L98.7831 47.9885H103.825L106.034 52.3161Z" fill="#FF5A36"/>
<path d="M98.7831 47.9885L100.511 50.5218L101.731 52.3161H106.034L104.87 50.0362L103.821 47.9885H98.7831Z" fill="#FF5A36"/>
<path opacity="0.1" d="M98.7831 47.9885L100.511 50.5218L104.87 50.0362L103.821 47.9885H98.7831Z" fill="black"/>
<path d="M116.491 84.6111L112.301 85.5751L108.459 82.0145L113.37 80.8887L116.491 84.6111Z" fill="#FF5A36"/>
<path d="M108.459 82.0145L110.707 84.1009L112.297 85.5751L116.495 84.6111L114.848 82.6514L113.37 80.8887L108.459 82.0145Z" fill="#FF5A36"/>
<path opacity="0.1" d="M108.459 82.0145L110.707 84.1009L114.848 82.6514L113.37 80.8887L108.459 82.0145Z" fill="black"/>
<path d="M140.05 91.7745L135.979 93.9137C135.979 93.9137 124.189 91.7745 116.628 93.393C109.067 95.0114 107.027 99.0505 107.027 99.0505H103.206C103.206 99.0505 106.485 87.4012 112.047 83.1721C117.61 78.943 126.55 79.8895 131.493 82.5529C136.437 85.2163 140.05 91.7745 140.05 91.7745Z" fill="#FF5A36"/>
<path opacity="0.1" d="M135.55 93.108C134.761 92.2847 133.907 91.5269 132.996 90.8422C132.092 90.1401 131.137 89.5073 130.139 88.9493C128.203 87.8735 126.08 87.1762 123.883 86.8945C119.584 86.3668 115.087 87.6193 111.921 90.9231C110.14 92.7949 108.874 95.0924 107.67 97.411C107.653 97.4462 107.702 97.4743 107.72 97.4391C108.739 95.4005 110.027 93.5072 111.548 91.8097C113.013 90.2094 114.838 88.9794 116.871 88.221C120.928 86.7327 125.315 87.3027 129.213 89.1006C130.33 89.6065 131.407 90.1945 132.436 90.8598C133.489 91.5686 134.505 92.3308 135.48 93.1432C135.486 93.1489 135.494 93.1526 135.502 93.1537C135.511 93.1549 135.519 93.1534 135.527 93.1496C135.534 93.1458 135.541 93.1398 135.545 93.1324C135.549 93.125 135.551 93.1165 135.55 93.108Z" fill="black"/>
<path d="M90.8139 49.9868C90.7505 50.1346 82.2537 51.6967 82.2537 51.6967C82.2537 51.6967 80.8463 50.7468 81.7153 49.5435L90.2404 47.7034C90.5681 47.9722 90.8007 48.3393 90.904 48.7504C91.0073 49.1616 90.9757 49.595 90.8139 49.9868Z" fill="#263238"/>
<path d="M108.649 39.0025V49.0827C108.649 49.0827 103.206 48.6077 101.756 48.5584C100.307 48.5092 93.8643 49.343 93.8643 49.343L93.3647 47.0842C93.3647 47.0842 98.3327 45.3497 100.444 43.9951C102.555 42.6405 104.986 40.051 106.291 39.4775C107.03 39.1399 107.837 38.9774 108.649 39.0025Z" fill="#FF5A36"/>
<path d="M93.8855 46.7993C94.2091 47.1321 94.4532 47.5338 94.5994 47.9744C94.7457 48.4149 94.7903 48.8829 94.7299 49.3431C94.7299 49.3431 90.6732 50.0855 90.6239 50.0855C90.6576 49.6082 90.5419 49.1323 90.2929 48.7237C90.0439 48.3152 89.6739 47.9943 89.2342 47.8056L93.8855 46.7993Z" fill="#DBDBDB"/>
<path d="M108.701 49.0827C110.174 49.0827 111.368 46.827 111.368 44.0444C111.368 41.2618 110.174 39.0061 108.701 39.0061C107.228 39.0061 106.034 41.2618 106.034 44.0444C106.034 46.827 107.228 49.0827 108.701 49.0827Z" fill="#DBDBDB"/>
<path d="M108.867 48.5408C110.128 48.5408 111.15 46.5277 111.15 44.0443C111.15 41.561 110.128 39.5479 108.867 39.5479C107.606 39.5479 106.583 41.561 106.583 44.0443C106.583 46.5277 107.606 48.5408 108.867 48.5408Z" fill="white"/>
<path d="M109.56 52.3301C110.446 53.6284 113.996 71.2836 114.693 72.1702C115.39 73.0568 116.723 73.1202 116.723 73.1202L119.07 78.9536C119.07 78.9536 113.24 80.7937 110.003 83.4536C105.82 86.8911 101.953 98.2871 101.953 98.2871C101.32 98.7304 93.4597 101.964 91.3029 102.09C91.3029 102.09 101.327 91.085 102.143 75.8539C102.46 69.9536 98.8287 61.6432 98.593 57.5267C98.3326 53.1076 99.6696 52.3301 102.016 52.3301H109.56Z" fill="#FF5A36"/>
<path d="M90.821 103.347L89.2518 101.862C98.0477 92.5523 101.292 77.8842 101.035 73.8803C100.901 71.8291 100.243 69.5351 99.543 67.1039C98.7971 64.5109 97.9527 61.573 97.5938 58.3819C97.2596 55.4194 97.5938 53.5054 98.6036 52.3619C99.6134 51.2184 101 51.222 101.921 51.2255H110.295V53.3858H101.918C101.112 53.3858 100.563 53.4139 100.215 53.8045C99.8667 54.195 99.4128 55.2118 99.7436 58.1426C100.095 61.1508 100.866 63.874 101.622 66.5058C102.354 69.0531 103.03 71.4561 103.192 73.7396C103.466 78.0144 100.092 93.5762 90.821 103.347Z" fill="#DBDBDB"/>
<path d="M114.735 76.987C115.228 78.8025 116.78 79.9565 118.201 79.5695C119.622 79.1825 120.379 77.3987 119.883 75.5867C119.387 73.7747 117.835 72.6137 116.414 73.0007C114.992 73.3877 114.239 75.175 114.735 76.987Z" fill="#DBDBDB"/>
<path d="M115.263 76.8426C115.703 78.4611 117.047 79.5025 118.264 79.1718C119.482 78.8411 120.108 77.2613 119.672 75.6534C119.235 74.0455 117.888 72.9935 116.674 73.3243C115.46 73.655 114.823 75.2242 115.263 76.8426Z" fill="white"/>
<path opacity="0.1" d="M108.511 76.6949C108.121 74.8689 107.699 73.0499 107.333 71.2203C106.967 69.3907 106.629 67.5577 106.344 65.7176C106.066 64.0041 105.767 62.2731 105.658 60.5385C105.549 58.7265 105.658 56.897 106.538 55.2609C106.539 55.2577 106.541 55.2541 106.541 55.2505C106.542 55.2468 106.541 55.243 106.54 55.2394C106.539 55.2358 106.538 55.2324 106.535 55.2295C106.533 55.2266 106.53 55.2241 106.527 55.2222C106.524 55.2204 106.52 55.2192 106.516 55.2187C106.513 55.2183 106.509 55.2185 106.505 55.2195C106.502 55.2205 106.498 55.2222 106.496 55.2244C106.493 55.2267 106.49 55.2296 106.488 55.2328C105.584 56.5522 105.289 58.139 105.239 59.7117C105.244 61.4456 105.397 63.1759 105.697 64.8837C106.21 68.6338 106.915 72.3552 107.808 76.0334C108.318 78.1128 108.976 80.157 109.679 82.1765C109.679 82.183 109.682 82.1893 109.687 82.1939C109.691 82.1985 109.698 82.2011 109.704 82.2011C109.711 82.2011 109.717 82.1985 109.721 82.1939C109.726 82.1893 109.729 82.183 109.729 82.1765C109.309 80.3399 108.903 78.5127 108.511 76.6949Z" fill="black"/>
<path opacity="0.1" d="M75.9417 89.9768V97.3654H69.6368V91.7712C69.6368 91.7712 66.1184 89.9944 65.4148 83.5312C64.7814 77.6766 69.4538 69.8623 70.3405 68.4444L74.3549 68.3142V69.7532C74.3549 69.7532 71.7126 75.0519 71.3925 77.7716C70.439 85.9659 75.9417 89.9768 75.9417 89.9768Z" fill="black"/>
</svg>
