<svg width="162" height="162" viewBox="0 0 162 162" fill="none" xmlns="http://www.w3.org/2000/svg">
<circle cx="81" cy="81" r="81" fill="#A6A6A6"/>
<path d="M106.87 29.9079C109.305 27.6088 112.333 26.0352 115.614 25.3645C118.895 24.6937 122.298 24.9523 125.44 26.1113L114.724 36.2548L118.158 44.0364L125.708 47.8619L136.431 37.7184C137.375 40.7875 137.48 44.053 136.737 47.1765C135.993 50.3001 134.428 53.168 132.204 55.4832C129.979 57.7984 127.176 59.4766 124.084 60.3439C120.993 61.2112 117.726 61.236 114.622 60.4158C111.517 59.5956 108.689 57.9603 106.429 55.6792C104.17 53.3981 102.561 50.5542 101.771 47.4423C100.98 44.3304 101.036 41.0637 101.932 37.9807C102.829 34.8976 104.534 32.1104 106.87 29.9079Z" fill="#6D605D"/>
<path d="M56.3624 127.09C53.927 129.388 50.8989 130.962 47.6185 131.634C44.3381 132.306 40.9353 132.05 37.7925 130.894L48.5084 120.751L45.0741 112.969L37.5027 109.093L26.7795 119.236C25.8457 116.167 25.749 112.904 26.4994 109.785C27.2498 106.666 28.82 103.804 31.0475 101.495C33.275 99.186 36.079 97.5143 39.1693 96.6527C42.2597 95.7911 45.5241 95.7708 48.6248 96.5941C51.7256 97.4173 54.5501 99.0541 56.8061 101.335C59.0621 103.616 60.6676 106.458 61.4566 109.568C62.2456 112.678 62.1894 115.942 61.2937 119.022C60.3981 122.103 58.6956 124.888 56.3624 127.09Z" fill="#6D605D"/>
<path d="M45.7714 101.302L56.778 112.962L120.444 52.8605L109.438 41.201L45.7714 101.302Z" fill="#6D605D"/>
<path d="M67.734 87.0486L72.265 91.8484L98.4818 67.0997L93.9508 62.2999L67.734 87.0486Z" fill="#37474F"/>
<path d="M32.0208 53.2428C29.7217 50.8079 28.1481 47.7795 27.4774 44.4986C26.8066 41.2177 27.0653 37.8147 28.2242 34.6728L38.3678 45.3888L46.1493 41.9544L49.9749 34.4048L39.8313 23.6816C42.9004 22.7382 46.1659 22.6327 49.2894 23.376C52.413 24.1193 55.2809 25.6844 57.5961 27.909C59.9113 30.1336 61.5895 32.9368 62.4568 36.0283C63.3241 39.1197 63.3489 42.3868 62.5287 45.491C61.7086 48.5953 60.0732 51.4237 57.7921 53.6833C55.511 55.9428 52.6671 57.5513 49.5552 58.342C46.4434 59.1327 43.1766 59.0768 40.0936 58.1803C37.0106 57.2837 34.2233 55.579 32.0208 53.2428Z" fill="#FF5A36"/>
<path d="M129.203 103.75C131.501 106.186 133.075 109.214 133.747 112.494C134.419 115.775 134.162 119.177 133.007 122.32L122.863 111.604L115.082 115.039L111.206 122.61L121.349 133.333C118.28 134.267 115.017 134.364 111.898 133.613C108.778 132.863 105.916 131.293 103.608 129.065C101.299 126.838 99.6271 124.034 98.7655 120.943C97.9039 117.853 97.8836 114.589 98.7069 111.488C99.5301 108.387 101.167 105.563 103.448 103.307C105.729 101.051 108.571 99.4452 111.681 98.6562C114.791 97.8672 118.055 97.9234 121.135 98.8191C124.216 99.7147 127.001 101.417 129.203 103.75Z" fill="#FF5A36"/>
<path d="M103.415 114.341L115.075 103.335L54.9735 39.6683L43.314 50.6749L103.415 114.341Z" fill="#FF5A36"/>
<path d="M89.1616 92.3789L93.9613 87.8479L69.2126 61.6311L64.4129 66.162L89.1616 92.3789Z" fill="#37474F"/>
</svg>
