<svg width="162" height="162" viewBox="0 0 162 162" fill="none" xmlns="http://www.w3.org/2000/svg">
<circle cx="81" cy="81" r="81" fill="#A6A6A6"/>
<path d="M104.387 81.918C104.387 81.918 107.388 78.4286 110.35 77.53C113.311 76.6315 119.073 78.0055 122.51 75.6545C125.947 73.3035 135.39 68.2395 133.781 56.2708C132.171 44.3021 125.289 66.5602 125.289 66.5602C125.289 66.5602 105.957 72.3832 104.544 75.842C103.131 79.3009 104.387 81.918 104.387 81.918Z" fill="#263238"/>
<path d="M82.6566 80.339C82.6566 80.339 84.0655 78.0142 86.4688 77.5126C95.489 75.637 93.7268 84.5699 93.3299 84.8709C92.933 85.1718 98.721 80.0729 92.8937 76.854C87.0664 73.635 83.4112 77.5562 82.6566 80.339Z" fill="#263238"/>
<path opacity="0.1" d="M128.503 45.6411C92.3965 18.6199 47.4572 40.25 33.2683 60.9379C25.1903 72.7146 27.9949 90.1094 37.0805 101.14C46.1661 112.171 60.6341 117.942 74.9319 118.347C81.3219 118.531 87.9824 118.204 94.0932 116.328C100.204 114.452 106.014 110.688 108.954 105.009C111.894 99.3302 111.279 91.6098 106.485 87.3745C103.698 84.9145 104.588 79.7894 107.27 77.2116C108.637 75.9165 110.265 74.9277 112.045 74.311C113.824 73.6942 115.715 73.4638 117.59 73.635C131.011 75.0787 139.783 54.0811 128.503 45.6411ZM89.0815 84.8709C85.5398 84.8709 82.6654 82.5112 82.6566 79.5888C82.6479 76.6664 85.5223 74.2892 89.0641 74.2805C92.6058 74.2718 95.489 76.6402 95.489 79.567C95.489 82.4937 92.6276 84.8665 89.0815 84.8709Z" fill="black"/>
<path opacity="0.2" d="M128.739 48.7685C90.1502 25.4243 42.5894 48.6333 30.5029 70.6166C23.6201 83.1393 28.1171 100.163 38.2407 110.248C48.3644 120.332 63.3427 124.663 77.6057 123.664C83.987 123.228 90.582 122.243 96.4791 119.774C102.376 117.305 107.789 112.991 110.158 107.05C112.526 101.11 111.143 93.4897 105.957 89.7692C102.943 87.5883 103.34 82.4021 105.743 79.5757C106.977 78.1525 108.499 77.0086 110.21 76.2204C111.92 75.4321 113.779 75.0176 115.662 75.0046C129.157 75.1005 140.79 56.0701 128.739 48.7685ZM89.4828 86.4062C85.9585 86.7639 82.8616 84.6921 82.5694 81.7827C82.2772 78.8734 84.8986 76.2259 88.4229 75.8726C91.9472 75.5193 95.0484 77.5867 95.3407 80.5004C95.6329 83.4141 93.0028 86.0616 89.4741 86.4149L89.4828 86.4062Z" fill="white"/>
<path d="M128.739 48.7685C90.1502 25.4243 42.5894 48.6333 30.5029 70.6166C23.6201 83.1393 28.1171 100.163 38.2407 110.248C48.3644 120.332 63.3427 124.663 77.6057 123.664C83.987 123.228 90.582 122.243 96.4791 119.774C102.376 117.305 107.789 112.991 110.158 107.05C112.526 101.11 111.143 93.4897 105.957 89.7692C102.943 87.5883 103.34 82.4021 105.743 79.5757C106.977 78.1525 108.499 77.0086 110.21 76.2204C111.92 75.4321 113.779 75.0176 115.662 75.0046C129.157 75.1005 140.79 56.0701 128.739 48.7685ZM89.4828 86.4062C85.9585 86.7639 82.8616 84.6921 82.5694 81.7827C82.2772 78.8734 84.8986 76.2259 88.4229 75.8726C91.9472 75.5193 95.0484 77.5867 95.3407 80.5004C95.6329 83.4141 93.0028 86.0616 89.4741 86.4149L89.4828 86.4062Z" fill="#FF5A36" stroke="#263238" stroke-miterlimit="10"/>
<path d="M91.921 38.9677C91.7304 39.0075 91.5355 39.0236 91.3409 39.0157C90.2461 39.5696 89.16 40.1061 88.0478 40.6295C85.4398 41.8294 82.8976 43.1674 80.4321 44.638C75.5426 47.6913 71.3553 51.8 67.3032 55.7823L65.6501 57.4006C53.7206 69.0378 40.6484 79.711 27.6809 89.983C27.7294 90.0865 27.7716 90.1928 27.8074 90.3014C40.8054 80.0033 53.9169 69.3038 65.8769 57.6361C66.4294 57.101 66.9804 56.5602 67.53 56.0135C71.569 52.0443 75.7476 47.9399 80.6153 44.9128C83.0681 43.4475 85.5971 42.1138 88.1917 40.9174C89.57 40.2544 90.9615 39.5784 92.331 38.863C92.1958 38.9067 92.0606 38.9415 91.921 38.9677Z" fill="#455A64"/>
<path d="M104.884 40.0886C89.051 49.9375 73.1349 61.1734 60.9961 75.8159C60.621 76.2521 60.2546 76.7188 59.8838 77.1724C58.0344 79.4405 56.124 81.7828 53.821 83.6365C49.9172 86.7857 45.0102 88.4345 40.2602 90.0658C36.4262 91.3743 32.4963 92.7047 29.0548 94.8332C29.0847 94.9475 29.1037 95.0643 29.1115 95.1821C32.5486 93.0318 36.5266 91.6927 40.3649 90.3842C45.1411 88.7616 50.0786 87.0823 54.026 83.8983C56.3552 82.0227 58.2743 79.6673 60.1325 77.3905C60.5032 76.9543 60.8696 76.4832 61.2447 76.0296C73.4184 61.3479 89.4087 50.0989 105.299 40.2238C105.156 40.1936 105.017 40.1483 104.884 40.0886Z" fill="#455A64"/>
<path d="M97.0941 39.2163C96.5096 39.6874 95.9295 40.1279 95.3494 40.5248C92.1616 42.5549 88.7348 44.1826 85.1472 45.3708L84.7677 45.4973C81.7145 46.5135 78.8401 47.4775 76.2274 49.654C74.1904 51.3508 72.4719 53.4444 70.8101 55.4683C68.7557 57.9763 66.6271 60.5628 63.8967 62.3817C63.8613 62.4064 63.837 62.4439 63.8288 62.4862C63.8207 62.5286 63.8294 62.5724 63.853 62.6085C63.8676 62.6311 63.8876 62.6498 63.9112 62.6628C63.9348 62.6757 63.9613 62.6825 63.9882 62.6826C64.0206 62.6828 64.0524 62.6737 64.0798 62.6565C66.8496 60.8114 68.9912 58.1987 71.0587 55.6776C72.7118 53.6625 74.4172 51.5819 76.4324 49.9026C78.9971 47.7654 81.8497 46.8145 84.868 45.8113L85.2475 45.6805C88.8606 44.4823 92.3121 42.8429 95.5238 40.7996C96.2308 40.3292 96.9109 39.8196 97.5608 39.273C97.4036 39.271 97.2472 39.252 97.0941 39.2163Z" fill="#455A64"/>
<path d="M75.0453 56.6981H74.9974C74.956 56.685 74.9213 56.6562 74.9009 56.6179C74.8806 56.5796 74.876 56.5348 74.8883 56.4931C75.3245 55.1148 78.2512 50.2514 80.8901 49.3311C81.2006 49.2032 81.5374 49.1526 81.8718 49.1837C82.2061 49.2149 82.5278 49.3268 82.8093 49.5099C82.9677 49.5947 83.1006 49.7203 83.1942 49.8736C83.2877 50.027 83.3386 50.2026 83.3414 50.3823C83.2978 51.6908 80.4278 53.3439 77.8979 54.792C76.6766 55.4943 75.2809 56.2838 75.2024 56.576C75.1929 56.6106 75.1725 56.6412 75.1442 56.6632C75.1159 56.6853 75.0812 56.6975 75.0453 56.6981ZM81.7232 49.4968C81.4761 49.5018 81.2314 49.5475 80.9992 49.6321C78.8881 50.3692 76.4193 53.9938 75.5033 55.865C75.9788 55.5292 76.7203 55.1017 77.7366 54.5172C79.948 53.2523 82.9707 51.5163 83.0143 50.3779C83.0107 50.2517 82.9732 50.1287 82.9057 50.022C82.8381 49.9153 82.743 49.8288 82.6305 49.7716C82.3628 49.5903 82.0465 49.4945 81.7232 49.4968Z" fill="#455A64"/>
<path d="M45.1541 85.6561C44.9713 85.6575 44.7887 85.6414 44.6089 85.6081C44.211 85.548 43.8404 85.3694 43.5455 85.0955C43.2506 84.8216 43.0451 84.4652 42.9558 84.0728C42.8424 83.3007 43.3047 82.6159 43.8282 81.9878C44.9208 80.6503 46.1136 79.3978 47.3961 78.2411C47.427 78.211 47.4685 78.1941 47.5117 78.1941C47.5548 78.1941 47.5963 78.211 47.6273 78.2411C47.6427 78.2561 47.655 78.2741 47.6633 78.2939C47.6717 78.3138 47.676 78.3351 47.676 78.3567C47.676 78.3782 47.6717 78.3995 47.6633 78.4194C47.655 78.4393 47.6427 78.4572 47.6273 78.4723C46.3564 79.6158 45.1753 80.8553 44.0942 82.1798C43.6319 82.7512 43.2219 83.3662 43.3047 84.0117C43.3853 84.3362 43.5606 84.6294 43.8084 84.8539C44.0562 85.0784 44.3653 85.2241 44.6961 85.2723C45.4014 85.3556 46.1162 85.2627 46.7767 85.0018C49.1445 84.2002 51.2902 82.8521 53.0399 81.0667C54.7897 79.2814 56.0943 77.109 56.848 74.7255C55.2234 74.3169 53.5147 74.3928 51.9327 74.9439C50.3508 75.4949 48.9647 76.4971 47.9457 77.8267C47.9221 77.8583 47.8878 77.8801 47.8492 77.8882C47.8107 77.8962 47.7705 77.8899 47.7363 77.8703C47.7009 77.8524 47.6735 77.8218 47.6598 77.7846C47.646 77.7474 47.6469 77.7063 47.6622 77.6697L47.8584 77.1681C47.8661 77.1478 47.8778 77.1292 47.8928 77.1136C47.9078 77.0979 47.9259 77.0854 47.9458 77.0768C47.9658 77.0683 47.9872 77.0638 48.0089 77.0638C48.0307 77.0637 48.0522 77.068 48.0722 77.0765L48.1114 77.0983C49.2192 75.8797 50.6418 74.9906 52.2226 74.5288C53.8034 74.067 55.481 74.0506 57.0705 74.4812C57.091 74.4871 57.1101 74.4971 57.1265 74.5106C57.143 74.5241 57.1566 74.5408 57.1664 74.5598C57.175 74.5797 57.1794 74.6013 57.1794 74.623C57.1794 74.6447 57.175 74.6662 57.1664 74.6862C56.4145 77.1544 55.0855 79.4079 53.2893 81.2602C51.4932 83.1124 49.2816 84.5102 46.8378 85.3377C46.2966 85.531 45.7285 85.6384 45.1541 85.6561Z" fill="#455A64"/>
<path d="M59.0769 72.4966C59.0349 72.4974 58.9942 72.4817 58.9635 72.453C58.9334 72.422 58.9165 72.3806 58.9165 72.3374C58.9165 72.2942 58.9334 72.2527 58.9635 72.2218C63.104 67.9071 67.5374 63.8832 72.232 60.179C72.2668 60.1526 72.3106 60.141 72.3539 60.1467C72.3971 60.1524 72.4364 60.175 72.4632 60.2095C72.4763 60.2261 72.4861 60.2451 72.4919 60.2655C72.4978 60.2859 72.4995 60.3073 72.4971 60.3283C72.4946 60.3494 72.4881 60.3698 72.4778 60.3883C72.4675 60.4068 72.4536 60.4231 72.437 60.4363C67.7516 64.1292 63.3284 68.143 59.199 72.4486C59.1829 72.4643 59.1637 72.4766 59.1428 72.4849C59.1218 72.4931 59.0994 72.4971 59.0769 72.4966Z" fill="#455A64"/>
<path d="M109.447 40.9172C106.552 43.256 104.097 46.0919 102.197 49.2918C101.099 51.2218 100.104 53.2092 99.2183 55.2457C98.1688 57.7359 96.9217 60.1382 95.489 62.4295C90.8742 69.3473 83.0274 73.6392 76.1009 77.4253C67.5126 82.1142 58.8196 86.9514 50.4144 91.6315L50.3228 91.6795C44.4519 94.9465 38.0314 98.5275 32.7536 103.352C32.8096 103.454 32.8577 103.56 32.8976 103.67C38.1622 98.8285 44.6002 95.2387 50.4799 91.9674L50.5715 91.9151C58.9809 87.2392 67.674 82.402 76.2579 77.7088C83.2368 73.9053 91.0879 69.5959 95.7594 62.6127C97.2069 60.3128 98.4672 57.9002 99.528 55.3983C100.412 53.3742 101.401 51.3971 102.49 49.475C104.438 46.1961 106.974 43.304 109.97 40.9434C109.795 40.9602 109.619 40.9514 109.447 40.9172Z" fill="#455A64"/>
<path d="M73.7193 71.7593C73.5909 71.7599 73.4627 71.7511 73.3355 71.7331C73.1411 71.7116 72.9539 71.6467 72.7879 71.5433C72.6218 71.4399 72.481 71.3006 72.3759 71.1356C70.4829 68.1041 86.9312 57.3 87.0969 57.1779C87.8023 56.6754 88.5951 56.3086 89.4348 56.0962C89.874 55.9896 90.3329 55.9957 90.7691 56.1139C91.2052 56.2321 91.6045 56.4585 91.9297 56.7723C92.6931 57.601 92.6015 58.8616 92.1696 59.7339C91.6666 60.6172 90.9793 61.3818 90.1545 61.9759C90.028 62.0936 78.0419 71.7593 73.7193 71.7593ZM90.0716 56.3797C89.8798 56.38 89.6884 56.399 89.5002 56.4364C88.6994 56.6414 87.9436 56.9934 87.2714 57.4745C83.6293 59.7732 71.2026 68.6363 72.6551 70.9611C72.7372 71.0836 72.8456 71.1863 72.9723 71.2617C73.0991 71.3372 73.241 71.3835 73.3879 71.3973C76.6766 71.9512 87.2845 63.9081 89.9626 61.7272C90.7499 61.1606 91.4085 60.4337 91.8949 59.5943C92.2612 58.8441 92.3616 57.71 91.7073 56.9773C91.4903 56.7707 91.2331 56.611 90.9517 56.5081C90.6703 56.4053 90.3707 56.3616 90.0716 56.3797Z" fill="#455A64"/>
<path d="M80.9686 65.3737C80.7613 65.3729 80.5543 65.3569 80.3493 65.3257C80.3207 65.3212 80.294 65.3091 80.2717 65.2907C80.2495 65.2722 80.2325 65.2482 80.2228 65.221C80.2119 65.1943 80.2086 65.1651 80.2132 65.1367C80.2178 65.1082 80.2302 65.0816 80.2489 65.0596C81.3818 63.6604 82.8083 62.5273 84.4275 61.7403C84.4469 61.7308 84.468 61.7253 84.4896 61.7241C84.5112 61.7229 84.5328 61.7261 84.5532 61.7334C84.5735 61.7407 84.5922 61.7521 84.6081 61.7668C84.6239 61.7814 84.6367 61.7992 84.6456 61.8189C84.6639 61.8577 84.6664 61.9022 84.6526 61.9429C84.6388 61.9836 84.6097 62.0173 84.5714 62.0369C83.0865 62.7583 81.7664 63.7784 80.6938 65.0335C81.5881 65.0774 82.4736 64.8385 83.2244 64.3507C83.9753 63.863 84.5534 63.1511 84.8768 62.3161C84.8836 62.2955 84.8945 62.2766 84.9088 62.2603C84.9232 62.2441 84.9406 62.2309 84.9602 62.2215C84.9797 62.2121 85.0009 62.2068 85.0226 62.2058C85.0442 62.2048 85.0658 62.2082 85.0861 62.2158C85.1259 62.2306 85.1585 62.2601 85.1772 62.2983C85.1959 62.3364 85.1992 62.3803 85.1865 62.4208C84.8635 63.2811 84.2877 64.0235 83.5349 64.5506C82.7821 65.0776 81.8875 65.3646 80.9686 65.3737Z" fill="#455A64"/>
<path d="M115.387 42.5486C113.512 44.1305 111.99 46.0891 110.921 48.2974C110.108 50.1806 109.49 52.142 109.076 54.1509C108.819 55.2152 108.557 56.3318 108.234 57.3743C105.582 66.0455 98.5291 73.7396 87.2714 80.243C83.5552 82.3934 79.6252 84.3213 75.8305 86.1837C70.2256 88.936 64.4288 91.7799 59.2034 95.3871C52.2594 100.185 46.3754 106.226 40.8839 112.542C40.9795 112.598 41.07 112.662 41.1544 112.734C46.6197 106.44 52.495 100.416 59.3822 95.6531C64.5902 92.0634 70.3739 89.2239 75.957 86.4934C79.7561 84.6266 83.6904 82.6987 87.4153 80.544C98.7559 74.0013 105.853 66.2374 108.526 57.4876C108.853 56.419 109.119 55.3068 109.377 54.2469C109.785 52.2594 110.395 50.3187 111.196 48.4544C112.288 46.2178 113.848 44.2423 115.771 42.662C115.64 42.6367 115.511 42.5988 115.387 42.5486Z" fill="#455A64"/>
<path d="M76.8424 40.7646C72.4806 44.5376 67.5256 47.6649 62.6754 50.7182C55.9757 54.9404 49.0405 59.3065 43.7845 65.3345C41.6297 67.9108 39.6355 70.6173 37.8133 73.4387C36.544 75.3098 35.2355 77.2508 33.8397 79.0741C31.9758 81.5939 29.7877 83.8568 27.3319 85.8043C27.3495 85.9329 27.3582 86.0626 27.3581 86.1925C29.91 84.2022 32.1786 81.8734 34.1014 79.2703C35.5015 77.4384 36.8144 75.4974 38.0837 73.6219C39.8962 70.8122 41.8787 68.116 44.0201 65.5482C49.2542 59.5595 56.1589 55.2064 62.8411 50.9973C67.8179 47.8612 72.9168 44.6422 77.3702 40.7297C77.1959 40.7597 77.019 40.7714 76.8424 40.7646Z" fill="#455A64"/>
<path d="M46.611 70.0321C46.4324 70.0337 46.255 70.0027 46.0875 69.9405C45.8827 69.8567 45.7023 69.7224 45.5635 69.55C45.4247 69.3776 45.3318 69.1728 45.2937 68.9547C45.0015 67.8294 47.7276 65.3737 50.4362 63.123L50.8986 62.7392C54.087 60.0044 57.3802 58.2466 60.682 57.5051C60.7248 57.496 60.7695 57.5042 60.8062 57.5279C60.843 57.5516 60.8689 57.5889 60.8783 57.6316C60.8861 57.6737 60.8773 57.7172 60.8537 57.753C60.8302 57.7888 60.7936 57.8141 60.7518 57.8235C60.211 57.9413 58.8763 59.8866 57.9036 61.3129C57.4528 62.0131 56.959 62.6847 56.4249 63.3237C54.6652 65.1241 52.7191 66.7325 50.6194 68.1216L50.3403 68.3092C49.481 68.8937 47.8235 70.0321 46.611 70.0321ZM51.1123 62.9878L50.6456 63.376C49.3371 64.4708 45.3286 67.7945 45.6078 68.8718C45.6339 69.0389 45.7021 69.1966 45.8059 69.3301C45.9096 69.4636 46.0456 69.5685 46.201 69.6352C47.2478 70.0277 49.2847 68.632 50.1571 68.0387L50.4406 67.8468C52.5207 66.4728 54.4492 64.882 56.1938 63.1012C56.7112 62.4754 57.1918 61.8201 57.6332 61.1384C58.3338 60.051 59.1107 59.0147 59.958 58.0372C56.9745 58.8441 54.0042 60.506 51.1123 62.9878Z" fill="#455A64"/>
<path d="M81.4092 39.8574L63.3776 54.4039C63.3438 54.4313 63.322 54.4709 63.3171 54.5141C63.3122 54.5574 63.3246 54.6009 63.3514 54.6351C63.3678 54.6538 63.3879 54.6689 63.4104 54.6794C63.433 54.6899 63.4574 54.6956 63.4823 54.6962C63.5185 54.6952 63.5536 54.683 63.5826 54.6613L81.902 39.8749C81.7376 39.8883 81.5722 39.8824 81.4092 39.8574Z" fill="#455A64"/>
<path d="M125.55 46.8843C111.553 63.35 96.6361 79.2791 81.1431 94.2967C77.043 98.2747 73.2919 101.768 68.7557 104.268C65.48 106.078 61.8553 107.321 58.3528 108.494C56.9004 108.983 55.3999 109.493 53.9431 110.034C51.1123 111.094 47.4004 112.673 44.2294 115.177C44.3252 115.236 44.417 115.301 44.5042 115.373C47.6316 112.935 51.2693 111.382 54.0609 110.344C55.5133 109.803 57.0094 109.292 58.4575 108.804C61.9731 107.613 65.6108 106.379 68.9258 104.551C73.4795 102.035 77.2611 98.5233 81.3786 94.5192C96.9022 79.4711 111.846 63.5114 125.869 47.0151C125.759 46.981 125.652 46.9372 125.55 46.8843Z" fill="#455A64"/>
<path d="M114.214 53.8151C113.993 53.8226 113.772 53.7847 113.566 53.7037C113.359 53.6227 113.172 53.5003 113.015 53.344C112.395 52.7115 112.421 51.5993 113.08 50.3867C114.192 48.328 116.713 45.2834 119.117 45.2834H119.156C120.56 45.3053 121.088 45.9421 121.284 46.4742C121.751 47.7522 120.787 49.763 119.627 50.7705C118.56 51.6936 117.404 52.5089 116.177 53.2044C115.581 53.5614 114.908 53.7708 114.214 53.8151ZM113.368 50.5437C113.15 50.9494 112.495 52.3408 113.25 53.1128C114.005 53.8849 115.431 53.2393 116.015 52.9165C117.225 52.2341 118.364 51.4319 119.413 50.5219C120.491 49.5841 121.398 47.7391 120.979 46.5963C120.744 45.9639 120.129 45.6324 119.152 45.6193H119.117C116.87 45.6193 114.402 48.6376 113.368 50.5525V50.5437Z" fill="#455A64"/>
<path d="M75.0933 80.8623C75.058 80.862 75.0238 80.8504 74.9955 80.8292C74.9673 80.808 74.9465 80.7784 74.9363 80.7446C74.924 80.7029 74.9285 80.6581 74.9489 80.6198C74.9693 80.5814 75.0039 80.5526 75.0454 80.5396C89.4915 76.2912 101.896 64.955 107.427 50.9537C107.443 50.9126 107.474 50.8795 107.514 50.8615C107.554 50.8435 107.6 50.8421 107.641 50.8577C107.68 50.8751 107.712 50.9068 107.729 50.9465C107.746 50.9862 107.747 51.0308 107.732 51.0714C102.162 65.1643 89.6747 76.5791 75.1413 80.8536L75.0933 80.8623Z" fill="#455A64"/>
<path d="M90.7128 62.9616C90.6744 62.9613 90.6373 62.9476 90.6079 62.9229C90.5785 62.8983 90.5585 62.8642 90.5514 62.8264C90.545 62.7832 90.5554 62.7391 90.5806 62.7034C90.6058 62.6676 90.6438 62.643 90.6866 62.6345C92.0431 62.3902 92.8195 60.916 93.3953 59.5071L97.3645 49.7891L83.2018 58.2117C83.1646 58.2327 83.1207 58.2386 83.0792 58.2281C83.0378 58.2175 83.002 58.1913 82.9794 58.1549C82.957 58.1173 82.9503 58.0724 82.9609 58.0299C82.9716 57.9873 82.9986 57.9508 83.0361 57.9281L97.6175 49.2569C97.6458 49.2376 97.6792 49.2273 97.7135 49.2273C97.7477 49.2273 97.7811 49.2376 97.8094 49.2569C97.8348 49.2801 97.8525 49.3105 97.8603 49.344C97.8681 49.3774 97.8656 49.4125 97.853 49.4445L93.6963 59.6118C93.0856 61.1079 92.2569 62.665 90.7433 62.9398L90.7128 62.9616Z" fill="#455A64"/>
<path d="M61.598 82.5592C61.567 82.5593 61.5366 82.5502 61.5108 82.533C61.4759 82.5113 61.4504 82.4774 61.4391 82.4379C61.4278 82.3984 61.4316 82.3562 61.4497 82.3193C61.9154 81.4174 62.5204 80.5945 63.2424 79.8811L69.5975 71.2361C69.61 71.2181 69.6261 71.203 69.6447 71.1914C69.6633 71.1799 69.684 71.1723 69.7056 71.169C69.7272 71.1658 69.7493 71.1669 69.7704 71.1725C69.7916 71.178 69.8114 71.1877 69.8287 71.2011C69.8626 71.2272 69.8852 71.2653 69.8917 71.3075C69.8982 71.3498 69.8881 71.393 69.8636 71.428L64.407 78.843C65.9979 77.6653 67.698 76.6429 69.4841 75.7897L74.221 73.3646C74.2404 73.3507 74.2626 73.3412 74.286 73.3367C74.3095 73.3321 74.3336 73.3327 74.3568 73.3384C74.38 73.3441 74.4017 73.3547 74.4204 73.3696C74.4391 73.3844 74.4544 73.4031 74.4652 73.4244C74.476 73.4457 74.4821 73.4691 74.483 73.4929C74.4839 73.5168 74.4797 73.5406 74.4706 73.5626C74.4615 73.5847 74.4477 73.6046 74.4302 73.6208C74.4127 73.6371 74.3919 73.6494 74.3693 73.6568L69.6324 76.082C67.2421 77.2989 65.0831 78.4897 63.4867 80.0904L61.7419 82.4807C61.7268 82.5051 61.7056 82.5252 61.6804 82.539C61.6551 82.5528 61.6267 82.5597 61.598 82.5592Z" fill="#455A64"/>
<path d="M57.2973 104.412C56.6692 104.412 56.3464 104.289 56.2461 104.036C56.0673 103.6 56.7259 102.981 58.1784 101.882C59.9492 100.547 61.7855 99.2123 63.6393 97.9213C67.4471 95.2649 71.4076 92.7308 75.4161 90.3841C75.9221 90.0314 76.5084 89.8109 77.1215 89.7429C77.4549 89.7179 77.7861 89.8133 78.0551 90.0118C78.324 90.2103 78.5128 90.4987 78.5871 90.8247C78.5857 91.0938 78.5275 91.3596 78.4162 91.6046C78.305 91.8496 78.1432 92.0684 77.9415 92.2466C73.3835 97.3935 65.4494 103.657 58.078 104.368C57.7727 104.394 57.5154 104.412 57.2973 104.412ZM77.1695 90.0701H77.1346C76.578 90.1392 76.0465 90.3428 75.5862 90.6633C71.5908 93.0055 67.639 95.5397 63.8399 98.1873C61.9905 99.4959 60.1542 100.804 58.3877 102.143C57.8076 102.58 56.4467 103.613 56.5645 103.919C56.5645 103.962 56.7303 104.167 58.0519 104.041C65.3273 103.339 73.1828 97.1318 77.7016 92.0285C77.8699 91.883 78.0066 91.7046 78.1033 91.5044C78.2001 91.3041 78.2549 91.0861 78.2643 90.8639C78.2013 90.6257 78.058 90.4165 77.8584 90.2718C77.6589 90.1271 77.4155 90.0559 77.1695 90.0701Z" fill="#455A64"/>
<path d="M130.959 50.4128C129.685 55.2108 126.318 59.1364 124.015 61.3173C121.804 63.3658 119.483 65.2922 117.062 67.0879C114.465 69.0124 111.988 71.0954 109.647 73.3252C106.136 76.8146 103.305 80.9714 100.562 84.9973C97.9446 88.8313 95.2622 92.7918 91.9908 96.1504C85.6314 102.693 77.2524 106.841 69.1526 110.858C63.7265 113.549 58.1348 116.332 53.11 119.826C53.2066 119.887 53.2972 119.957 53.3804 120.035C58.3616 116.581 63.9097 113.82 69.2965 111.151C77.4225 107.12 85.8233 102.959 92.2264 96.3772C95.5151 92.9968 98.2194 89.0232 100.832 85.1849C103.567 81.1677 106.389 77.0196 109.878 73.5564C112.219 71.3347 114.696 69.2604 117.293 67.3452C119.724 65.5453 122.054 63.613 124.272 61.5572C126.58 59.337 129.943 55.4507 131.273 50.6266C131.162 50.5657 131.056 50.4941 130.959 50.4128Z" fill="#455A64"/>
<path d="M133.196 53.7888C131.107 58.4428 126.942 62.1285 123.164 65.4478C119.876 68.3528 116.622 71.454 114.554 75.0437C114.665 75.0641 114.775 75.0932 114.881 75.131C116.923 71.5936 120.137 68.5403 123.382 65.6746C127.112 62.3815 131.234 58.7263 133.38 54.1072C133.309 54.0069 133.248 53.9003 133.196 53.7888Z" fill="#455A64"/>
<path d="M104.121 87.5491C101.87 90.2316 100.043 93.2892 98.2587 96.2726C95.8466 100.316 93.3561 104.495 89.8492 107.661C86.085 111.068 81.3045 113.17 76.6854 115.203C75.294 115.813 73.8589 116.446 72.4675 117.104C69.2206 118.571 66.1994 120.494 63.4954 122.814C63.6288 122.832 63.7603 122.863 63.8879 122.906C66.5281 120.677 69.4637 118.825 72.6115 117.401C73.9942 116.742 75.4292 116.114 76.8162 115.504C81.4615 113.458 86.2638 111.347 90.0716 107.905C93.6134 104.704 96.117 100.49 98.5378 96.4384C100.283 93.4985 102.088 90.4933 104.287 87.8544C104.222 87.7582 104.166 87.6559 104.121 87.5491Z" fill="#455A64"/>
<path d="M110.319 95.5266C100.327 107.951 87.4083 117.702 72.7205 123.904L73.2178 123.756C73.4996 123.668 73.7961 123.637 74.0901 123.664C88.291 117.425 100.784 107.863 110.515 95.784C110.445 95.7017 110.38 95.6158 110.319 95.5266Z" fill="#455A64"/>
<path d="M99.0176 104.019C98.9003 104.019 98.7844 103.993 98.6774 103.945C98.0013 103.631 98.1322 102.689 98.2412 102.296C98.6774 100.307 100.562 95.2782 103.68 95.9193C103.874 95.9402 104.057 96.0139 104.211 96.1325C104.365 96.251 104.483 96.4097 104.553 96.5911C104.989 97.856 102.686 100.429 101.177 102.131C100.789 102.567 100.453 102.942 100.274 103.177C99.8507 103.727 99.4146 104.019 99.0176 104.019ZM98.5422 102.37C98.4855 102.615 98.3416 103.43 98.8126 103.648C99.2837 103.866 99.7548 103.317 100.008 102.977C100.195 102.732 100.518 102.37 100.928 101.912C102.21 100.469 104.601 97.7818 104.239 96.6783C104.184 96.5503 104.096 96.4398 103.983 96.359C103.869 96.2781 103.736 96.2302 103.597 96.2203C100.723 95.6489 98.9784 100.464 98.5422 102.37Z" fill="#455A64"/>
<path d="M111.279 101.751C105.298 109.325 98.3383 116.072 90.582 121.815C90.8518 121.673 91.1497 121.593 91.4543 121.58C98.8956 115.975 105.59 109.442 111.375 102.139C111.333 102.012 111.301 101.883 111.279 101.751Z" fill="#455A64"/>
<path d="M55.5657 51.8218C55.5361 51.8214 55.5071 51.8131 55.4818 51.7978C55.4565 51.7825 55.4358 51.7606 55.4217 51.7346C55.4112 51.7155 55.4047 51.6945 55.4025 51.6728C55.4004 51.6511 55.4026 51.6292 55.4091 51.6084C55.4157 51.5876 55.4263 51.5684 55.4405 51.5518C55.4546 51.5353 55.472 51.5218 55.4915 51.5121C57.053 50.6965 58.7367 49.8764 60.4988 49.0739C60.5179 49.0644 60.5387 49.059 60.56 49.0578C60.5813 49.0567 60.6026 49.0599 60.6226 49.0673C60.6425 49.0746 60.6608 49.0859 60.6763 49.1006C60.6918 49.1152 60.7041 49.1328 60.7126 49.1524C60.7221 49.1718 60.7276 49.1929 60.7288 49.2145C60.73 49.2361 60.7268 49.2577 60.7195 49.2781C60.7122 49.2984 60.7008 49.3171 60.6861 49.3329C60.6715 49.3488 60.6538 49.3616 60.634 49.3705C58.8893 50.173 57.197 50.9887 55.6442 51.8043C55.6191 51.8143 55.5926 51.8202 55.5657 51.8218Z" fill="#455A64"/>
<path d="M31.227 77.6783H31.1746C31.1541 77.6714 31.1351 77.6605 31.1189 77.6462C31.1026 77.6319 31.0894 77.6144 31.0801 77.5949C31.0707 77.5753 31.0654 77.5541 31.0644 77.5325C31.0634 77.5108 31.0668 77.4892 31.0743 77.4689C34.904 66.9309 41.5993 59.3894 52.7741 53.043C52.7927 53.0322 52.8132 53.0252 52.8345 53.0224C52.8558 53.0196 52.8775 53.0211 52.8982 53.0268C52.9189 53.0324 52.9383 53.0422 52.9552 53.0555C52.9721 53.0688 52.9862 53.0853 52.9966 53.1041C53.0074 53.1226 53.0144 53.1432 53.0172 53.1645C53.02 53.1858 53.0185 53.2074 53.0128 53.2281C53.0071 53.2488 52.9974 53.2682 52.9841 53.2851C52.9708 53.302 52.9543 53.3161 52.9355 53.3265C41.8392 59.6206 35.1831 67.0879 31.3709 77.5562C31.3617 77.5884 31.3431 77.6173 31.3174 77.639C31.2918 77.6607 31.2604 77.6744 31.227 77.6783Z" fill="#455A64"/>
<path d="M73.5885 124.027C59.8271 124.027 46.7854 119.076 38.0881 110.413C27.1444 99.509 23.8033 82.3629 30.311 70.5207C37.0805 58.2074 54.1176 46.5877 72.7074 41.6022C92.632 36.2634 112.574 38.7408 128.852 48.581C133.288 51.2635 134.959 55.8433 133.467 61.1473C131.543 67.9211 124.25 75.1878 115.789 75.1878H115.553C113.718 75.2164 111.91 75.6317 110.247 76.4066C108.584 77.1815 107.103 78.2985 105.901 79.6848C105.204 80.5428 104.684 81.5304 104.371 82.5905C104.058 83.6506 103.958 84.7622 104.077 85.8611C104.134 86.5826 104.341 87.2843 104.686 87.9207C105.031 88.5571 105.506 89.114 106.079 89.5555C111.065 93.1583 112.901 100.709 110.341 107.12C108.16 112.59 103.262 117.152 96.5445 119.961C91.4892 122.077 85.47 123.32 77.6057 123.887C76.2652 123.98 74.9261 124.027 73.5885 124.027ZM93.1772 39.2861C86.2968 39.304 79.4485 40.2249 72.8078 42.0253C54.3269 46.9802 37.3989 58.5171 30.6818 70.7301C24.2612 82.4065 27.5718 99.3346 38.3847 110.104C47.8366 119.521 62.4878 124.498 77.5708 123.446C85.3871 122.901 91.3627 121.671 96.3744 119.573C102.978 116.808 107.794 112.333 109.931 106.972C112.417 100.739 110.65 93.4113 105.818 89.9219C105.193 89.447 104.676 88.8456 104.3 88.1571C103.925 87.4686 103.698 86.7085 103.637 85.9265C103.513 84.7675 103.619 83.5955 103.95 82.4778C104.281 81.3602 104.83 80.319 105.565 79.4144C106.808 77.9799 108.341 76.8243 110.062 76.023C111.784 75.2218 113.655 74.793 115.553 74.7647H115.78C124.037 74.7647 131.16 67.6637 133.035 61.0382C134.483 55.9393 132.874 51.5383 128.617 48.9648C118.031 42.553 105.87 39.2861 93.1772 39.2861ZM88.6933 86.6723C85.3958 86.6723 82.6261 84.6136 82.347 81.8133C82.0416 78.7863 84.7547 76.0296 88.3924 75.6632C90.0736 75.4732 91.7689 75.8708 93.1903 76.7886C93.8326 77.1901 94.3763 77.7311 94.781 78.3714C95.1857 79.0117 95.4411 79.7349 95.5282 80.4874C95.8335 83.5101 93.1205 86.2667 89.4784 86.6331C89.2255 86.6593 88.9463 86.6723 88.6933 86.6723ZM89.208 76.0602C88.9502 76.0602 88.6925 76.0733 88.436 76.0994C85.0382 76.4396 82.4996 78.9825 82.7657 81.7697C83.0317 84.5569 86.0414 86.5371 89.4392 86.2013C92.8414 85.8567 95.3799 83.3138 95.1095 80.531C95.0269 79.8425 94.7909 79.1813 94.4187 78.5963C94.0465 78.0112 93.5477 77.5172 92.9591 77.1506C91.8442 76.424 90.5387 76.0445 89.208 76.0602Z" fill="#263238"/>
<path d="M61.1923 105.07C59.6352 107.661 58.9373 111.177 60.73 113.602C62.5838 116.118 66.2258 116.411 69.3314 116.031C73.6852 115.496 77.8896 114.102 81.7014 111.931C90.3464 107.011 87.6247 98.5057 78.3734 96.6912C72.0706 95.4393 64.4419 99.6528 61.1923 105.07Z" fill="#263238"/>
<path opacity="0.2" d="M42.6025 95.0252C42.6025 95.0252 42.3757 82.3063 55.6616 81.4252C68.9476 80.5441 66.3872 91.3351 66.3872 91.3351L42.6025 95.0252Z" fill="black"/>
<path d="M43.5839 97.4677C45.3809 99.7751 48.7657 100.028 51.675 99.6792C55.3949 99.2387 58.9854 98.0423 62.2261 96.1636C69.3271 91.9937 67.1418 85.0454 59.6483 83.1786C54.34 81.87 47.6229 84.8971 44.3472 89.2414C42.6156 91.5488 41.7301 95.0688 43.5839 97.4677Z" fill="#263238"/>
<path opacity="0.2" d="M43.5839 97.4677C45.3809 99.7751 48.7657 100.028 51.675 99.6792C55.3949 99.2387 58.9854 98.0423 62.2261 96.1636C69.3271 91.9937 67.1418 85.0454 59.6483 83.1786C54.34 81.87 47.6229 84.8971 44.3472 89.2414C42.6156 91.5488 41.7301 95.0688 43.5839 97.4677Z" fill="white"/>
<path opacity="0.2" d="M43.7583 74.2806V72.1433C43.7583 72.1433 48.2161 62.5474 58.065 64.2921C67.9138 66.0368 63.7353 73.2294 63.7353 73.2294L43.7583 74.2806Z" fill="black"/>
<path d="M44.3385 77.4602C46.0832 79.5626 49.2019 79.7763 51.9149 79.4579C54.9991 79.1143 57.9739 78.1133 60.6384 76.5224C66.1997 73.1159 64.5378 67.6767 58.8108 65.7925C54.4796 64.3662 48.5912 66.2286 45.394 69.5436C43.4356 71.5762 42.3931 75.1048 44.3385 77.4602Z" fill="#263238"/>
<path opacity="0.4" d="M44.3385 77.4602C46.0832 79.5626 49.2019 79.7763 51.9149 79.4579C54.9991 79.1143 57.9739 78.1133 60.6384 76.5224C66.1997 73.1159 64.5378 67.6767 58.8108 65.7925C54.4796 64.3662 48.5912 66.2286 45.394 69.5436C43.4356 71.5762 42.3931 75.1048 44.3385 77.4602Z" fill="white"/>
<path opacity="0.1" d="M64.2631 49.148C65.7624 48.68 67.3458 48.5457 68.9025 48.7544C70.4592 48.9632 71.9514 49.5099 73.2745 50.3562C74.2152 50.8959 74.9581 51.7229 75.3943 52.7159C75.765 53.7235 75.5426 55.0058 74.6615 55.6208C74.3132 55.8314 73.9226 55.9625 73.5177 56.0048C73.1128 56.047 72.7036 55.9993 72.3193 55.8651C71.5541 55.598 70.8129 55.2668 70.1035 54.875C68.4924 54.1127 66.7385 53.6995 64.9566 53.6624C63.4692 53.6319 61.0921 54.7834 59.7879 54.4213C56.3639 53.4705 62.8193 49.6059 64.2631 49.148Z" fill="black"/>
<path d="M58.331 59.926C59.9972 61.8277 62.8804 61.9978 65.3971 61.7099C67.8503 61.4654 70.2144 60.6595 72.3062 59.3546C76.3233 56.7375 75.1806 52.7116 71.2288 50.8797C67.8484 49.3138 62.7059 50.0073 59.6963 52.319C57.4543 54.0507 56.3072 57.6142 58.331 59.926Z" fill="#263238"/>
<path opacity="0.6" d="M58.331 59.926C59.9972 61.8277 62.8804 61.9978 65.3971 61.7099C67.8503 61.4654 70.2144 60.6595 72.3062 59.3546C76.3233 56.7375 75.1806 52.7116 71.2288 50.8797C67.8484 49.3138 62.7059 50.0073 59.6963 52.319C57.4543 54.0507 56.3072 57.6142 58.331 59.926Z" fill="white"/>
<path opacity="0.1" d="M79.9087 46.8712C80.8267 45.8367 81.9916 45.0514 83.2948 44.5884C84.5981 44.1254 85.9973 43.9997 87.3622 44.223C88.7271 44.4464 90.0133 45.0115 91.101 45.8658C92.1886 46.72 93.0425 47.8357 93.5829 49.1088C93.7268 47.1154 94.3898 46.387 92.8806 45.0741C89.2647 41.9293 81.4528 42.3044 79.9087 46.8712Z" fill="black"/>
<path d="M80.3842 51.8873C81.9718 53.5884 84.6151 53.7061 86.9268 53.4488C88.7369 53.2438 90.5645 52.7509 92.0126 51.6779C94.5076 49.8329 93.8969 47.0893 91.6899 45.4537C89.2604 43.661 84.7852 43.1332 82.0373 44.5813C79.4726 45.9378 78.2687 49.641 80.3842 51.8873Z" fill="#263238"/>
<path opacity="0.8" d="M80.3842 51.8873C81.9718 53.5884 84.6151 53.7061 86.9268 53.4488C88.7369 53.2438 90.5645 52.7509 92.0126 51.6779C94.5076 49.8329 93.8969 47.0893 91.6899 45.4537C89.2604 43.661 84.7852 43.1332 82.0373 44.5813C79.4726 45.9378 78.2687 49.641 80.3842 51.8873Z" fill="white"/>
<path opacity="0.1" d="M98.7428 49.2352C99.0482 49.0956 101.29 43.3032 107.091 46.0685C112.892 48.8339 109.176 53.6449 109.176 53.6449L98.7428 49.2352Z" fill="black"/>
<path d="M99.8725 53.488C101.382 54.9972 103.798 55.0626 105.914 54.8358C107.087 54.7093 108.343 54.4781 109.176 53.645C110.179 52.6331 110.262 50.9364 109.612 49.6758C108.426 47.4121 104.33 45.7939 101.844 46.4874C98.8955 47.3074 97.6698 51.281 99.8725 53.488Z" fill="white"/>
<path opacity="0.2" d="M79.1018 68.8022C78.6656 70.9831 83.6991 73.2338 83.7166 73.2425C85.3653 73.7005 103.24 69.3169 103.24 69.3169L97.4125 61.5835C97.4125 61.5835 78.4388 63.0011 79.2981 67.7947L79.1018 68.8022Z" fill="black"/>
<path d="M96.4878 62.3555L82.1899 66.4599L82.1071 68.3093L84.0131 72.1433L84.3097 73.2294L103.707 69.1337L96.4878 62.3555Z" fill="white" stroke="#263238" stroke-linecap="round" stroke-linejoin="round"/>
<path d="M96.4878 62.3553L101.77 69.5653C101.77 69.5653 102.729 70.224 103.606 69.8314C104.483 69.4388 104.592 68.6624 102.075 65.522C99.5585 62.3815 98.4462 61.5528 98.4462 61.5528C98.4462 61.5528 96.876 60.3664 96.4878 62.3553Z" fill="white" stroke="#263238" stroke-linecap="round" stroke-linejoin="round"/>
<path d="M84.1484 66.5296C83.8656 66.3213 83.5265 66.2032 83.1756 66.1908C82.8246 66.1783 82.478 66.2721 82.1812 66.4598C81.8883 66.659 81.6401 66.917 81.4523 67.2174C81.2646 67.5178 81.1414 67.8539 81.0907 68.2045C80.9923 68.9005 81.0413 69.6093 81.2347 70.2851C81.3981 71.0483 81.7438 71.7606 82.2423 72.3613C82.4939 72.6568 82.811 72.8896 83.1684 73.041C83.5258 73.1924 83.9136 73.2584 84.301 73.2336C84.7317 73.1661 85.1358 72.9821 85.4695 72.7015C85.8031 72.4209 86.0537 72.0544 86.194 71.6416C86.4634 70.8072 86.4341 69.9051 86.1111 69.09C85.3915 67.0879 84.1484 66.5296 84.1484 66.5296Z" fill="#263238"/>
<path d="M82.8747 69.6482C82.962 70.4464 82.6654 71.1356 82.2117 71.1879C81.7581 71.2403 81.3176 70.6296 81.2303 69.8314C81.1431 69.0332 81.4353 68.3397 81.889 68.2874C82.3426 68.235 82.7831 68.8326 82.8747 69.6482Z" fill="white" stroke="#263238" stroke-linecap="round" stroke-linejoin="round"/>
<path d="M80.9818 71.3349C81.4367 71.2843 81.7335 70.5951 81.6446 69.7954C81.5558 68.9958 81.115 68.3885 80.6601 68.439C80.2052 68.4895 79.9084 69.1788 79.9973 69.9785C80.0861 70.7781 80.5269 71.3854 80.9818 71.3349Z" fill="white" stroke="#263238" stroke-linecap="round" stroke-linejoin="round"/>
<path d="M80.9599 69.8576C81.021 70.4072 80.8203 70.8783 80.5237 70.9131C80.2271 70.948 79.9087 70.5337 79.8477 69.9841C79.7866 69.4345 79.9916 68.9634 80.2838 68.9285C80.5761 68.8937 80.8988 69.3124 80.9599 69.8576Z" fill="#263238"/>
<path d="M87.9911 70.403L95.1706 69.7051L87.9911 70.403Z" fill="white"/>
<path d="M87.9911 70.403L95.1706 69.7051" stroke="#263238" stroke-linecap="round" stroke-linejoin="round"/>
<path d="M103.297 68.4707C103.178 68.3738 103.032 68.3177 102.879 68.311C102.727 68.3042 102.576 68.3472 102.45 68.4333C102.324 68.5195 102.229 68.6442 102.179 68.7888C102.13 68.9335 102.129 69.0902 102.176 69.2355C102.224 69.3808 102.317 69.5069 102.442 69.5948C102.567 69.6827 102.717 69.7278 102.869 69.7232C103.022 69.7186 103.169 69.6646 103.289 69.5694C103.408 69.4741 103.494 69.3427 103.532 69.1948L102.847 68.8633C102.808 68.9549 102.769 69.0465 102.734 69.1381" fill="white"/>
<path d="M103.297 68.4707C103.178 68.3738 103.032 68.3177 102.879 68.311C102.727 68.3042 102.576 68.3472 102.45 68.4333C102.324 68.5195 102.229 68.6442 102.179 68.7888C102.13 68.9335 102.129 69.0902 102.176 69.2355C102.224 69.3808 102.317 69.5069 102.442 69.5948C102.567 69.6827 102.717 69.7278 102.869 69.7232C103.022 69.7186 103.169 69.6646 103.289 69.5694C103.408 69.4741 103.494 69.3427 103.532 69.1948L102.847 68.8633C102.808 68.9549 102.769 69.0465 102.734 69.1381" stroke="#263238" stroke-linecap="round" stroke-linejoin="round"/>
<path d="M91.0007 68.3005H91.2886C92.7756 68.3595 94.2263 67.8316 95.3276 66.8306" fill="white"/>
<path d="M91.0007 68.3005H91.2886C92.7756 68.3595 94.2263 67.8316 95.3276 66.8306" stroke="#263238" stroke-linecap="round" stroke-linejoin="round"/>
<path d="M88.8111 68.0083C89.1339 68.0781 89.4566 68.1392 89.7794 68.1871L88.8111 68.0083Z" fill="white"/>
<path d="M88.8111 68.0083C89.1339 68.0781 89.4566 68.1392 89.7794 68.1871" stroke="#263238" stroke-linecap="round" stroke-linejoin="round"/>
<path d="M86.9486 67.5242L87.9038 67.7728L86.9486 67.5242Z" fill="white"/>
<path d="M86.9486 67.5242L87.9038 67.7728" stroke="#263238" stroke-linecap="round" stroke-linejoin="round"/>
<path d="M96.6797 63.376C98.2195 64.52 99.2561 66.2163 99.5716 68.1085L96.6797 63.376Z" fill="white"/>
<path d="M96.6797 63.376C98.2195 64.52 99.2561 66.2163 99.5716 68.1085" stroke="#263238" stroke-linecap="round" stroke-linejoin="round"/>
<path d="M79.8607 69.1511C79.1542 69.3165 78.5331 69.7359 78.1157 70.3294C77.6983 70.923 77.5137 71.6493 77.597 72.3701C77.7235 73.2076 78.5042 74.0712 79.3024 73.7877C79.8782 73.5827 80.1181 72.9153 80.2228 72.3047C80.3885 71.3391 80.3885 70.3523 80.2228 69.3866L79.5554 69.7923L79.8607 69.1511Z" fill="#263238"/>
<path d="M87.9038 64.9069C87.9038 64.9069 89.5177 66.1413 90.0542 69.0244L90.5907 71.9076L95.5151 70.8651C95.5151 70.8651 95.6154 65.3736 93.1641 64.0869C90.7128 62.8002 92.3441 63.5461 92.3441 63.5461L87.9038 64.9069Z" fill="#FF5A36" stroke="#263238" stroke-miterlimit="10"/>
<path opacity="0.2" d="M111.99 57.623C110.934 58.4953 109.861 59.3895 109.146 60.5541C108.402 61.7649 108.084 63.1896 108.243 64.6018C108.326 65.3346 108.679 66.1764 109.39 66.316C110.035 66.4425 110.616 65.9496 111.087 65.4872L119.143 57.636C120.499 56.3275 121.433 53.5185 118.707 53.1303C116.386 52.7945 113.603 56.2795 111.99 57.623Z" fill="black"/>
<path d="M118.672 53.9285L109.953 62.4819L110.616 63.8515L113.49 65.8754L114.131 66.5427L126.536 56.0003L118.672 53.9285Z" fill="white" stroke="#263238" stroke-linecap="round" stroke-linejoin="round"/>
<path d="M118.672 53.9286L125.31 57.0691C125.572 57.095 125.837 57.0614 126.084 56.9708C126.331 56.8801 126.554 56.7348 126.737 56.5456C127.216 55.9175 126.994 55.3156 123.95 54.0289C120.905 52.7422 119.775 52.5808 119.775 52.5808C119.775 52.5808 118.17 52.3409 118.672 53.9286Z" fill="white" stroke="#263238" stroke-linecap="round" stroke-linejoin="round"/>
<path d="M111.401 61.7623C111.115 61.7216 110.823 61.7686 110.565 61.8971C110.306 62.0256 110.093 62.2295 109.953 62.482C109.82 62.7385 109.741 63.0197 109.722 63.308C109.704 63.5963 109.745 63.8854 109.844 64.1569C110.043 64.6976 110.355 65.1897 110.76 65.6007C111.176 66.0886 111.704 66.4687 112.299 66.7085C112.596 66.8252 112.917 66.8709 113.235 66.8421C113.553 66.8134 113.86 66.7109 114.131 66.5428C114.416 66.3252 114.636 66.0339 114.768 65.7002C114.899 65.3666 114.937 65.0033 114.877 64.6498C114.743 63.9423 114.369 63.3028 113.817 62.8397C112.5 61.6707 111.401 61.7623 111.401 61.7623Z" fill="#263238"/>
<path d="M111.693 64.5145C112.072 65.0597 112.129 65.6747 111.819 65.8884C111.51 66.1021 110.947 65.8361 110.576 65.2909C110.206 64.7456 110.14 64.135 110.454 63.9213C110.768 63.7075 111.318 63.9736 111.693 64.5145Z" fill="white" stroke="#263238" stroke-linecap="round" stroke-linejoin="round"/>
<path d="M110.869 65.0903C111.244 65.6312 111.305 66.2462 110.995 66.4599C110.685 66.6736 110.123 66.4076 109.752 65.8667C109.381 65.3258 109.316 64.7065 109.625 64.4927C109.935 64.279 110.489 64.5451 110.869 65.0903Z" fill="white" stroke="#263238" stroke-linecap="round" stroke-linejoin="round"/>
<path d="M110.397 65.4175C110.655 65.7883 110.69 66.2114 110.48 66.3553C110.271 66.4992 109.892 66.3204 109.634 65.9496C109.377 65.5789 109.338 65.1558 109.547 65.0119C109.756 64.8679 110.136 65.0468 110.397 65.4175Z" fill="#263238"/>
<path d="M125.982 55.6818C125.859 55.6538 125.731 55.6664 125.616 55.7178C125.501 55.7691 125.406 55.8565 125.345 55.9666C125.284 56.0768 125.261 56.2037 125.278 56.3284C125.296 56.453 125.354 56.5686 125.443 56.6576C125.532 56.7466 125.647 56.8042 125.772 56.8218C125.896 56.8394 126.023 56.8159 126.133 56.755C126.244 56.6941 126.331 56.599 126.382 56.4841C126.434 56.3692 126.446 56.2407 126.418 56.118L125.795 56.1442C125.795 56.2271 125.795 56.3056 125.816 56.3884" fill="white"/>
<path d="M125.982 55.6818C125.859 55.6538 125.731 55.6664 125.616 55.7178C125.501 55.7691 125.406 55.8565 125.345 55.9666C125.284 56.0768 125.261 56.2037 125.278 56.3284C125.296 56.453 125.354 56.5686 125.443 56.6576C125.532 56.7466 125.647 56.8042 125.772 56.8218C125.896 56.8394 126.023 56.8159 126.133 56.755C126.244 56.6941 126.331 56.599 126.382 56.4841C126.434 56.3692 126.446 56.2407 126.418 56.118L125.795 56.1442C125.795 56.2271 125.795 56.3056 125.816 56.3884" stroke="#263238" stroke-linecap="round" stroke-linejoin="round"/>
<path d="M119.213 54.5916C120.766 54.8203 122.172 55.6388 123.138 56.8771L119.213 54.5916Z" fill="white"/>
<path d="M119.213 54.5916C120.766 54.8203 122.172 55.6388 123.138 56.8771" stroke="#263238" stroke-linecap="round" stroke-linejoin="round"/>
<path d="M118.052 58.1288C118.489 57.9674 118.925 57.8278 119.304 57.6926L118.052 58.1288Z" fill="white"/>
<path d="M118.052 58.1288C118.489 57.9674 118.925 57.8278 119.304 57.6926" stroke="#263238" stroke-linecap="round" stroke-linejoin="round"/>
<path d="M111.697 60.7722C113.621 59.8519 115.357 59.1278 116.814 58.5913L111.697 60.7722Z" fill="white"/>
<path d="M111.697 60.7722C113.621 59.8519 115.357 59.1278 116.814 58.5913" stroke="#263238" stroke-linecap="round" stroke-linejoin="round"/>
<path d="M118.039 62.8003L121.747 58.5781L118.039 62.8003Z" fill="white"/>
<path d="M118.039 62.8003L121.747 58.5781" stroke="#263238" stroke-linecap="round" stroke-linejoin="round"/>
<path d="M113.455 59.0491C113.891 58.6129 117.586 58.7656 118.039 60.6891L118.476 62.6127L122.196 59.6728C122.196 59.6728 123.361 56.0918 116.875 55.6731L113.455 59.0491Z" fill="#263238" stroke="#263238" stroke-miterlimit="10"/>
<path opacity="0.2" d="M86.7218 103.055C85.928 100.128 82.9532 97.5898 78.3734 96.6913C72.0706 95.4569 64.4419 99.6529 61.1923 105.07C60.1987 106.661 59.6727 108.499 59.6745 110.374C59.0856 108.193 59.7748 105.633 60.983 103.622C64.2325 98.2005 71.8612 94.0262 78.164 95.2432C83.4854 96.2856 86.6433 99.5395 86.7218 103.055Z" fill="black"/>
<path d="M101.739 84.8708C101.74 85.378 101.782 85.8842 101.866 86.3844C102.302 88.9098 103.746 91.13 105.168 93.2673C106.59 95.4045 108.051 97.6029 108.535 100.124C109.019 102.645 108.269 105.581 106.084 106.92" stroke="#263238" stroke-linecap="round" stroke-linejoin="round"/>
<path d="M103.009 80.1123C102.528 80.9603 102.176 81.8744 101.962 82.8253" stroke="#263238" stroke-linecap="round" stroke-linejoin="round"/>
<path d="M104.823 77.8484C104.414 78.2171 104.04 78.6231 103.707 79.061" stroke="#263238" stroke-linecap="round" stroke-linejoin="round"/>
</svg>
