<svg width="686" height="640" viewBox="0 0 686 640" fill="none" xmlns="http://www.w3.org/2000/svg">
<circle cx="429.5" cy="383.5" r="256.5" fill="#393939"/>
<path d="M420.687 584.438C303.311 584.438 208.159 576.705 208.159 567.166C208.159 557.627 303.311 549.894 420.687 549.894C538.063 549.894 633.215 557.627 633.215 567.166C633.215 576.705 538.063 584.438 420.687 584.438Z" fill="#EBEBEB"/>
<path d="M250.328 445.018C242.204 438.745 232.402 435.022 222.162 434.32C211.922 433.619 201.704 435.969 192.8 441.075C183.896 446.181 176.706 453.813 172.139 463.005C167.573 472.198 165.835 482.538 167.146 492.718C168.457 502.898 172.757 512.461 179.503 520.197C186.249 527.933 195.137 533.494 205.044 536.179C214.951 538.863 225.431 538.548 235.16 535.276C244.888 532.003 253.427 525.919 259.698 517.793C268.104 506.899 271.839 493.112 270.082 479.465C268.325 465.818 261.219 453.427 250.328 445.018ZM233.435 466.911C237.233 469.837 240.078 473.825 241.61 478.368C243.141 482.912 243.291 487.808 242.04 492.437C240.789 497.065 238.193 501.219 234.581 504.372C230.969 507.526 226.503 509.537 221.747 510.151C216.992 510.766 212.161 509.957 207.866 507.825C203.571 505.694 200.004 502.337 197.617 498.178C195.23 494.02 194.13 489.247 194.456 484.463C194.783 479.679 196.52 475.1 199.449 471.304C201.39 468.777 203.811 466.659 206.571 465.068C209.332 463.478 212.379 462.448 215.538 462.036C218.698 461.624 221.907 461.84 224.983 462.669C228.059 463.499 230.941 464.927 233.465 466.872L233.435 466.911Z" fill="#EBEBEB"/>
<path d="M264.095 508.585L251.916 524.368L263.756 532.129L274.595 518.082L264.095 508.585Z" fill="#EBEBEB"/>
<path d="M235.58 534.527L215.795 537.09L218.699 550.952L236.299 548.683L235.58 534.527Z" fill="#EBEBEB"/>
<path d="M197.058 532.733L181.261 520.544L173.5 532.384L187.56 543.233L197.058 532.733Z" fill="#EBEBEB"/>
<path d="M171.102 504.208L168.54 484.423L154.687 487.314L156.956 504.915L171.102 504.208Z" fill="#EBEBEB"/>
<path d="M172.906 465.673L185.095 449.877L173.245 442.128L162.406 456.175L172.906 465.673Z" fill="#EBEBEB"/>
<path d="M201.432 439.717L221.22 437.178L218.316 423.316L200.715 425.585L201.432 439.717Z" fill="#EBEBEB"/>
<path d="M239.957 441.535L255.753 453.723L263.501 441.873L249.454 431.034L239.957 441.535Z" fill="#EBEBEB"/>
<path d="M265.912 470.06L268.461 489.835L282.327 486.954L280.058 469.353L265.912 470.06Z" fill="#EBEBEB"/>
<path d="M220.744 502.523L233.919 492.465L231.81 476.008L216.54 469.641L203.375 479.685L205.482 496.12L220.744 502.523ZM214.475 482.898C215.109 482.077 215.972 481.462 216.955 481.132C217.938 480.801 218.997 480.769 219.998 481.04C220.999 481.311 221.897 481.873 222.579 482.655C223.26 483.436 223.695 484.403 223.828 485.431C223.96 486.46 223.785 487.505 223.324 488.433C222.862 489.362 222.136 490.134 221.237 490.65C220.337 491.166 219.305 491.404 218.27 491.333C217.235 491.263 216.245 490.887 215.424 490.253C214.323 489.403 213.604 488.151 213.426 486.772C213.248 485.393 213.626 483.999 214.475 482.898Z" fill="#EBEBEB"/>
<path d="M227.021 276.532C218.94 270.301 209.193 266.606 199.011 265.914C188.83 265.222 178.673 267.565 169.823 272.647C160.973 277.728 153.829 285.319 149.294 294.461C144.759 303.603 143.036 313.884 144.344 324.004C145.652 334.125 149.932 343.63 156.642 351.318C163.352 359.007 172.192 364.532 182.042 367.197C191.893 369.862 202.312 369.545 211.983 366.288C221.654 363.031 230.142 356.979 236.374 348.898C244.713 338.055 248.411 324.347 246.658 310.782C244.905 297.216 237.843 284.899 227.021 276.532ZM220.312 285.227C226.678 290.135 231.445 296.82 234.01 304.438C236.575 312.056 236.823 320.263 234.723 328.022C232.622 335.781 228.268 342.742 222.21 348.025C216.152 353.308 208.663 356.676 200.691 357.702C192.719 358.728 184.621 357.366 177.423 353.789C170.225 350.212 164.249 344.58 160.253 337.606C156.256 330.633 154.418 322.63 154.97 314.611C155.523 306.592 158.442 298.917 163.357 292.557C169.94 284.04 179.636 278.486 190.312 277.117C200.989 275.747 211.773 278.674 220.292 285.253L220.312 285.227ZM227.021 276.532C218.94 270.301 209.193 266.606 199.011 265.914C188.83 265.222 178.673 267.565 169.823 272.647C160.973 277.728 153.829 285.319 149.294 294.461C144.759 303.603 143.036 313.884 144.344 324.004C145.652 334.125 149.932 343.63 156.642 351.318C163.352 359.007 172.192 364.532 182.042 367.197C191.893 369.862 202.312 369.545 211.983 366.288C221.654 363.031 230.142 356.979 236.374 348.898C244.713 338.055 248.411 324.347 246.658 310.782C244.905 297.216 237.843 284.899 227.021 276.532ZM220.312 285.227C226.678 290.135 231.445 296.82 234.01 304.438C236.575 312.056 236.823 320.263 234.723 328.022C232.622 335.781 228.268 342.742 222.21 348.025C216.152 353.308 208.663 356.676 200.691 357.702C192.719 358.728 184.621 357.366 177.423 353.789C170.225 350.212 164.249 344.58 160.253 337.606C156.256 330.633 154.418 322.63 154.97 314.611C155.523 306.592 158.442 298.917 163.357 292.557C169.94 284.04 179.636 278.486 190.312 277.117C200.989 275.747 211.773 278.674 220.292 285.253L220.312 285.227ZM248.639 248.516C235.012 238.022 218.58 231.803 201.42 230.646C184.259 229.489 167.141 233.445 152.229 242.014C137.316 250.584 125.279 263.381 117.639 278.79C109.998 294.199 107.097 311.528 109.302 328.585C111.508 345.642 118.721 361.663 130.029 374.622C141.338 387.581 156.234 396.896 172.836 401.391C189.437 405.886 206.999 405.358 223.3 399.874C239.602 394.39 253.912 384.197 264.422 370.582C271.403 361.534 276.533 351.198 279.518 340.165C282.503 329.133 283.283 317.621 281.816 306.287C280.348 294.952 276.661 284.019 270.965 274.11C265.268 264.202 257.675 255.514 248.619 248.542L248.639 248.516ZM230.043 272.616C238.903 279.448 245.538 288.755 249.108 299.359C252.677 309.962 253.022 321.386 250.098 332.186C247.174 342.986 241.112 352.675 232.68 360.029C224.248 367.383 213.824 372.071 202.728 373.5C191.631 374.929 180.359 373.035 170.339 368.057C160.319 363.078 152.001 355.24 146.436 345.534C140.872 335.827 138.311 324.688 139.078 313.526C139.846 302.364 143.906 291.68 150.746 282.826C159.922 270.977 173.421 263.249 188.285 261.335C203.149 259.421 218.165 263.478 230.043 272.616ZM227.021 276.532C218.94 270.301 209.193 266.606 199.011 265.914C188.83 265.222 178.673 267.565 169.823 272.647C160.973 277.728 153.829 285.319 149.294 294.461C144.759 303.603 143.036 313.884 144.344 324.004C145.652 334.125 149.932 343.63 156.642 351.318C163.352 359.007 172.192 364.532 182.042 367.197C191.893 369.862 202.312 369.545 211.983 366.288C221.654 363.031 230.142 356.979 236.374 348.898C244.713 338.055 248.411 324.347 246.658 310.782C244.905 297.216 237.843 284.899 227.021 276.532ZM220.312 285.227C226.678 290.135 231.445 296.82 234.01 304.438C236.575 312.056 236.823 320.263 234.723 328.022C232.622 335.781 228.268 342.742 222.21 348.025C216.152 353.308 208.663 356.676 200.691 357.702C192.719 358.728 184.621 357.366 177.423 353.789C170.225 350.212 164.249 344.58 160.253 337.606C156.256 330.633 154.418 322.63 154.97 314.611C155.523 306.592 158.442 298.917 163.357 292.557C169.94 284.04 179.636 278.486 190.312 277.117C200.989 275.747 211.773 278.674 220.292 285.253L220.312 285.227Z" fill="#FF5A36"/>
<path d="M269.407 361.557L257.238 377.327L274.188 387.886L283.929 375.262L269.407 361.557Z" fill="#FF5A36"/>
<path d="M237.454 392.575L219.045 400.156L228.441 417.778L243.178 411.717L237.454 392.575Z" fill="#FF5A36"/>
<path d="M194.29 403.465L174.55 400.813L173.867 420.781L189.673 422.917L194.29 403.465Z" fill="#FF5A36"/>
<path d="M151.447 391.318L135.677 379.149L125.108 396.112L137.732 405.853L151.447 391.318Z" fill="#FF5A36"/>
<path d="M120.42 359.378L112.848 340.956L95.2261 350.352L101.277 365.102L120.42 359.378Z" fill="#FF5A36"/>
<path d="M109.53 316.214L112.181 296.474L92.2132 295.791L90.0873 311.584L109.53 316.214Z" fill="#FF5A36"/>
<path d="M121.677 273.371L133.845 257.601L116.892 247.019L107.141 259.656L121.677 273.371Z" fill="#FF5A36"/>
<path d="M153.616 242.344L172.038 234.772L162.652 217.137L147.892 223.201L153.616 242.344Z" fill="#FF5A36"/>
<path d="M196.79 231.44L216.53 234.092L217.213 214.124L201.41 212.011L196.79 231.44Z" fill="#FF5A36"/>
<path d="M239.633 243.587L255.403 255.756L265.975 238.816L253.351 229.075L239.633 243.587Z" fill="#FF5A36"/>
<path d="M270.651 275.54L278.222 293.962L295.867 284.563L289.793 269.816L270.651 275.54Z" fill="#FF5A36"/>
<path d="M281.554 318.714L278.902 338.454L298.87 339.137L300.993 323.321L281.554 318.714Z" fill="#FF5A36"/>
<path d="M391.006 191.226C381.814 183.739 370.609 179.146 358.806 178.028C347.004 176.91 335.135 179.316 324.7 184.944C314.266 190.571 305.734 199.166 300.185 209.642C294.635 220.119 292.317 232.005 293.523 243.799C294.73 255.593 299.406 266.764 306.962 275.9C314.517 285.036 324.612 291.726 335.97 295.124C347.327 298.523 359.438 298.477 370.769 294.992C382.101 291.508 392.145 284.741 399.631 275.548C409.668 263.222 414.398 247.414 412.78 231.601C411.163 215.788 403.331 201.265 391.006 191.226ZM370.828 216C375.134 219.498 378.305 224.195 379.939 229.497C381.574 234.798 381.599 240.465 380.011 245.781C378.423 251.096 375.294 255.821 371.019 259.357C366.744 262.893 361.516 265.081 355.997 265.644C350.478 266.207 344.916 265.12 340.016 262.521C335.115 259.921 331.096 255.926 328.467 251.041C325.838 246.155 324.718 240.6 325.248 235.078C325.778 229.555 327.935 224.315 331.445 220.019C336.141 214.273 342.923 210.623 350.306 209.869C357.688 209.116 365.068 211.321 370.828 216Z" fill="#EBEBEB"/>
<path d="M404.979 265.054L390.423 282.919L403.875 292.236L416.827 276.341L404.979 265.054Z" fill="#EBEBEB"/>
<path d="M371.252 294.161L348.31 296.495L351.233 312.601L371.645 310.522L371.252 294.161Z" fill="#EBEBEB"/>
<path d="M326.814 290.884L308.939 276.341L299.622 289.792L315.527 302.731L326.814 290.884Z" fill="#EBEBEB"/>
<path d="M297.707 257.157L295.363 234.228L279.27 237.161L281.346 257.549L297.707 257.157Z" fill="#EBEBEB"/>
<path d="M300.974 212.732L315.529 194.866L302.078 185.55L289.126 201.444L300.974 212.732Z" fill="#EBEBEB"/>
<path d="M334.701 183.625L357.629 181.28L354.706 165.175L334.308 167.264L334.701 183.625Z" fill="#EBEBEB"/>
<path d="M379.126 186.892L396.991 201.447L406.318 187.983L390.413 175.044L379.126 186.892Z" fill="#EBEBEB"/>
<path d="M408.233 220.619L410.577 243.547L426.683 240.624L424.594 220.226L408.233 220.619Z" fill="#EBEBEB"/>
<path d="M355.057 259.275L371.663 247.282L369.554 226.91L350.875 218.537L334.256 230.519L336.352 250.882L355.057 259.275ZM347.938 234.787C348.751 233.793 349.84 233.062 351.068 232.686C352.296 232.311 353.608 232.308 354.838 232.677C356.067 233.047 357.16 233.772 357.978 234.763C358.795 235.753 359.301 236.963 359.431 238.24C359.562 239.518 359.31 240.805 358.709 241.94C358.108 243.075 357.185 244.006 356.055 244.616C354.925 245.226 353.64 245.488 352.361 245.368C351.083 245.248 349.868 244.752 348.872 243.942C348.206 243.404 347.654 242.74 347.246 241.988C346.839 241.236 346.585 240.41 346.498 239.559C346.411 238.708 346.494 237.848 346.741 237.029C346.988 236.21 347.395 235.448 347.938 234.787Z" fill="#EBEBEB"/>
<path d="M491.444 257.004C485.671 279.028 478.151 293.408 473.107 298.384C461.025 310.31 435 312.955 420.362 319.03C415.598 321.014 402.429 290.797 407.304 288.151C410.902 286.19 452.686 280.9 456.239 279.813C458.066 279.252 471.93 261.196 479.776 251.041C492.419 234.767 494.604 244.978 491.444 257.004Z" fill="#FFCAC4"/>
<path d="M397.486 323.266C399.728 323.21 399.806 324.387 396.679 326.976C393.552 329.565 378.993 337.064 382.053 341.939C385.112 346.815 405.5 335.876 410.375 331.191C415.251 326.506 421.516 317.225 421.516 317.225C417.111 318.559 406.116 320.767 397.486 323.266Z" fill="#FFCAC4"/>
<path d="M410.824 287.199C389.125 290.561 380.495 294.809 370.99 305.905C369.905 307.104 369.25 308.63 369.13 310.243C364.781 315.129 365.767 318.66 365.767 318.66C363.122 324.455 364.646 327.918 364.646 327.918C364.646 327.918 359.603 333.712 362.606 337.344C365.969 341.424 372.38 332.48 378.914 329.722C393.9 323.39 417.022 318.593 421.505 317.203L410.824 287.199Z" fill="#FFCAC4"/>
<path d="M389.999 312.081C385.589 313.876 381.309 315.973 377.188 318.357C372.844 321.242 368.723 324.449 364.859 327.952C364.833 327.967 364.803 327.972 364.773 327.968C364.743 327.963 364.715 327.949 364.694 327.927C364.674 327.905 364.661 327.877 364.658 327.847C364.656 327.816 364.663 327.786 364.68 327.761C371.479 320.259 380.205 314.766 389.909 311.879C390.134 311.812 390.223 311.98 389.999 312.081Z" fill="#263238"/>
<path d="M387.5 302.476C383.341 304.605 376.079 308.405 365.913 318.783C365.913 318.783 365.812 318.783 365.846 318.783C371.363 311.401 378.826 305.7 387.399 302.319C387.668 302.162 387.769 302.33 387.5 302.476Z" fill="#263238"/>
<path d="M386.054 297.342C379.138 301.243 375.272 304.571 369.186 310.265C369.186 310.265 369.096 310.265 369.13 310.209C375.35 303.013 378.421 301.108 385.942 297.084C386.211 296.95 386.323 297.185 386.054 297.342Z" fill="#263238"/>
<path d="M466.831 266.991L486.815 285.719C486.815 285.719 494.884 256.668 494.828 247.477C494.828 237.11 489.493 239.396 482.499 246.357C475.506 253.317 466.831 266.991 466.831 266.991Z" fill="#FF5A36"/>
<path opacity="0.1" d="M466.831 266.991L486.815 285.719C486.815 285.719 494.884 256.668 494.828 247.477C494.828 237.11 489.493 239.396 482.499 246.357C475.506 253.317 466.831 266.991 466.831 266.991Z" fill="black"/>
<path d="M470.922 264.032C473.791 266.072 481.536 273.402 482.836 274.601C483.519 275.24 486.12 277.874 486.803 278.501C486.893 278.58 486.803 278.703 486.669 278.625C485.358 277.437 483.923 276.383 482.612 275.184C481.3 273.985 473.141 266.823 470.832 264.133C470.776 264.077 470.854 263.987 470.922 264.032Z" fill="#263238"/>
<path d="M360.925 491.735C363.638 492.621 441.736 489.494 444.661 487.6C445.02 487.387 446.409 472.368 446.409 472.368L437.376 414.657L386.099 415.341L395.995 464.657C395.995 464.657 384.698 469.857 375.384 474.396C369.645 477.176 364.658 479.72 363.514 480.651C360.511 483.049 358.202 490.861 360.925 491.735Z" fill="#FFCAC4"/>
<path d="M360.914 491.735C363.626 492.621 441.747 489.494 444.661 487.611C445.008 487.387 446.421 472.368 446.421 472.368L443.63 454.592L394.437 456.833L396.029 464.612C396.029 464.612 384.742 469.812 375.417 474.34C369.679 477.12 364.691 479.664 363.548 480.595C360.522 483.06 358.213 490.872 360.914 491.735Z" fill="#EBEBEB"/>
<path d="M360.959 491.814C363.727 492.677 442.341 490.85 445.289 488.877C446.409 488.149 446.824 476.672 446.914 462.796V462.37L396.175 462.987V463.838C396.175 463.838 366.395 478.005 363.38 480.516C360.365 483.027 358.19 490.984 360.959 491.814Z" fill="#C7C7C7"/>
<path d="M365.442 492.038C382.647 492.217 442.778 490.603 445.289 488.889C446.409 488.16 446.824 476.683 446.914 462.807V462.381L415.139 462.762L365.442 492.038Z" fill="#A6A6A6"/>
<path d="M361.777 488.765C375.025 488.126 428.51 486.815 441.646 487.196C441.758 487.196 441.758 487.275 441.646 487.286C428.533 488.194 375.047 489.068 361.788 488.978C361.508 488.978 361.497 488.776 361.777 488.765Z" fill="#263238"/>
<path d="M391.96 464.107C397.15 462.987 403.55 463.659 407.652 467.291C407.809 467.425 407.652 467.649 407.439 467.593C402.418 466.103 397.251 465.156 392.028 464.769C391.947 464.765 391.871 464.732 391.813 464.677C391.755 464.621 391.718 464.547 391.71 464.467C391.702 464.387 391.723 464.307 391.769 464.241C391.815 464.175 391.883 464.128 391.96 464.107Z" fill="#263238"/>
<path d="M388.251 466.461C393.44 465.34 399.84 466.024 403.942 469.644C404.099 469.779 403.942 470.003 403.729 469.958C398.696 468.473 393.518 467.534 388.284 467.156C388.192 467.161 388.102 467.128 388.034 467.066C387.965 467.004 387.924 466.918 387.92 466.825C387.916 466.733 387.948 466.643 388.01 466.575C388.072 466.507 388.158 466.466 388.251 466.461Z" fill="#263238"/>
<path d="M384.541 468.815C389.73 467.694 396.13 468.378 400.232 471.998C400.389 472.144 400.232 472.357 400.019 472.312C394.998 470.819 389.831 469.868 384.608 469.476C384.528 469.472 384.452 469.439 384.393 469.384C384.335 469.329 384.299 469.254 384.291 469.174C384.282 469.094 384.303 469.014 384.349 468.948C384.395 468.882 384.463 468.835 384.541 468.815Z" fill="#263238"/>
<path d="M391.691 457.192L448.931 454.592C448.931 454.592 429.149 374.263 431.256 371.652C433.498 368.85 516.37 389.585 532.936 369.029C549.905 347.969 541.398 317.651 541.398 317.651H484.876C484.876 317.651 485.996 325.239 485.234 328.859C485.234 328.859 405.657 316.687 388.351 325.856C384.989 327.66 372.66 337.792 372.458 347.398C371.371 389.82 391.691 457.192 391.691 457.192Z" fill="#455A64"/>
<path d="M391.12 446.824C397.912 445.973 404.715 445.457 411.541 444.942C418.367 444.426 425.192 444.022 432.018 443.765C435.874 443.608 439.729 443.641 443.585 443.507C443.605 443.514 443.622 443.527 443.634 443.544C443.646 443.561 443.653 443.581 443.653 443.602C443.653 443.623 443.646 443.644 443.634 443.661C443.622 443.678 443.605 443.691 443.585 443.697C440.155 443.944 436.737 444.381 433.307 444.65L423.153 445.39C416.327 445.838 409.501 446.219 402.675 446.634C398.831 446.869 394.987 446.993 391.131 447.082C391.103 447.075 391.078 447.059 391.059 447.037C391.041 447.014 391.03 446.987 391.029 446.958C391.028 446.929 391.036 446.9 391.052 446.876C391.069 446.852 391.092 446.834 391.12 446.824Z" fill="#263238"/>
<path d="M422.435 365.947C433.43 366.306 444.37 367.258 455.309 368.334C466.248 369.41 477.254 370.576 488.283 371.293C493.752 371.641 499.244 371.865 504.736 371.898C509.298 372.094 513.864 371.618 518.287 370.486C522.679 369.203 526.432 366.324 528.811 362.416C531.203 358.456 532.77 354.052 533.418 349.471C534.864 340.202 533.418 330.731 531.725 321.585C531.512 320.464 531.3 319.344 531.098 318.133C531.098 318.032 531.243 317.987 531.277 318.133C533.519 327.357 535.615 336.851 534.942 346.378C534.667 351.052 533.527 355.636 531.58 359.895C529.823 364.033 526.802 367.509 522.949 369.825C519.015 372.067 514.364 372.728 509.847 372.952C504.579 373.221 499.244 372.952 493.977 372.717C482.701 372.167 471.471 371.002 460.263 369.836C449.055 368.67 437.902 367.527 426.638 366.967C425.394 366.9 424.15 366.855 422.906 366.81C424.61 376.897 439.034 436.95 439.841 441.702C439.92 442.173 439.472 442.319 439.348 441.837C436.883 432.478 422.884 372.347 421.953 366.474C421.938 366.405 421.94 366.334 421.958 366.267C421.977 366.199 422.011 366.137 422.058 366.085C422.105 366.034 422.164 365.994 422.23 365.97C422.295 365.946 422.366 365.938 422.435 365.947Z" fill="#263238"/>
<path d="M378.309 494.078H500.634V507.606H378.309V494.078Z" fill="#FF5A36"/>
<path d="M608.131 375.395H601.193L556.361 426.684H563.299L608.131 375.395Z" fill="#A6A6A6"/>
<path d="M520.753 371.327H617.165V375.384H520.753V371.327Z" fill="#A6A6A6"/>
<path d="M581.971 375.395H575.033L530.201 426.684H537.139L581.971 375.395Z" fill="#A6A6A6"/>
<path d="M537.363 469.947C502.528 469.947 482.343 494.145 482.343 522.625C482.343 551.105 501.038 574.754 535.009 574.754C572.601 574.754 590.557 544.851 590.557 522.367C590.557 499.884 572.624 469.947 537.363 469.947Z" fill="#37474F"/>
<path d="M542.721 469.947C509.601 469.947 490.424 494.145 490.424 522.625C490.424 551.105 508.188 574.754 540.501 574.754C576.244 574.754 593.292 544.806 593.292 522.322C593.292 499.839 576.244 469.947 542.721 469.947Z" fill="#263238"/>
<path d="M542.384 490.402C522.21 490.402 510.52 505.151 510.52 522.502C510.52 539.852 521.347 554.254 541.028 554.254C562.817 554.254 573.218 536.03 573.218 522.322C573.218 508.615 562.817 490.402 542.384 490.402Z" fill="#C7C7C7"/>
<path d="M438.754 406.094V401.51L555.98 405.287V415.599C555.98 415.599 589.929 453.09 593.359 492.06L475.808 494.549L456.923 494.078H433.733V470.518C433.733 470.518 451.263 457.741 448.191 431.638C447.172 422.974 438.754 406.094 438.754 406.094Z" fill="#FF5A36"/>
<path d="M486.759 489.09C487.98 491.332 505.812 494.549 539.616 495.456C570.046 496.275 592.776 495.602 594.536 493.641C596.295 491.679 591.812 456.99 571.212 438.206C550.611 419.421 521.448 416.72 502.215 427.928C485.302 437.757 472.681 462.74 486.759 489.09Z" fill="#FF5A36"/>
<path opacity="0.1" d="M481.02 456.251C482.827 448.036 486.996 440.529 493.013 434.653C499.044 428.609 506.576 424.28 514.835 422.111C524.047 419.811 533.695 419.915 542.855 422.413C547.439 423.615 551.872 425.334 556.069 427.535C560.501 429.917 564.677 432.745 568.533 435.975C569.564 436.827 570.606 437.679 571.626 438.553C571.716 438.62 571.626 438.743 571.492 438.676C567.612 435.265 563.412 432.236 558.95 429.631C554.878 427.306 550.559 425.445 546.072 424.083C537.176 421.301 527.73 420.77 518.578 422.537C510.307 424.199 502.642 428.072 496.398 433.745C490.381 439.162 485.955 446.118 483.598 453.863C480.796 463.3 481.715 473.69 484.506 483.004C484.876 484.26 485.279 485.492 485.694 486.725C485.694 486.86 485.537 486.905 485.492 486.781C481.726 477.109 478.913 466.685 481.02 456.251Z" fill="black"/>
<path d="M562.503 499.032C582.913 499.032 593.717 498.404 599.198 496.23L596.654 489.83C590.243 492.374 570.169 492.329 537.867 491.96C514.005 491.679 496.397 489.427 485.414 485.235L482.959 491.668C494.84 496.151 512.772 498.528 537.789 498.819C547.282 498.953 555.464 499.032 562.503 499.032Z" fill="#DBDBDB"/>
<path d="M436.826 404.525C436.826 404.525 436.042 378.881 436.826 377.872C437.611 376.864 556.282 374.723 559.835 375.037C563.388 375.351 563.747 405.299 563.478 406.7C563.209 408.101 439.92 404.794 436.826 404.525Z" fill="#37474F"/>
<path d="M425.708 378.388C426.056 377.984 441.097 377.559 441.926 377.536C442.756 377.514 443.047 404.85 442.599 404.828C442.15 404.805 426.257 405.03 425.73 404.447C425.204 403.864 424.957 379.262 425.708 378.388Z" fill="#455A64"/>
<path d="M508.827 375.059C509.252 375.502 509.53 376.066 509.623 376.673C509.764 377.313 509.865 377.96 509.926 378.612C510.071 379.912 510.15 381.235 510.217 382.546C510.329 385.191 510.396 387.848 510.441 390.515C510.486 393.183 510.553 395.828 510.441 398.462C510.431 399.766 510.341 401.069 510.172 402.362C510.105 402.987 509.958 403.601 509.735 404.189C509.653 404.453 509.508 404.692 509.313 404.888C509.118 405.083 508.878 405.228 508.614 405.31C508.91 405.301 509.197 405.208 509.442 405.041C509.686 404.874 509.877 404.641 509.993 404.368C510.307 403.782 510.551 403.162 510.721 402.519C511.039 401.205 511.245 399.866 511.338 398.518C511.545 395.833 511.612 393.139 511.54 390.448C511.472 387.769 511.36 385.079 511.058 382.4C510.912 381.06 510.699 379.729 510.419 378.41C510.262 377.758 510.072 377.115 509.847 376.483C509.668 375.933 509.354 375.25 508.827 375.059Z" fill="#455A64"/>
<path d="M612.704 371.271H500.634V301.601H612.704V371.271Z" fill="#37474F"/>
<path d="M612.704 371.271H531.737V301.601H612.704V371.271Z" fill="#263238"/>
<path d="M567.86 301.59H576.569V371.26H567.86V301.59Z" fill="#FF5A36"/>
<path d="M531.725 295.145H614.979V301.59H531.725V295.145Z" fill="#37474F"/>
<path d="M498.124 295.145H531.737V301.59H498.124V295.145Z" fill="#263238"/>
<path d="M567.132 295.145H577.309V301.59H567.132V295.145Z" fill="#FF5A36"/>
<path d="M600.835 295.437H519.027V244.574H600.835V295.437Z" fill="#37474F"/>
<path d="M600.835 295.437H541.734V244.574H600.835V295.437Z" fill="#263238"/>
<path d="M568.107 244.586H574.462V295.448H568.107V244.586Z" fill="#FF5A36"/>
<path d="M541.734 239.878H602.505V244.586H541.734V239.878Z" fill="#37474F"/>
<path d="M517.2 239.878H541.734V244.586H517.2V239.878Z" fill="#263238"/>
<path d="M567.569 239.878H575V244.586H567.569V239.878Z" fill="#FF5A36"/>
<path d="M281.505 469.521C246.659 469.521 226.484 493.719 226.484 522.199C226.484 550.679 245.179 574.294 279.162 574.294C316.765 574.294 334.721 544.391 334.721 521.919C334.721 499.447 316.765 469.521 281.505 469.521Z" fill="#37474F"/>
<path d="M286.862 469.521C253.742 469.521 234.554 493.719 234.554 522.199C234.554 550.679 252.33 574.294 284.632 574.294C320.374 574.294 337.444 544.391 337.444 521.919C337.444 499.447 320.374 469.521 286.862 469.521Z" fill="#263238"/>
<path d="M286.526 489.976C266.351 489.976 254.65 504.726 254.65 522.076C254.65 539.426 265.477 553.828 285.17 553.828C306.947 553.828 317.348 535.604 317.348 521.908C317.348 508.211 306.947 489.976 286.526 489.976Z" fill="#C7C7C7"/>
<path d="M337.87 350.547H351.578L360.97 336.761H344.909L337.87 350.547Z" fill="#FF5A36"/>
<path d="M360.97 336.761L355.467 344.831L351.578 350.547H337.87L341.58 343.284L344.92 336.761H360.97Z" fill="#FF5A36"/>
<path opacity="0.1" d="M360.97 336.761L355.467 344.831L341.58 343.284L344.92 336.761H360.97Z" fill="black"/>
<path d="M304.56 453.426L317.908 456.497L330.148 445.155L314.501 441.568L304.56 453.426Z" fill="#FF5A36"/>
<path d="M330.148 445.155L322.986 451.801L317.92 456.497L304.548 453.426L309.794 447.183L314.501 441.568L330.148 445.155Z" fill="#FF5A36"/>
<path opacity="0.1" d="M330.148 445.155L322.986 451.801L309.794 447.183L314.501 441.568L330.148 445.155Z" fill="black"/>
<path d="M229.51 476.246L242.478 483.06C242.478 483.06 280.036 476.246 304.123 481.402C328.209 486.557 334.71 499.424 334.71 499.424H346.882C346.882 499.424 336.436 462.314 318.716 448.842C300.996 435.37 272.516 438.385 256.768 446.869C241.021 455.354 229.51 476.246 229.51 476.246Z" fill="#FF5A36"/>
<path opacity="0.1" d="M243.845 480.494C246.358 477.871 249.079 475.457 251.983 473.276C254.86 471.039 257.902 469.023 261.084 467.246C267.251 463.819 274.014 461.597 281.012 460.7C294.708 459.019 309.032 463.009 319.119 473.533C324.79 479.496 328.825 486.815 332.658 494.201C332.714 494.313 332.558 494.403 332.502 494.291C329.254 487.797 325.153 481.765 320.307 476.358C315.638 471.26 309.826 467.342 303.349 464.926C290.426 460.185 276.45 462 264.031 467.728C260.475 469.339 257.044 471.212 253.765 473.332C250.411 475.59 247.175 478.018 244.07 480.606C244.05 480.624 244.024 480.636 243.998 480.639C243.971 480.643 243.943 480.638 243.919 480.626C243.895 480.614 243.875 480.595 243.862 480.571C243.849 480.548 243.843 480.521 243.845 480.494Z" fill="black"/>
<path d="M386.356 343.127C386.558 343.598 413.626 348.574 413.626 348.574C413.626 348.574 418.109 345.548 415.341 341.715L388.183 335.853C387.139 336.71 386.398 337.879 386.069 339.189C385.74 340.498 385.841 341.879 386.356 343.127Z" fill="#263238"/>
<path d="M329.543 308.136V340.247C329.543 340.247 346.881 338.734 351.499 338.577C356.117 338.42 376.639 341.076 376.639 341.076L378.231 333.881C378.231 333.881 362.405 328.355 355.68 324.04C348.955 319.725 341.21 311.476 337.052 309.649C334.699 308.573 332.129 308.055 329.543 308.136Z" fill="#FF5A36"/>
<path d="M376.572 332.973C375.541 334.033 374.763 335.313 374.297 336.716C373.832 338.119 373.689 339.61 373.882 341.076C373.882 341.076 386.805 343.441 386.962 343.441C386.854 341.921 387.223 340.405 388.016 339.103C388.81 337.802 389.988 336.779 391.389 336.178L376.572 332.973Z" fill="#DBDBDB"/>
<path d="M329.374 340.247C324.682 340.247 320.879 333.061 320.879 324.197C320.879 315.333 324.682 308.147 329.374 308.147C334.066 308.147 337.87 315.333 337.87 324.197C337.87 333.061 334.066 340.247 329.374 340.247Z" fill="#DBDBDB"/>
<path d="M328.848 338.521C324.83 338.521 321.574 332.108 321.574 324.197C321.574 316.286 324.83 309.873 328.848 309.873C332.865 309.873 336.122 316.286 336.122 324.197C336.122 332.108 332.865 338.521 328.848 338.521Z" fill="white"/>
<path d="M326.64 350.592C323.815 354.728 312.506 410.97 310.287 413.794C308.068 416.619 303.82 416.82 303.82 416.82L296.344 435.404C296.344 435.404 314.916 441.265 325.227 449.739C338.554 460.689 350.872 496.992 350.872 496.992C352.889 498.404 377.928 508.704 384.799 509.108C384.799 509.108 352.867 474.049 350.266 425.529C349.258 406.733 360.824 380.26 361.575 367.146C362.405 353.069 358.146 350.592 350.67 350.592H326.64Z" fill="#FF5A36"/>
<path d="M386.334 513.109L391.333 508.379C363.313 478.723 352.979 431.996 353.797 419.241C354.223 412.707 356.319 405.399 358.549 397.655C360.925 389.394 363.615 380.036 364.758 369.87C365.823 360.433 364.758 354.335 361.542 350.693C358.325 347.05 353.909 347.061 350.972 347.072H324.297V353.954H350.984C353.55 353.954 355.299 354.044 356.408 355.288C357.518 356.532 358.964 359.771 357.91 369.108C356.789 378.691 354.335 387.366 351.925 395.749C349.594 403.864 347.442 411.519 346.926 418.793C346.052 432.411 356.801 481.984 386.334 513.109Z" fill="#DBDBDB"/>
<path d="M310.153 429.138C308.583 434.922 303.641 438.598 299.113 437.365C294.584 436.132 292.175 430.45 293.755 424.677C295.335 418.905 300.278 415.207 304.806 416.439C309.334 417.672 311.733 423.366 310.153 429.138Z" fill="#DBDBDB"/>
<path d="M308.471 428.679C307.07 433.834 302.789 437.152 298.911 436.098C295.033 435.045 293.038 430.012 294.428 424.89C295.817 419.768 300.11 416.417 303.977 417.471C307.844 418.524 309.872 423.523 308.471 428.679Z" fill="white"/>
<path opacity="0.1" d="M329.98 428.208C331.224 422.391 332.569 416.596 333.734 410.768C334.9 404.94 335.976 399.1 336.884 393.239C337.769 387.78 338.722 382.266 339.069 376.74C339.417 370.968 339.069 365.14 336.267 359.928C336.262 359.918 336.258 359.907 336.256 359.895C336.255 359.883 336.256 359.871 336.259 359.86C336.262 359.848 336.267 359.837 336.274 359.828C336.282 359.819 336.291 359.811 336.301 359.805C336.311 359.799 336.323 359.795 336.335 359.794C336.346 359.792 336.358 359.793 336.37 359.796C336.381 359.799 336.392 359.805 336.401 359.812C336.411 359.819 336.419 359.828 336.424 359.839C339.305 364.042 340.246 369.096 340.403 374.106C340.389 379.63 339.901 385.142 338.946 390.582C337.311 402.529 335.066 414.384 332.221 426.101C330.596 432.725 328.5 439.237 326.259 445.67C326.259 445.691 326.25 445.711 326.236 445.726C326.221 445.74 326.201 445.749 326.18 445.749C326.159 445.749 326.139 445.74 326.125 445.726C326.11 445.711 326.102 445.691 326.102 445.67C327.439 439.819 328.732 433.999 329.98 428.208Z" fill="black"/>
<path opacity="0.1" d="M433.733 470.518V494.055H453.818V476.235C453.818 476.235 465.026 470.574 467.268 449.985C469.285 431.335 454.401 406.442 451.576 401.925L438.788 401.51V406.094C438.788 406.094 447.205 422.974 448.225 431.638C451.263 457.741 433.733 470.518 433.733 470.518Z" fill="black"/>
<path d="M383.218 499.559C385.93 500.433 464.04 497.317 466.965 495.423C467.312 495.21 468.702 480.18 468.702 480.18L459.669 422.469L408.392 423.153L418.288 472.469C418.288 472.469 407.002 477.658 397.677 482.197C391.938 484.988 386.95 487.532 385.807 488.451C382.815 490.872 380.506 498.684 383.218 499.559Z" fill="#FFCAC4"/>
<path d="M383.207 499.559C385.931 500.433 464.04 497.317 466.954 495.423C467.313 495.21 468.714 480.191 468.714 480.191L465.923 462.404L416.73 464.645L418.288 472.401C418.288 472.401 407.002 477.602 397.677 482.13C391.949 484.921 386.95 487.465 385.807 488.384C382.815 490.884 380.506 498.684 383.207 499.559Z" fill="#EBEBEB"/>
<path d="M383.263 499.66C386.02 500.523 464.645 498.684 467.593 496.712C468.713 495.983 469.117 484.517 469.207 470.642V470.205L418.479 470.821V471.684C418.479 471.684 388.699 485.84 385.684 488.351C382.669 490.861 380.495 498.797 383.263 499.66Z" fill="#C7C7C7"/>
<path d="M384.081 496.577C397.318 495.95 450.803 494.638 463.939 495.019C464.051 495.019 464.051 495.098 463.939 495.098C450.825 496.017 397.34 496.891 384.081 496.801C383.801 496.79 383.801 496.588 384.081 496.577Z" fill="#263238"/>
<path d="M414.253 471.919C419.443 470.799 425.843 471.482 429.945 475.103C430.113 475.248 429.945 475.461 429.732 475.416C424.711 473.923 419.544 472.972 414.321 472.581C414.24 472.577 414.164 472.544 414.106 472.489C414.048 472.433 414.011 472.359 414.003 472.279C413.995 472.199 414.016 472.119 414.062 472.053C414.108 471.987 414.176 471.94 414.253 471.919Z" fill="#263238"/>
<path d="M410.544 474.284C415.733 473.164 422.133 473.836 426.235 477.456C426.392 477.602 426.235 477.826 426.022 477.77C420.997 476.276 415.827 475.325 410.6 474.934C410.557 474.938 410.514 474.933 410.473 474.92C410.432 474.907 410.394 474.887 410.362 474.859C410.329 474.831 410.302 474.798 410.282 474.76C410.262 474.722 410.25 474.68 410.247 474.637C410.243 474.595 410.248 474.552 410.261 474.511C410.273 474.47 410.294 474.432 410.322 474.399C410.349 474.367 410.383 474.34 410.421 474.32C410.459 474.3 410.501 474.288 410.544 474.284Z" fill="#263238"/>
<path d="M406.834 476.638C412.023 475.517 418.423 476.19 422.525 479.821C422.682 479.956 422.525 480.18 422.312 480.124C417.289 478.639 412.123 477.693 406.901 477.299C406.821 477.295 406.745 477.263 406.686 477.207C406.628 477.152 406.592 477.078 406.584 476.998C406.575 476.918 406.596 476.838 406.642 476.772C406.688 476.706 406.756 476.658 406.834 476.638Z" fill="#263238"/>
<path d="M413.962 465.015L471.202 462.404C471.202 462.404 451.408 382.075 453.515 379.464C455.757 376.651 531.232 397.397 547.809 376.841C564.778 355.781 547.809 320.532 547.809 320.532H489.785C489.785 320.532 489.785 326.988 493.73 336.649C493.73 336.649 427.938 324.466 410.6 333.634C407.181 335.45 394.908 345.582 394.706 355.187C393.698 397.666 413.962 465.015 413.962 465.015Z" fill="#455A64"/>
<path d="M413.413 454.648C420.205 453.796 427.019 453.269 433.845 452.765C440.671 452.26 447.485 451.846 454.322 451.577C458.167 451.431 462.022 451.465 465.878 451.319C465.905 451.319 465.93 451.33 465.949 451.349C465.968 451.367 465.979 451.393 465.979 451.42C465.979 451.447 465.968 451.472 465.949 451.491C465.93 451.51 465.905 451.521 465.878 451.521C462.448 451.767 459.03 452.193 455.6 452.462C452.17 452.731 448.875 452.978 445.445 453.202C438.631 453.661 431.805 454.031 424.979 454.457C421.124 454.693 417.28 454.816 413.424 454.906C413.396 454.899 413.371 454.883 413.352 454.86C413.334 454.838 413.323 454.81 413.322 454.781C413.321 454.752 413.329 454.723 413.345 454.699C413.362 454.675 413.385 454.657 413.413 454.648Z" fill="#263238"/>
<path d="M523.544 325.385C523.619 325.621 523.717 325.85 523.835 326.068C523.848 326.084 523.855 326.104 523.855 326.125C523.855 326.145 523.848 326.165 523.835 326.181C524.507 328.276 524.788 330.496 525.438 332.603C526.055 334.84 527.425 336.795 529.316 338.14C533.283 340.897 538.047 342.141 542.665 343.284C542.692 343.292 542.717 343.309 542.734 343.333C542.751 343.356 542.761 343.384 542.761 343.413C542.761 343.442 542.751 343.47 542.734 343.493C542.717 343.517 542.692 343.534 542.665 343.542C540.003 343.557 537.355 343.152 534.819 342.343C532.436 341.683 530.189 340.605 528.184 339.16C526.3 337.734 524.956 335.71 524.373 333.421C524.091 332.204 523.87 330.973 523.712 329.734C523.452 328.308 523.299 326.866 523.252 325.418C523.269 325.396 523.289 325.378 523.313 325.364C523.337 325.351 523.363 325.342 523.391 325.339C523.418 325.336 523.445 325.338 523.472 325.346C523.498 325.354 523.523 325.367 523.544 325.385Z" fill="#263238"/>
<path d="M484.394 333.78C487.55 334.69 490.624 335.864 493.584 337.288L493.73 337.355C493.669 337.172 493.624 336.985 493.596 336.795C493.596 336.571 493.528 336.358 493.483 336.133C493.439 335.909 493.483 335.674 493.416 335.438V335.08C493.035 335.055 492.663 334.952 492.323 334.776C491.984 334.601 491.684 334.357 491.444 334.06C490.825 333.2 490.407 332.212 490.222 331.168C489.874 329.868 489.549 328.545 489.269 327.223C488.989 325.9 488.686 324.275 488.451 322.74C488.166 321.287 487.998 319.814 487.947 318.335C487.947 318.281 487.968 318.23 488.006 318.192C488.044 318.154 488.095 318.133 488.148 318.133C488.202 318.133 488.253 318.154 488.291 318.192C488.329 318.23 488.35 318.281 488.35 318.335C488.698 319.691 488.854 321.092 489.112 322.46C489.37 323.827 489.661 325.206 489.975 326.573C490.289 327.94 490.625 329.308 491.006 330.653C491.388 331.998 491.679 333.6 493.069 334.015C495.938 334.833 494.649 328.411 494.526 327.133C494.234 324.219 494.055 321.238 493.539 318.346C493.539 318.234 493.708 318.178 493.73 318.346C494.358 321.002 495.064 323.614 495.535 326.304C495.77 327.626 495.938 328.96 496.084 330.283C496.316 331.429 496.223 332.617 495.815 333.712C495.637 334.083 495.371 334.404 495.041 334.648C494.711 334.892 494.326 335.052 493.921 335.113L494.01 335.416C494.077 335.629 494.145 335.842 494.201 336.055C494.257 336.268 494.302 336.492 494.346 336.705C494.445 336.958 494.48 337.231 494.447 337.501C494.422 337.576 494.37 337.64 494.302 337.68C495.523 338.207 496.756 338.734 497.967 339.305C499.488 339.903 500.961 340.619 502.371 341.446C502.54 341.524 502.371 341.749 502.248 341.715C500.67 341.272 499.127 340.714 497.63 340.045C496.095 339.462 494.582 338.835 493.058 338.196C490.038 337.087 487.117 335.726 484.326 334.127C484.28 334.118 484.24 334.091 484.213 334.052C484.187 334.014 484.177 333.966 484.186 333.92C484.195 333.874 484.222 333.833 484.261 333.807C484.3 333.781 484.348 333.771 484.394 333.78Z" fill="#263238"/>
<path d="M396.41 347.891C398.396 342.054 402.413 337.125 407.73 334.004C413.189 330.989 419.555 330.182 425.663 329.991C432.769 329.778 439.92 330.148 447.015 330.597C454.569 331.067 462.123 331.785 469.633 332.838C477.142 333.892 484.517 335.181 491.903 336.772C493.674 337.153 495.434 337.624 497.193 338.117C497.328 338.117 497.305 338.409 497.193 338.386C489.852 337.355 482.544 336.145 475.203 335.136C467.862 334.127 460.442 333.331 453.022 332.771C445.602 332.211 438.261 331.897 430.875 331.785C424.823 331.695 418.546 331.785 412.796 333.735C409.953 334.643 407.32 336.11 405.052 338.05C402.823 340.042 400.997 342.443 399.672 345.122C396.645 351.074 396.365 357.899 396.063 364.49C395.188 384.048 409.255 446.197 411.754 456.183C411.76 456.27 411.736 456.356 411.685 456.427C411.635 456.497 411.56 456.548 411.476 456.569C411.392 456.591 411.303 456.582 411.224 456.544C411.146 456.506 411.084 456.442 411.048 456.363C408.235 445.087 394.236 386.379 394.236 368.738C394.225 361.699 393.967 354.526 396.41 347.891Z" fill="#263238"/>
<path d="M445.109 372.694C455.365 373.053 465.564 374.006 475.763 375.081C485.963 376.157 496.241 377.323 506.507 378.04C511.618 378.388 516.74 378.612 521.862 378.646C526.121 378.845 530.384 378.369 534.494 377.233C538.668 375.885 542.176 373.006 544.312 369.175C546.555 365.16 548.011 360.756 548.605 356.196C549.95 346.927 548.605 337.456 547.024 328.31C546.823 327.189 546.632 326.068 546.43 324.869C546.43 324.757 546.576 324.712 546.599 324.869C548.739 334.093 550.656 343.587 549.961 353.114C549.706 357.77 548.648 362.346 546.834 366.642C545.252 370.707 542.438 374.175 538.787 376.561C535.026 378.573 530.835 379.646 526.57 379.688C521.634 379.873 516.691 379.794 511.764 379.453C501.251 378.903 490.782 377.738 480.325 376.572C469.868 375.407 459.478 374.263 449.01 373.703C447.889 373.647 446.69 373.591 445.535 373.557C447.116 383.588 460.565 443.686 461.316 448.438C461.395 448.909 460.969 449.055 460.857 448.584C458.615 439.214 445.502 379.094 444.639 373.21C444.624 373.143 444.625 373.073 444.642 373.007C444.66 372.941 444.693 372.88 444.74 372.829C444.786 372.779 444.844 372.74 444.908 372.716C444.972 372.693 445.041 372.685 445.109 372.694Z" fill="#263238"/>
<path d="M551.138 327.694C550.981 327.918 474.306 333.813 473.499 333.096C472.379 332.076 479.966 253.518 486.815 241.997C488.283 239.542 493.898 238.253 498.819 238.298C500.1 238.292 501.379 238.4 502.64 238.623H502.764C503.782 238.796 504.764 239.141 505.667 239.643C520.394 248.833 536.108 285.125 540.064 296.109C546.621 314.222 551.709 326.887 551.138 327.694Z" fill="#FF5A36"/>
<path d="M490.345 252.017C494.156 252.017 500.589 245.863 501.867 240.091C501.957 239.688 500.376 236.247 498.673 231.965C497.642 229.354 496.554 226.44 495.759 223.705C495.602 223.133 479.809 232.862 479.809 232.862C481.782 236.001 483.363 239.37 484.517 242.893C484.621 243.26 484.692 243.635 484.73 244.014C484.725 244.077 484.725 244.141 484.73 244.205C485.032 246.48 486.277 252.073 490.345 252.017Z" fill="#FFCAC4"/>
<path d="M484.73 244.048C484.725 244.111 484.725 244.175 484.73 244.238C485.335 244.15 485.931 244.011 486.512 243.823C496.599 240.663 495.546 227.235 495.12 223.884C492.195 225.207 479.776 232.851 479.776 232.851C481.747 235.992 483.331 239.36 484.495 242.882C484.603 243.264 484.682 243.654 484.73 244.048Z" fill="#263238"/>
<path d="M494.358 202.701C497.126 208.731 496.274 227.359 492.363 231.977C486.68 238.701 476.144 240.73 470.103 233.624C464.253 226.731 465.788 202.51 470.271 198.151C476.895 191.739 490.255 193.813 494.358 202.701Z" fill="#FFCAC4"/>
<path d="M478.128 215.971C478.128 215.971 478.218 216.039 478.218 216.095C478.128 217.339 478.218 218.796 479.339 219.255C479.339 219.255 479.339 219.334 479.339 219.323C477.96 219.076 477.848 217.148 478.128 215.971Z" fill="#263238"/>
<path d="M479.305 214.716C481.323 214.638 481.311 218.695 479.44 218.762C477.568 218.829 477.602 214.772 479.305 214.716Z" fill="#263238"/>
<path d="M470.865 216.173C470.865 216.173 470.765 216.229 470.776 216.285C470.776 217.529 470.641 218.975 469.509 219.39C469.509 219.39 469.509 219.468 469.509 219.457C470.899 219.267 471.123 217.35 470.865 216.173Z" fill="#263238"/>
<path d="M469.745 214.862C467.738 214.705 467.57 218.751 469.442 218.885C471.314 219.02 471.437 214.974 469.745 214.862Z" fill="#263238"/>
<path d="M480.897 212.867C480.368 212.708 479.848 212.521 479.339 212.306C478.759 212.195 478.234 211.891 477.848 211.443C477.753 211.279 477.714 211.088 477.738 210.899C477.763 210.711 477.849 210.536 477.983 210.401C478.288 210.178 478.647 210.04 479.024 210.002C479.4 209.965 479.78 210.029 480.123 210.188C480.871 210.398 481.511 210.882 481.917 211.544C481.998 211.7 482.034 211.876 482.018 212.051C482.003 212.226 481.938 212.393 481.831 212.532C481.723 212.672 481.578 212.777 481.413 212.836C481.247 212.896 481.068 212.906 480.897 212.867Z" fill="#263238"/>
<path d="M468.187 212.811C468.733 212.706 469.272 212.567 469.801 212.396C470.388 212.337 470.937 212.08 471.359 211.668C471.472 211.518 471.534 211.335 471.534 211.146C471.534 210.958 471.472 210.775 471.359 210.625C471.074 210.374 470.727 210.205 470.355 210.134C469.982 210.063 469.597 210.093 469.24 210.222C468.479 210.365 467.799 210.789 467.335 211.41C467.241 211.553 467.189 211.721 467.186 211.892C467.183 212.064 467.229 212.233 467.318 212.379C467.407 212.526 467.536 212.644 467.69 212.721C467.844 212.797 468.016 212.828 468.187 212.811Z" fill="#263238"/>
<path d="M479.272 227.617C478.969 227.908 478.666 228.311 478.151 228.356C477.685 228.342 477.227 228.232 476.806 228.031C476.806 228.031 476.727 228.031 476.75 228.099C476.929 228.345 477.171 228.539 477.451 228.659C477.732 228.78 478.039 228.822 478.341 228.782C478.599 228.716 478.832 228.574 479.008 228.374C479.184 228.174 479.295 227.926 479.328 227.661C479.406 227.605 479.316 227.572 479.272 227.617Z" fill="#263238"/>
<path d="M477.96 223.862C477.641 224.358 477.222 224.782 476.73 225.108C476.238 225.434 475.684 225.655 475.102 225.756C474.596 225.852 474.079 225.874 473.567 225.823C473.47 225.835 473.372 225.835 473.275 225.823H472.995C472.929 225.809 472.87 225.774 472.826 225.724C472.781 225.673 472.754 225.61 472.748 225.543C472.743 225.502 472.743 225.461 472.748 225.42V225.308C472.748 224.344 472.827 222.876 472.827 222.876C472.468 223.055 470.664 223.862 470.697 223.358C470.816 219.004 471.379 214.674 472.379 210.435C472.379 210.405 472.39 210.376 472.411 210.355C472.432 210.334 472.461 210.323 472.491 210.323C472.52 210.323 472.549 210.334 472.57 210.355C472.591 210.376 472.603 210.405 472.603 210.435C472.513 214.458 471.729 218.437 471.572 222.472C472.213 222.178 472.892 221.974 473.589 221.867C473.724 221.867 473.354 224.703 473.399 225.14C474.189 225.218 474.986 225.137 475.745 224.902C476.503 224.667 477.207 224.283 477.815 223.772C477.927 223.683 478.027 223.761 477.96 223.862Z" fill="#263238"/>
<path d="M474.138 225.33C474.665 226.025 475.364 226.57 476.167 226.911C476.606 227.081 477.088 227.112 477.545 227C478.543 226.742 478.577 225.879 478.397 225.028C478.29 224.613 478.14 224.211 477.949 223.828C476.872 224.724 475.536 225.25 474.138 225.33Z" fill="#263238"/>
<path d="M476.167 226.911C476.606 227.081 477.088 227.112 477.545 227C478.543 226.742 478.577 225.879 478.397 225.028C477.868 225.045 477.36 225.24 476.955 225.582C476.55 225.923 476.273 226.391 476.167 226.911Z" fill="#FF9BBC"/>
<path d="M467.593 204.304C468.276 202.712 469.072 201.109 470.036 200.784C471 200.459 471.616 202.813 473.802 202.959C476.738 203.161 478.162 200.459 482.275 200.168C488.193 199.764 490.793 204.651 490.928 213.08C491.051 220.567 495.579 221.273 495.579 221.273C495.579 221.273 498.325 204.763 493.674 199.294C489.023 193.824 478.341 191.448 471.168 196.626C468.557 198.52 467.593 204.304 467.593 204.304Z" fill="#263238"/>
<path d="M491.802 218.336C491.802 218.336 495.243 211.981 498.079 213.136C500.914 214.29 498.807 223.223 495.837 224.714C495.465 224.937 495.051 225.083 494.621 225.143C494.191 225.202 493.754 225.174 493.335 225.06C492.916 224.946 492.524 224.748 492.184 224.479C491.844 224.209 491.561 223.873 491.354 223.492L491.802 218.336Z" fill="#FFCAC4"/>
<path d="M497.406 215.658V215.736C495.31 216.857 494.391 219.098 493.82 221.262C493.922 221.027 494.074 220.817 494.265 220.646C494.457 220.476 494.683 220.349 494.928 220.275C495.173 220.2 495.431 220.18 495.685 220.214C495.939 220.249 496.182 220.339 496.398 220.477C496.465 220.477 496.398 220.612 496.398 220.6C495.997 220.523 495.582 220.571 495.209 220.738C494.836 220.904 494.523 221.181 494.313 221.531C493.973 222.125 493.695 222.752 493.483 223.402C493.405 223.604 493.035 223.548 493.091 223.313V223.257C492.71 220.455 494.436 216.285 497.406 215.658Z" fill="#263238"/>
<path d="M468.299 199.383C470.036 198.969 479.664 199.26 483.99 201.121C488.317 202.981 496.005 209.202 496.398 209.527C496.79 209.852 498.774 193.981 485.896 191.089C471.874 187.929 468.299 199.383 468.299 199.383Z" fill="#FF5A36"/>
<path d="M495.658 208.877C495.658 208.877 487.151 197.669 482.421 195.091C477.691 192.513 467.1 191.078 460.543 193.97C455.443 196.211 467.907 202.779 467.907 202.779C468.025 202.242 468.266 201.739 468.613 201.311C468.959 200.883 469.4 200.541 469.902 200.314C473.085 199.047 479.137 200.022 482.589 201.177C486.938 202.645 495.658 208.877 495.658 208.877Z" fill="#FF5A36"/>
<path opacity="0.2" d="M495.658 208.933C495.658 208.933 487.151 197.657 482.421 195.091C477.691 192.524 467.1 191.078 460.543 193.97C455.443 196.212 467.907 202.779 467.907 202.779C468.025 202.242 468.266 201.739 468.613 201.311C468.959 200.883 469.4 200.541 469.902 200.314C473.085 199.047 479.137 200.022 482.589 201.177C486.938 202.645 495.658 208.933 495.658 208.933Z" fill="black"/>
<path d="M510.52 260.602C511.237 282.704 503.077 324.096 497.07 326.909C477.68 335.965 445.053 336.537 433.879 336.638C429.059 336.638 421.662 302.363 426.437 300.436C429.608 299.158 477.445 299.147 478.285 297.443C479.126 295.739 490.524 271.126 495.445 257.497C501.979 239.374 510.105 247.623 510.52 260.602Z" fill="#FFCAC4"/>
<path d="M431.57 299.976C431.57 299.976 416.921 300.873 407.383 301.904C402.048 302.475 393.003 304.28 389.293 306.488C383.689 309.85 362.573 327.201 366.675 332.423C370.396 337.142 386.67 319.893 386.67 319.893C386.67 319.893 368.737 335.842 374.229 340.717C379.721 345.593 395.525 323.636 395.525 323.636C395.525 323.636 377.435 340.449 383.924 344.573C388.822 347.678 404.256 328.613 404.256 328.613C404.256 328.613 388.8 343.183 393.709 346.546C399.134 350.323 414.478 333.612 414.478 333.612C428.409 340.202 437.734 337.635 444.157 335.024C445.737 334.441 431.57 299.976 431.57 299.976Z" fill="#FFCAC4"/>
<path d="M392.532 313.975C390.358 315.768 388.139 317.573 386.132 319.579C384.126 321.585 382.176 323.625 380.36 325.788C377.93 328.571 375.825 331.62 374.084 334.878C377.592 329.274 384.675 322.101 386.693 320.117C388.71 318.133 390.604 316.048 392.611 314.065C392.667 313.997 392.588 313.93 392.532 313.975Z" fill="#263238"/>
<path d="M399.829 321.103C397.15 323.513 394.404 325.822 391.826 328.355C389.248 330.888 387.051 333.5 384.664 336.201C384.485 336.402 384.664 336.436 384.855 336.201C387.343 333.612 389.842 331.404 392.353 328.837C394.863 326.27 397.296 323.603 399.896 321.137C399.941 321.126 399.873 321.07 399.829 321.103Z" fill="#263238"/>
<path d="M407.237 326.091C403.033 329.696 399.214 333.726 395.838 338.117C395.67 338.33 395.895 338.353 396.085 338.117C399.795 334.049 402.675 330.832 407.36 326.225C407.394 326.169 407.237 326.024 407.237 326.091Z" fill="#263238"/>
<path d="M391.142 304.717C394.625 303.229 398.32 302.303 402.093 301.971C410.23 300.974 418.412 300.324 426.593 299.73C434.775 299.135 443.081 298.609 451.33 298.306C455.97 298.127 460.61 297.989 465.25 297.891C469.89 297.802 470.854 297.97 475.517 298.026C475.64 298.026 475.629 298.194 475.517 298.205C467.391 298.631 462.908 298.967 454.782 299.393C446.656 299.819 438.552 300.301 430.449 300.862C422.346 301.422 414.377 301.982 406.374 302.879C402.503 303.142 398.665 303.761 394.908 304.728C391.228 306.08 387.813 308.068 384.821 310.601C381.391 313.303 368.536 325.665 367.359 327.268C367.213 327.458 367.157 327.402 367.235 327.156C368.166 323.805 383.622 308.225 391.142 304.717Z" fill="#263238"/>
<path d="M487.375 274.87L511.215 288.387C511.215 288.387 512.223 258.26 510.015 249.315C507.527 239.228 502.932 242.725 497.754 251.109C492.576 259.492 487.375 274.87 487.375 274.87Z" fill="#FF5A36"/>
<path opacity="0.1" d="M487.375 274.87L511.215 288.387C511.215 288.387 512.223 258.26 510.015 249.315C507.527 239.228 502.932 242.725 497.754 251.109C492.576 259.492 487.375 274.87 487.375 274.87Z" fill="black"/>
<path d="M490.659 271.014C493.921 272.326 503.178 277.638 504.714 278.501C505.521 278.95 508.682 280.911 509.489 281.359C509.589 281.415 509.489 281.561 509.388 281.505C507.83 280.653 506.193 279.958 504.624 279.118C503.055 278.277 493.416 273.211 490.592 271.126C490.581 271.116 490.574 271.102 490.572 271.087C490.57 271.072 490.574 271.057 490.581 271.044C490.589 271.031 490.601 271.021 490.615 271.016C490.629 271.01 490.645 271.01 490.659 271.014Z" fill="#263238"/>
<path d="M491.13 263.718C491.5 262.317 491.881 260.927 492.307 259.537C492.071 260.568 491.802 261.6 491.533 262.631C492.396 260.68 493.282 258.753 494.246 256.881H494.302C493.259 259.918 492.06 262.9 490.939 265.915C489.818 268.93 488.698 271.81 487.577 274.758C488.081 275.15 488.574 275.531 489.09 275.879C489.111 275.892 489.125 275.913 489.131 275.937C489.136 275.961 489.131 275.987 489.118 276.008C489.104 276.028 489.083 276.043 489.059 276.048C489.035 276.053 489.01 276.049 488.989 276.036C488.373 275.722 487.756 275.408 487.117 275.128C487.043 275.1 486.983 275.045 486.947 274.974C486.912 274.904 486.905 274.822 486.927 274.747C488.182 271.082 489.572 267.36 491.13 263.718Z" fill="#263238"/>
</svg>
