<svg width="756" height="547" viewBox="0 0 756 547" fill="none" xmlns="http://www.w3.org/2000/svg">
<path d="M208.382 90.4412C208.323 78.5764 211.578 66.9309 217.78 56.8163C223.983 46.7018 232.887 38.5201 243.489 33.1928L243.813 85.4714L272.262 95.4117L300.431 85.1285L300.125 32.8312C310.351 37.8158 319.058 45.4442 325.343 54.9259C331.629 64.4076 335.265 75.3977 335.874 86.7574C336.483 98.1171 334.044 109.433 328.808 119.533C323.573 129.632 315.732 138.148 306.098 144.198C296.464 150.248 285.387 153.611 274.016 153.939C262.645 154.268 251.392 151.55 241.425 146.067C231.458 140.583 223.138 132.534 217.328 122.754C211.518 112.973 208.429 101.817 208.382 90.4412Z" fill="#5E5655"/>
<path d="M337.693 456.312C337.748 468.176 334.493 479.821 328.295 489.937C322.096 500.053 313.2 508.24 302.604 513.578L302.28 461.3L273.831 451.359L245.478 461.576L245.784 513.874C235.581 508.864 226.902 501.218 220.645 491.729C214.387 482.239 210.779 471.25 210.194 459.898C209.608 448.547 212.066 437.245 217.314 427.161C222.561 417.078 230.408 408.581 240.041 402.547C249.675 396.514 260.745 393.164 272.108 392.845C283.47 392.525 294.711 395.247 304.669 400.73C314.626 406.212 322.938 414.255 328.744 424.027C334.55 433.8 337.639 444.946 337.693 456.312Z" fill="#5E5655"/>
<path d="M245.323 421.325L302.132 421.051L300.633 110.847L243.823 111.121L245.323 421.325Z" fill="#5E5655"/>
<path d="M261.575 329.994L284.961 329.881L284.343 202.143L260.957 202.256L261.575 329.994Z" fill="#504A49"/>
<path d="M703.414 503.523C703.414 506.099 621.915 508.18 521.496 508.18C421.077 508.18 339.578 506.099 339.578 503.523C339.578 500.947 421.077 498.88 521.496 498.88C621.915 498.88 703.414 500.961 703.414 503.523Z" fill="#2E353A"/>
<path d="M559.481 71.9105H388.55C383.229 71.9105 378.916 76.224 378.916 81.5449V148.36C378.916 153.681 383.229 157.994 388.55 157.994H559.481C564.801 157.994 569.115 153.681 569.115 148.36V81.5449C569.115 76.224 564.801 71.9105 559.481 71.9105Z" fill="#FA7254"/>
<path d="M378.916 142.859V173.93L396.249 153.977" fill="#FA7254"/>
<path d="M559.495 71.9105H388.507C387.242 71.9105 385.99 72.1598 384.822 72.6442C383.654 73.1285 382.593 73.8384 381.699 74.7333C380.806 75.6281 380.097 76.6903 379.615 77.8591C379.132 79.0279 378.885 80.2804 378.887 81.5449V173.93L392.742 157.994H559.495C560.76 157.994 562.012 157.745 563.18 157.261C564.348 156.776 565.409 156.066 566.303 155.172C567.196 154.277 567.904 153.214 568.387 152.046C568.869 150.877 569.117 149.624 569.115 148.36V81.5449C569.117 80.2804 568.869 79.0279 568.387 77.8591C567.904 76.6903 567.196 75.6281 566.303 74.7333C565.409 73.8384 564.348 73.1285 563.18 72.6442C562.012 72.1598 560.76 71.9105 559.495 71.9105Z" fill="#FA7254"/>
<path opacity="0.1" d="M559.495 71.9105H388.507C387.242 71.9105 385.99 72.1598 384.822 72.6442C383.654 73.1285 382.593 73.8384 381.699 74.7333C380.806 75.6281 380.097 76.6903 379.615 77.8591C379.132 79.0279 378.885 80.2804 378.887 81.5449V173.93L392.742 157.994H559.495C560.76 157.994 562.012 157.745 563.18 157.261C564.348 156.776 565.409 156.066 566.303 155.172C567.196 154.277 567.904 153.214 568.387 152.046C568.869 150.877 569.117 149.624 569.115 148.36V81.5449C569.117 80.2804 568.869 79.0279 568.387 77.8591C567.904 76.6903 567.196 75.6281 566.303 74.7333C565.409 73.8384 564.348 73.1285 563.18 72.6442C562.012 72.1598 560.76 71.9105 559.495 71.9105Z" fill="#FA7254"/>
<path d="M525.309 119.137H402.492C401.581 119.137 400.708 118.775 400.064 118.131C399.42 117.486 399.058 116.613 399.058 115.702C399.062 114.794 399.425 113.924 400.069 113.283C400.713 112.642 401.584 112.282 402.492 112.282H525.309C526.217 112.282 527.089 112.642 527.733 113.283C528.376 113.924 528.74 114.794 528.744 115.702C528.744 116.153 528.655 116.6 528.482 117.016C528.31 117.433 528.057 117.812 527.738 118.131C527.419 118.449 527.04 118.702 526.623 118.875C526.207 119.048 525.76 119.137 525.309 119.137Z" fill="white"/>
<path d="M525.309 134.913H402.492C402.041 134.913 401.595 134.824 401.178 134.651C400.761 134.478 400.383 134.225 400.064 133.907C399.745 133.588 399.492 133.209 399.319 132.792C399.147 132.376 399.058 131.929 399.058 131.478C399.062 130.57 399.425 129.7 400.069 129.059C400.713 128.418 401.584 128.058 402.492 128.058H525.309C526.217 128.058 527.089 128.418 527.733 129.059C528.376 129.7 528.74 130.57 528.744 131.478C528.744 131.929 528.655 132.376 528.482 132.792C528.31 133.209 528.057 133.588 527.738 133.907C527.419 134.225 527.04 134.478 526.623 134.651C526.207 134.824 525.76 134.913 525.309 134.913Z" fill="white"/>
<path d="M409.347 103.361C416.163 103.361 421.688 97.8351 421.688 91.0192C421.688 84.2033 416.163 78.6779 409.347 78.6779C402.531 78.6779 397.006 84.2033 397.006 91.0192C397.006 97.8351 402.531 103.361 409.347 103.361Z" fill="white"/>
<path d="M559.481 188.411H388.55C383.229 188.411 378.916 192.724 378.916 198.045V264.86C378.916 270.181 383.229 274.495 388.55 274.495H559.481C564.801 274.495 569.115 270.181 569.115 264.86V198.045C569.115 192.724 564.801 188.411 559.481 188.411Z" fill="#FA7254"/>
<path d="M378.916 259.344V290.431L396.249 270.463" fill="#FA7254"/>
<path d="M559.495 188.411H388.507C385.955 188.411 383.508 189.424 381.704 191.228C379.9 193.033 378.887 195.479 378.887 198.031V290.431L392.742 274.422H559.495C562.046 274.422 564.493 273.408 566.297 271.604C568.101 269.8 569.115 267.353 569.115 264.802V198.031C569.115 195.479 568.101 193.033 566.297 191.228C564.493 189.424 562.046 188.411 559.495 188.411Z" fill="#FA7254"/>
<path opacity="0.1" d="M559.495 188.411H388.507C385.955 188.411 383.508 189.424 381.704 191.228C379.9 193.033 378.887 195.479 378.887 198.031V290.431L392.742 274.422H559.495C562.046 274.422 564.493 273.408 566.297 271.604C568.101 269.8 569.115 267.353 569.115 264.802V198.031C569.115 195.479 568.101 193.033 566.297 191.228C564.493 189.424 562.046 188.411 559.495 188.411Z" fill="#FA7254"/>
<path d="M525.309 235.622H402.492C401.584 235.622 400.713 235.263 400.069 234.622C399.425 233.981 399.062 233.111 399.058 232.202C399.058 231.291 399.42 230.418 400.064 229.774C400.708 229.13 401.581 228.768 402.492 228.768H525.309C525.76 228.768 526.207 228.857 526.623 229.029C527.04 229.202 527.419 229.455 527.738 229.774C528.057 230.093 528.31 230.471 528.482 230.888C528.655 231.305 528.744 231.751 528.744 232.202C528.74 233.111 528.376 233.981 527.733 234.622C527.089 235.263 526.217 235.622 525.309 235.622Z" fill="white"/>
<path d="M525.309 251.398H402.492C401.584 251.398 400.713 251.039 400.069 250.398C399.425 249.757 399.062 248.887 399.058 247.978C399.058 247.067 399.42 246.194 400.064 245.55C400.708 244.906 401.581 244.544 402.492 244.544H525.309C525.76 244.544 526.207 244.633 526.623 244.805C527.04 244.978 527.419 245.231 527.738 245.55C528.057 245.869 528.31 246.247 528.482 246.664C528.655 247.081 528.744 247.527 528.744 247.978C528.74 248.887 528.376 249.757 527.733 250.398C527.089 251.039 526.217 251.398 525.309 251.398Z" fill="white"/>
<path d="M409.347 219.846C416.163 219.846 421.688 214.321 421.688 207.505C421.688 200.689 416.163 195.164 409.347 195.164C402.531 195.164 397.006 200.689 397.006 207.505C397.006 214.321 402.531 219.846 409.347 219.846Z" fill="white"/>
<path d="M418.05 504.323C492.053 504.323 552.044 444.332 552.044 370.329C552.044 296.326 492.053 236.335 418.05 236.335C344.047 236.335 284.056 296.326 284.056 370.329C284.056 444.332 344.047 504.323 418.05 504.323Z" fill="#FA7254"/>
<path d="M418.05 504.992C391.416 504.992 365.38 497.094 343.235 482.297C321.09 467.5 303.83 446.469 293.638 421.862C283.445 397.256 280.778 370.18 285.974 344.058C291.17 317.936 303.996 293.941 322.829 275.108C341.662 256.275 365.656 243.449 391.779 238.253C417.901 233.057 444.977 235.724 469.583 245.917C494.19 256.109 515.221 273.369 530.018 295.514C544.815 317.66 552.713 343.695 552.713 370.329C552.671 406.031 538.47 440.258 513.224 465.504C487.979 490.749 453.752 504.95 418.05 504.992ZM418.05 236.99C391.678 236.99 365.898 244.811 343.971 259.462C322.044 274.113 304.953 294.938 294.861 319.303C284.769 343.667 282.128 370.477 287.273 396.342C292.418 422.207 305.118 445.966 323.765 464.614C342.413 483.262 366.172 495.961 392.037 501.106C417.902 506.251 444.712 503.61 469.077 493.518C493.441 483.426 514.266 466.336 528.917 444.408C543.569 422.481 551.389 396.701 551.389 370.329C551.354 334.976 537.295 301.081 512.296 276.083C487.298 251.084 453.403 237.025 418.05 236.99Z" fill="#2E353A"/>
<path d="M600.274 257.642C600.274 257.642 595.908 265.763 595.267 266.898C594.627 268.033 592.284 274.174 592.983 275.63C593.681 277.085 594.351 277.915 595.733 278.148C597.116 278.38 598.251 280.898 600.536 281.349C601.974 281.634 603.436 281.79 604.902 281.815C605.261 282.079 605.676 282.257 606.115 282.335C606.555 282.414 607.006 282.39 607.434 282.266C608.802 281.815 609.952 281.131 610.869 277.231C611.429 275.299 611.582 273.272 611.32 271.278L610.912 263.405L600.274 257.642Z" fill="white"/>
<path d="M606.619 283.11C605.928 283.101 605.252 282.899 604.669 282.528C603.232 282.489 601.8 282.329 600.39 282.048C599.083 281.692 597.912 280.951 597.028 279.923C596.636 279.454 596.137 279.085 595.573 278.846C594.825 278.679 594.132 278.324 593.559 277.815C592.986 277.306 592.552 276.659 592.299 275.935C591.353 274.058 594.103 267.378 594.613 266.534C595.282 265.413 599.561 257.38 599.604 257.292C599.7 257.125 599.856 257 600.041 256.943C600.218 256.872 600.417 256.872 600.594 256.943L611.218 262.692C611.327 262.754 611.418 262.843 611.484 262.95C611.551 263.056 611.589 263.178 611.596 263.303L612.004 271.162C612.27 273.225 612.107 275.321 611.524 277.318C610.621 281.204 609.443 282.281 607.609 282.892C607.292 283.016 606.958 283.09 606.619 283.11ZM600.58 258.631C599.532 260.582 596.475 266.301 595.893 267.276C595.093 268.601 593.172 274.378 593.623 275.281C594.351 276.736 594.904 277.26 595.85 277.42C596.711 277.675 597.476 278.182 598.047 278.875C598.734 279.704 599.651 280.311 600.681 280.622C602.068 280.89 603.475 281.041 604.887 281.073C605.056 281.073 605.22 281.129 605.353 281.233C605.614 281.422 605.914 281.551 606.232 281.609C606.549 281.667 606.876 281.653 607.187 281.568C608.191 281.233 609.239 280.884 610.097 277.056C610.626 275.223 610.779 273.303 610.549 271.409L610.156 263.842L600.58 258.631Z" fill="#2E353A"/>
<path d="M625.51 476.307C625.51 476.307 619.295 486.422 619.295 488.867C619.295 491.312 627.853 495.809 631.52 497.439C635.188 499.069 641.708 500.35 647.005 501.106C652.302 501.863 663.305 504.017 660.103 499.884C656.901 495.751 637.225 484.865 636.41 483.57C635.401 482.36 634.269 481.258 633.034 480.28L625.51 476.307Z" fill="white"/>
<path d="M657.454 503.057C654.349 502.931 651.256 502.585 648.198 502.023L646.889 501.819C639.495 500.684 634.227 499.433 631.229 498.094C630.705 497.861 618.568 492.432 618.568 488.867C618.568 486.291 624.243 476.977 624.884 475.914C624.983 475.759 625.136 475.647 625.314 475.598C625.491 475.55 625.68 475.569 625.844 475.652L633.368 479.64C634.719 480.673 635.945 481.86 637.021 483.176C637.371 483.584 640.572 485.592 643.672 487.543C650.28 491.661 658.488 496.799 660.612 499.447C661.384 500.408 661.573 501.237 661.166 501.921C660.758 502.605 659.477 503.057 657.454 503.057ZM625.728 477.268C623.37 481.168 619.979 487.324 619.979 488.911C619.979 490.497 626.208 494.339 631.768 496.813C634.678 498.094 639.801 499.302 647.078 500.422L648.373 500.626C651.051 501.048 659.201 502.343 659.87 501.208C659.87 501.208 659.87 500.917 659.434 500.379C657.469 497.919 649.028 492.636 642.857 488.736C637.895 485.636 636.119 484.501 635.755 483.962C634.79 482.81 633.707 481.762 632.524 480.833L625.728 477.268Z" fill="#2E353A"/>
<path d="M635.246 492.243L637.429 495.503C639.777 499.065 642.966 501.995 646.714 504.032C652.535 507.175 661.5 510.77 669.33 508.616C682.166 505.08 649.857 485.593 649.857 485.593C649.857 485.593 638.346 493.597 635.246 492.243Z" fill="white"/>
<path d="M664.236 509.999C657.775 509.999 651.138 507.292 646.365 504.672C642.517 502.584 639.24 499.586 636.818 495.94L634.635 492.665C634.544 492.541 634.494 492.391 634.494 492.236C634.494 492.082 634.544 491.931 634.635 491.807C634.737 491.685 634.876 491.6 635.03 491.563C635.185 491.527 635.347 491.541 635.493 491.603C637.371 492.418 644.749 488.241 649.392 485.025C649.508 484.946 649.645 484.904 649.785 484.904C649.925 484.904 650.062 484.946 650.178 485.025C652.608 486.48 673.914 499.578 672.998 506.215C672.794 507.67 671.542 508.776 669.476 509.358C667.766 509.806 666.004 510.021 664.236 509.999ZM636.672 493.058L638.026 495.11C640.314 498.564 643.411 501.407 647.049 503.391C652.986 506.593 661.602 509.984 669.141 507.918C671.411 507.277 671.557 506.288 671.6 505.967C672.255 501.208 656.508 490.512 649.872 486.466C647.558 488.008 640.601 492.593 636.672 493.058Z" fill="#2E353A"/>
<path d="M638.942 493.786C642.479 499.135 647.836 503.019 654.02 504.716C664.571 507.728 667.598 506.972 669.854 503.959" fill="white"/>
<path d="M664.091 507.365C660.6 507.167 657.15 506.511 653.831 505.414C647.452 503.692 641.93 499.682 638.317 494.15C638.267 494.068 638.235 493.977 638.222 493.883C638.208 493.788 638.214 493.692 638.238 493.6C638.263 493.507 638.305 493.421 638.364 493.346C638.422 493.27 638.495 493.207 638.579 493.16C638.747 493.064 638.946 493.038 639.134 493.087C639.322 493.136 639.483 493.256 639.583 493.422C643.042 498.588 648.235 502.346 654.223 504.017C664.513 506.928 667.322 506.2 669.272 503.522C669.39 503.371 669.562 503.272 669.752 503.244C669.942 503.217 670.135 503.265 670.291 503.377C670.445 503.493 670.547 503.665 670.574 503.856C670.602 504.047 670.552 504.241 670.436 504.396C669.723 505.395 668.765 506.193 667.653 506.713C666.542 507.233 665.314 507.457 664.091 507.365Z" fill="#2E353A"/>
<path d="M620.096 487.004C620.096 487.004 631.738 495.343 637.429 495.503L620.096 487.004Z" fill="white"/>
<path d="M637.371 496.231C631.549 496.071 620.125 487.936 619.644 487.601C619.491 487.485 619.388 487.314 619.359 487.124C619.329 486.934 619.374 486.74 619.484 486.582C619.538 486.504 619.607 486.437 619.687 486.386C619.767 486.335 619.856 486.3 619.95 486.284C620.043 486.267 620.139 486.27 620.232 486.291C620.324 486.313 620.412 486.352 620.489 486.408C620.605 486.495 632.029 494.63 637.414 494.776C637.609 494.783 637.792 494.867 637.926 495.008C638.059 495.15 638.131 495.338 638.127 495.533C638.124 495.628 638.101 495.722 638.061 495.809C638.021 495.896 637.964 495.974 637.894 496.039C637.824 496.104 637.741 496.154 637.651 496.187C637.562 496.22 637.466 496.235 637.371 496.231Z" fill="#2E353A"/>
<path d="M594.816 260.436C594.816 260.436 605.149 277.565 607.361 281.539C609.574 285.512 637.458 317.398 648.519 344.846C659.579 372.294 670.218 397.064 669.767 405.039C669.315 413.014 633.005 480.281 633.005 480.281L625.48 476.307C625.48 476.307 636.978 413 635.668 406.364C634.358 399.727 593.71 333.771 593.71 333.771C593.71 333.771 574.674 320.498 566.714 304.999" fill="#2E353A"/>
<path d="M596.286 303.238C596.286 303.238 590.538 315.623 590.538 317.398C590.538 319.174 622.846 414.339 632.146 436.023C638.032 449.914 643.201 464.098 647.631 478.52C647.631 478.52 651.182 482.886 648.519 487.368C645.855 491.851 635.246 494.892 633.034 490.905C630.822 486.917 609.122 466.164 599.837 445.323C590.552 424.483 577.265 389.103 569.726 375.83C559.795 358.836 550.93 341.241 543.181 323.147C533.43 300.138 523.402 275.193 523.402 275.193C536.545 276.291 549.775 274.808 562.348 270.827C582.722 264.191 591.454 251.486 591.454 251.486C591.454 251.486 596.636 264.729 597.96 267.291" fill="#2E353A"/>
<path d="M599.328 340.611C599.227 340.609 599.129 340.578 599.047 340.521C598.964 340.464 598.9 340.384 598.862 340.291L588.675 313.803C588.64 313.705 588.635 313.599 588.661 313.497C588.687 313.396 588.742 313.305 588.82 313.236L600.23 303.456C600.327 303.366 600.454 303.316 600.587 303.316C600.719 303.316 600.846 303.366 600.943 303.456C601.032 303.55 601.082 303.675 601.082 303.805C601.082 303.935 601.032 304.06 600.943 304.154L589.795 313.716L599.852 339.912C599.9 340.036 599.898 340.174 599.847 340.296C599.795 340.418 599.698 340.516 599.575 340.567L599.328 340.611Z" fill="white"/>
<path d="M589.126 314.109C589.002 314.11 588.882 314.063 588.791 313.978C588.741 313.932 588.701 313.876 588.673 313.813C588.645 313.75 588.631 313.683 588.631 313.614C588.631 313.541 588.631 305.552 585.051 300.516C584.163 299.221 583.45 298.202 582.853 297.373C580.991 294.724 580.423 293.923 580.088 292.599C579.857 291.05 579.857 289.476 580.088 287.927C580.113 287.799 580.185 287.684 580.29 287.606C580.395 287.528 580.526 287.492 580.656 287.505C580.721 287.514 580.784 287.536 580.841 287.57C580.897 287.603 580.947 287.648 580.986 287.7C581.026 287.753 581.054 287.813 581.07 287.877C581.085 287.941 581.088 288.008 581.078 288.073C580.872 289.497 580.872 290.943 581.078 292.366C581.369 293.501 581.864 294.2 583.697 296.805C584.28 297.635 585.007 298.653 585.895 299.949C589.126 304.591 589.577 311.257 589.65 313.163L610.33 312.363C610.462 312.362 610.589 312.411 610.686 312.5C610.783 312.589 610.843 312.712 610.854 312.843C610.858 312.908 610.849 312.974 610.826 313.036C610.804 313.097 610.769 313.154 610.724 313.202C610.679 313.249 610.625 313.287 610.565 313.313C610.504 313.339 610.44 313.352 610.374 313.352L589.184 314.167L589.126 314.109Z" fill="white"/>
<path d="M658.429 408.328C649.217 408.328 637.516 402.361 636.992 402.099C636.876 402.038 636.79 401.932 636.752 401.807C636.714 401.681 636.727 401.546 636.788 401.43C636.818 401.371 636.858 401.319 636.908 401.276C636.958 401.234 637.015 401.201 637.078 401.181C637.14 401.161 637.206 401.153 637.271 401.158C637.336 401.163 637.4 401.182 637.458 401.212C637.589 401.284 650.891 408.066 660.001 407.266C660.067 407.26 660.134 407.267 660.197 407.288C660.261 407.308 660.319 407.341 660.369 407.384C660.42 407.428 660.461 407.481 660.49 407.541C660.519 407.6 660.536 407.665 660.54 407.732C660.546 407.797 660.539 407.862 660.519 407.924C660.5 407.987 660.468 408.045 660.426 408.095C660.384 408.145 660.333 408.186 660.275 408.216C660.217 408.246 660.154 408.265 660.089 408.27C659.55 408.314 658.997 408.328 658.429 408.328Z" fill="white"/>
<path d="M657.192 416.012H657.076C648.912 413.96 639.743 406.451 639.35 406.131C639.261 406.036 639.211 405.911 639.211 405.781C639.211 405.651 639.261 405.527 639.35 405.432C639.391 405.381 639.441 405.339 639.499 405.308C639.556 405.277 639.619 405.257 639.684 405.25C639.749 405.243 639.815 405.25 639.877 405.268C639.94 405.287 639.998 405.318 640.048 405.359C640.136 405.432 649.435 413.058 657.382 415.037C657.445 415.054 657.504 415.083 657.556 415.123C657.608 415.163 657.651 415.213 657.684 415.27C657.716 415.327 657.737 415.39 657.745 415.455C657.753 415.52 657.749 415.585 657.731 415.649C657.703 415.766 657.632 415.868 657.533 415.935C657.433 416.003 657.311 416.03 657.192 416.012Z" fill="white"/>
<path d="M588.718 306.367C588.639 306.367 588.561 306.348 588.491 306.313C588.42 306.278 588.358 306.226 588.311 306.163C588.273 306.109 588.246 306.048 588.231 305.983C588.217 305.918 588.216 305.851 588.228 305.786C588.241 305.721 588.266 305.659 588.303 305.604C588.339 305.548 588.387 305.501 588.442 305.465C590.407 304.096 593.521 301.462 593.521 300.167C593.521 299.308 592.459 298.29 591.323 297.256C590.067 296.207 589.029 294.921 588.267 293.472C587.525 291.741 584.862 284.944 585.357 283.285C585.376 283.223 585.408 283.165 585.451 283.115C585.493 283.065 585.545 283.024 585.603 282.994C585.661 282.965 585.724 282.947 585.79 282.942C585.855 282.937 585.92 282.944 585.982 282.965C586.109 283.008 586.214 283.099 586.274 283.219C586.334 283.339 586.344 283.478 586.303 283.605C585.997 284.493 587.583 289.427 589.14 293.036C589.852 294.351 590.811 295.518 591.964 296.47C593.317 297.766 594.482 298.872 594.482 300.152C594.482 302.394 589.533 305.872 588.966 306.265C588.894 306.32 588.808 306.355 588.718 306.367Z" fill="white"/>
<path d="M540.226 309.219C540.121 309.223 540.017 309.194 539.93 309.135C539.843 309.077 539.777 308.992 539.741 308.893C539.705 308.794 539.702 308.686 539.732 308.585C539.761 308.484 539.822 308.395 539.906 308.331L543.981 305.071C547.896 301.957 550.312 293.996 550.341 293.909C550.381 293.783 550.469 293.677 550.586 293.615C550.703 293.552 550.839 293.538 550.967 293.574C551.093 293.614 551.199 293.702 551.261 293.819C551.324 293.936 551.338 294.073 551.301 294.2C551.2 294.535 548.755 302.539 544.607 305.843L540.532 309.103C540.447 309.176 540.339 309.217 540.226 309.219Z" fill="white"/>
<path d="M636.978 492.884C636.905 492.881 636.833 492.863 636.768 492.83C636.703 492.798 636.645 492.751 636.599 492.695C631.389 486.307 626.684 479.524 622.526 472.407C616.894 462.336 600.696 434.786 600.521 434.568C599.021 431.253 597.908 427.776 597.203 424.206C597.101 423.653 597.028 423.144 596.956 422.751C596.417 419.083 596.184 417.57 591.309 414.426C586.434 411.283 586.128 405.811 585.72 399.945C585.633 398.563 585.531 397.137 585.371 395.725C584.716 389.904 569.26 363.707 557.982 344.671C555.42 340.305 553.092 336.405 551.2 333.16C541.1 315.783 534.114 292.934 534.041 292.701C534.005 292.574 534.019 292.437 534.082 292.32C534.144 292.203 534.25 292.116 534.376 292.075C534.438 292.055 534.503 292.048 534.568 292.054C534.633 292.061 534.696 292.08 534.753 292.111C534.811 292.143 534.861 292.185 534.901 292.237C534.941 292.288 534.97 292.347 534.987 292.41C535.06 292.643 542.016 315.39 552.058 332.65C553.95 335.896 556.279 339.84 558.84 344.162C570.177 363.3 585.691 389.525 586.361 395.609C586.521 397.064 586.623 398.519 586.725 399.887C587.118 405.709 587.452 410.773 591.847 413.597C597.101 416.973 597.363 418.734 597.945 422.591C597.945 423.071 598.091 423.566 598.178 424.119C598.869 427.583 599.953 430.957 601.409 434.175C601.54 434.423 617.753 461.972 623.399 472.014C627.531 479.073 632.202 485.803 637.371 492.142C637.412 492.192 637.443 492.25 637.462 492.313C637.48 492.375 637.486 492.441 637.48 492.506C637.473 492.571 637.453 492.634 637.422 492.691C637.391 492.749 637.349 492.799 637.298 492.84C637.199 492.889 637.086 492.904 636.978 492.884Z" fill="white"/>
<path d="M523.402 275.193C523.402 275.193 524.334 285.497 528.409 288.757C532.484 292.017 544.709 294.869 561.416 291.668C578.123 288.466 596.461 274.204 598.091 269.255C599.721 264.307 591.425 251.5 591.425 251.5C591.425 251.5 581.791 265.18 554.896 269.663C528.001 274.145 523.402 275.193 523.402 275.193Z" fill="white"/>
<path d="M547.256 293.778C537.403 293.778 530.65 291.493 527.943 289.325C523.679 285.905 522.718 275.703 522.675 275.266C522.659 275.092 522.707 274.919 522.808 274.778C522.91 274.636 523.059 274.536 523.228 274.495C523.417 274.495 528.161 273.316 554.78 268.877C580.976 264.511 590.727 251.151 590.829 251.02C590.897 250.926 590.987 250.849 591.091 250.796C591.194 250.743 591.309 250.715 591.425 250.714C591.545 250.717 591.661 250.749 591.766 250.807C591.87 250.865 591.958 250.949 592.022 251.049C592.895 252.388 600.463 264.351 598.775 269.43C596.985 274.786 578.225 289.063 561.547 292.323C556.841 293.265 552.055 293.753 547.256 293.778ZM524.203 275.775C524.479 278.017 525.658 285.613 528.86 288.189C532.498 291.1 544.156 294.244 561.271 290.896C578.094 287.607 595.951 273.33 597.407 268.964C598.557 265.501 593.856 256.754 591.353 252.708C588.762 255.808 578.371 266.432 554.969 270.318C533.401 273.927 526.153 275.295 524.203 275.775Z" fill="#2E353A"/>
<path d="M630.822 175.313C624.171 170.947 572.389 130.605 567.514 128.829C562.639 127.054 552.961 128.829 552.961 128.829C552.961 128.829 522.951 132.497 516.664 135.029C516.068 135.262 502.547 143.033 502.111 143.441C497.235 147.428 475.915 157.237 470.18 169.637C463.675 183.667 520.841 268.135 523.504 275.208C526.168 282.281 540.124 284.027 552.961 282.252C565.797 280.476 577.061 277.886 586.361 267.247C588.047 265.128 589.46 262.806 590.567 260.334C591.896 257.573 592.235 254.438 591.527 251.457C588.209 237.631 579.739 197.769 574.15 171.413C583.465 177.423 602.835 189.634 614.1 193.941C629.148 199.763 640.66 195.717 640.66 190.841C640.66 185.966 637.458 179.737 630.822 175.313Z" fill="white"/>
<path d="M612.848 183.914C603.975 183.038 595.381 180.327 587.612 175.953C587.612 175.953 599.124 170.641 599.561 167.978C599.997 165.315 583.625 167.541 585.837 166.654C588.049 165.766 591.149 163.554 585.837 163.554C581.602 163.275 577.43 162.383 573.452 160.905L574.049 171.369C579.113 174.643 587.147 179.723 595.209 184.38C602.793 188.367 610.602 191.909 618.597 194.989C618.597 194.989 628.333 185.689 612.848 183.914Z" fill="#FA7254"/>
<g style="mix-blend-mode:multiply">
<path d="M552.859 282.237L554.503 282.004C558.054 280.287 564.065 279.21 569.915 277.755C578.764 275.543 569.028 275.542 554.416 268.018C539.804 260.494 534.041 249.434 520.768 233.498C507.496 217.562 502.184 209.586 504.847 207.825C507.51 206.064 499.535 206.05 496.435 204.274C493.335 202.499 500.801 202.513 507.059 196.313C513.317 190.114 495.096 197.638 493.335 197.201C491.574 196.765 495.096 191.001 495.096 191.001L482.26 204.274L513.244 257.394L515.02 258.719L517.057 261.629L522.879 274.145C523.111 274.582 523.272 274.946 523.373 275.193C526.051 282.281 540.023 284.027 552.859 282.237Z" fill="#FA7254"/>
</g>
<path d="M494.179 158.474C503.974 157.019 531.276 172.591 531.276 172.591C516.271 162.404 503.144 152.857 494.165 148.549L477.617 160.192L476.482 161.254C478.403 160.876 485.767 159.668 494.179 158.474Z" fill="#FA7254"/>
<path opacity="0.5" d="M612.848 183.914C603.975 183.038 595.381 180.327 587.612 175.953C587.612 175.953 599.124 170.641 599.561 167.978C599.997 165.315 583.625 167.541 585.837 166.654C588.049 165.766 591.149 163.554 585.837 163.554C581.602 163.275 577.43 162.383 573.452 160.905L574.049 171.369C579.113 174.643 587.147 179.723 595.209 184.38C602.793 188.367 610.602 191.909 618.597 194.989C618.597 194.989 628.333 185.689 612.848 183.914Z" fill="white"/>
<path opacity="0.5" d="M552.859 282.237L554.503 282.004C558.054 280.287 564.065 279.21 569.915 277.755C578.764 275.543 569.028 275.542 554.416 268.018C539.804 260.494 534.041 249.434 520.768 233.498C507.496 217.562 502.184 209.586 504.847 207.825C507.51 206.064 499.535 206.05 496.435 204.274C493.335 202.499 500.801 202.513 507.059 196.313C513.317 190.114 495.096 197.638 493.335 197.201C491.574 196.765 495.096 191.001 495.096 191.001L482.26 204.274L513.244 257.394L515.02 258.719L517.057 261.629L522.879 274.145C523.111 274.582 523.272 274.946 523.373 275.193C526.051 282.281 540.023 284.027 552.859 282.237Z" fill="white"/>
<path opacity="0.5" d="M494.179 158.474C503.974 157.019 531.276 172.591 531.276 172.591C516.271 162.404 503.144 152.857 494.165 148.549L477.617 160.192L476.482 161.254C478.403 160.876 485.767 159.668 494.179 158.474Z" fill="white"/>
<path d="M543.544 283.62C533.735 283.62 524.901 281.277 522.718 275.455C522.078 273.738 517.77 266.723 512.313 257.904C489.129 220.298 464.781 179.315 469.424 169.317C473.79 159.886 486.699 152.1 495.242 146.948C497.418 145.711 499.522 144.351 501.543 142.873C502.067 142.451 515.616 134.65 516.344 134.359C522.66 131.813 551.593 128.261 552.83 128.116C553.193 128.043 562.77 126.326 567.761 128.116C570.992 129.295 593.128 146.046 610.912 159.508C620.547 166.785 628.857 173.101 631.214 174.672C638.637 179.621 641.285 186.228 641.285 190.769C641.232 191.611 640.97 192.428 640.523 193.144C640.076 193.861 639.458 194.455 638.724 194.873C634.431 197.783 625.044 198.875 613.736 194.553C605.833 191.525 592.502 184.059 575.125 172.897C580.947 200.621 588.937 237.965 592.124 251.238C592.874 254.385 592.52 257.694 591.12 260.611C589.983 263.15 588.514 265.529 586.754 267.684C577.032 278.788 565.2 281.233 552.917 282.921C549.812 283.369 546.681 283.602 543.544 283.62ZM561.591 128.771C558.728 128.814 555.872 129.072 553.048 129.542C552.699 129.542 523.024 133.224 516.883 135.698C516.082 136.062 503.115 143.528 502.46 144.008C500.388 145.531 498.225 146.926 495.984 148.185C487.601 153.25 474.939 160.905 470.748 170.015C466.033 180.203 496.944 230.281 513.55 257.22C519.473 266.825 523.388 273.228 524.087 275.019C526.662 281.888 540.75 283.241 552.757 281.582C564.763 279.923 576.319 277.551 585.706 266.825C587.356 264.758 588.735 262.489 589.81 260.072C591.061 257.463 591.379 254.505 590.712 251.689C587.452 238.126 579.244 199.486 573.335 171.645C573.307 171.503 573.321 171.356 573.375 171.221C573.429 171.087 573.522 170.971 573.641 170.889C573.76 170.81 573.899 170.769 574.041 170.769C574.183 170.769 574.323 170.81 574.441 170.889C592.459 182.531 606.226 190.288 614.26 193.345C625 197.463 634.052 196.488 637.895 193.839C638.424 193.541 638.875 193.122 639.211 192.616C639.547 192.11 639.76 191.532 639.83 190.929C639.83 186.766 637.356 180.669 630.414 176.041C628.013 174.44 619.688 168.138 610.039 160.832C593.259 148.142 570.294 130.75 567.267 129.644C565.435 129.045 563.518 128.75 561.591 128.771Z" fill="#2E353A"/>
<path d="M477.195 160.57C477.195 160.57 471.883 166.392 469.817 169.084C458.727 183.332 423.435 228.986 423.042 232.668C422.649 236.35 424.323 238.824 432.953 242.142C441.583 245.461 499.317 187.611 499.317 187.611" fill="white"/>
<g style="mix-blend-mode:multiply" opacity="0.8">
<path d="M477.283 160.745L476.54 161.225C475.463 162.418 473.135 165.023 471.33 167.163L444.523 202.324C444.523 202.324 443.693 203.255 442.383 204.798C432.327 218.202 423.566 230.296 423.027 232.45C423.027 232.522 423.027 232.595 423.027 232.653C422.678 236.132 424.366 238.78 432.953 242.084C434.481 242.666 437.508 241.356 441.481 238.809C439.462 238.404 437.534 237.634 435.791 236.539C430.915 233.439 434.903 230.339 434.903 230.339C434.903 230.339 441.234 232.872 447.477 234.574C448.772 233.599 450.126 232.552 451.508 231.445C450.178 230.574 448.918 229.601 447.739 228.535C442.427 223.674 438.003 218.798 438.003 218.798L478.578 162.171L477.283 160.745Z" fill="#FA7254"/>
</g>
<path opacity="0.5" d="M477.283 160.745L476.54 161.225C475.463 162.418 473.135 165.023 471.33 167.163L444.523 202.324C444.523 202.324 443.693 203.255 442.383 204.798C432.327 218.202 423.566 230.296 423.027 232.45C423.027 232.522 423.027 232.595 423.027 232.653C422.678 236.132 424.366 238.78 432.953 242.084C434.481 242.666 437.508 241.356 441.481 238.809C439.462 238.404 437.534 237.634 435.791 236.539C430.915 233.439 434.903 230.339 434.903 230.339C434.903 230.339 441.234 232.872 447.477 234.574C448.772 233.599 450.126 232.552 451.508 231.445C450.178 230.574 448.918 229.601 447.739 228.535C442.427 223.674 438.003 218.798 438.003 218.798L478.578 162.171L477.283 160.745Z" fill="white"/>
<path d="M433.622 242.986C433.295 242.99 432.97 242.936 432.662 242.826C424.628 239.726 421.805 237.005 422.285 232.639C422.678 229.015 451.858 191.016 469.205 168.691C471.272 166.042 476.409 160.381 476.628 160.148C476.69 160.071 476.767 160.007 476.855 159.961C476.942 159.914 477.039 159.886 477.137 159.878C477.236 159.871 477.336 159.883 477.43 159.915C477.524 159.947 477.61 159.998 477.683 160.064C477.757 160.131 477.816 160.212 477.857 160.302C477.898 160.392 477.921 160.49 477.923 160.589C477.925 160.688 477.906 160.787 477.869 160.879C477.831 160.971 477.775 161.054 477.705 161.123C477.705 161.123 472.378 166.945 470.355 169.593C442.325 205.657 424.017 230.47 423.784 232.799C423.449 235.899 424.89 238.315 433.244 241.531C439.254 243.845 475.754 210.27 498.822 187.145C498.959 187.008 499.145 186.931 499.338 186.931C499.532 186.931 499.718 187.008 499.855 187.145C499.992 187.282 500.069 187.468 500.069 187.661C500.069 187.855 499.992 188.041 499.855 188.178C494.077 193.883 444.77 242.986 433.622 242.986Z" fill="#2E353A"/>
<path d="M594.016 157.922L574.049 171.369C576.959 170.961 590.756 166.071 590.756 166.071" fill="white"/>
<path d="M574.049 172.096C573.902 172.099 573.759 172.055 573.639 171.971C573.519 171.888 573.428 171.769 573.379 171.631C573.318 171.479 573.31 171.311 573.358 171.155C573.406 170.999 573.506 170.864 573.641 170.772L593.623 157.325C593.701 157.27 593.789 157.231 593.882 157.211C593.975 157.191 594.071 157.19 594.165 157.207C594.259 157.225 594.348 157.261 594.427 157.314C594.506 157.367 594.574 157.435 594.627 157.514C594.733 157.677 594.771 157.874 594.733 158.065C594.695 158.255 594.584 158.423 594.423 158.533L578.051 169.564C583.072 168.022 590.421 165.431 590.523 165.387C590.716 165.324 590.926 165.339 591.108 165.431C591.289 165.522 591.427 165.682 591.491 165.875C591.555 166.068 591.539 166.278 591.448 166.46C591.356 166.641 591.196 166.779 591.003 166.843C590.436 167.032 577.047 171.762 574.15 172.169L574.049 172.096Z" fill="#2E353A"/>
<path d="M593.201 166.392C593.032 166.388 592.869 166.327 592.739 166.219C592.61 166.11 592.521 165.961 592.488 165.795C592.454 165.606 592.496 165.411 592.605 165.253C592.714 165.095 592.881 164.986 593.07 164.951L597.552 164.136C597.743 164.101 597.94 164.143 598.1 164.252C598.261 164.361 598.372 164.528 598.411 164.718C598.43 164.814 598.429 164.912 598.409 165.008C598.389 165.103 598.35 165.194 598.295 165.274C598.239 165.354 598.168 165.422 598.085 165.474C598.003 165.526 597.911 165.561 597.814 165.577L593.332 166.392H593.201Z" fill="#2E353A"/>
<path d="M445.265 218.537C442.184 218.445 439.119 219.026 436.285 220.239L445.265 218.537Z" fill="white"/>
<path d="M436.286 221.011C436.093 221.047 435.893 221.006 435.73 220.895C435.568 220.785 435.456 220.614 435.42 220.421C435.383 220.228 435.424 220.029 435.535 219.866C435.645 219.704 435.816 219.592 436.009 219.555C438.947 218.293 442.127 217.692 445.323 217.794C445.419 217.802 445.512 217.828 445.598 217.871C445.683 217.915 445.759 217.975 445.821 218.048C445.884 218.121 445.931 218.206 445.96 218.297C445.99 218.388 446.001 218.485 445.993 218.58C445.974 218.772 445.882 218.949 445.735 219.074C445.589 219.199 445.399 219.262 445.207 219.25C442.245 219.164 439.299 219.725 436.577 220.894C436.49 220.955 436.39 220.994 436.286 221.011Z" fill="#2E353A"/>
<path d="M488.78 198.584C488.78 198.584 500.001 195.149 502.969 192.864L488.78 198.584Z" fill="white"/>
<path d="M488.78 199.311C488.587 199.338 488.391 199.288 488.235 199.17C488.08 199.053 487.977 198.879 487.95 198.686C487.923 198.493 487.974 198.297 488.091 198.141C488.209 197.986 488.383 197.883 488.576 197.856C488.678 197.856 499.695 194.451 502.533 192.268C502.685 192.15 502.878 192.098 503.069 192.123C503.26 192.147 503.434 192.246 503.552 192.399C503.665 192.552 503.715 192.744 503.691 192.934C503.666 193.124 503.57 193.297 503.421 193.417C500.364 195.76 489.464 199.108 488.998 199.239C488.931 199.278 488.857 199.302 488.78 199.311Z" fill="#2E353A"/>
<path d="M505.72 191.729C505.72 191.729 507.554 190.128 508.238 190.128L505.72 191.729Z" fill="white"/>
<path d="M505.72 192.457C505.616 192.456 505.513 192.433 505.418 192.391C505.323 192.348 505.237 192.286 505.167 192.209C505.033 192.071 504.958 191.886 504.958 191.693C504.958 191.5 505.033 191.315 505.167 191.176C505.99 190.327 507.025 189.714 508.165 189.401C508.358 189.401 508.543 189.477 508.68 189.614C508.816 189.75 508.893 189.935 508.893 190.128C508.889 190.32 508.811 190.503 508.675 190.639C508.54 190.774 508.357 190.852 508.165 190.856C507.415 191.234 506.728 191.725 506.128 192.311C506.011 192.402 505.868 192.453 505.72 192.457Z" fill="#2E353A"/>
<path d="M574.049 172.096C573.868 172.094 573.695 172.026 573.561 171.906C573.428 171.785 573.342 171.62 573.321 171.442L571.502 152.74C571.492 152.645 571.501 152.548 571.529 152.456C571.557 152.364 571.603 152.279 571.663 152.204C571.724 152.13 571.799 152.069 571.884 152.023C571.968 151.978 572.061 151.949 572.157 151.94C572.252 151.93 572.349 151.94 572.441 151.967C572.533 151.995 572.618 152.041 572.692 152.102C572.767 152.162 572.828 152.237 572.874 152.322C572.919 152.406 572.947 152.499 572.957 152.595L574.791 171.311C574.801 171.405 574.792 171.501 574.764 171.593C574.736 171.684 574.69 171.769 574.629 171.842C574.568 171.915 574.493 171.975 574.408 172.019C574.324 172.063 574.231 172.089 574.136 172.096H574.049Z" fill="#2E353A"/>
<path d="M422.998 232.857C422.998 232.857 420.422 242.71 436.94 246.799C444.785 248.735 496.697 261.353 496.697 261.353C496.697 261.353 501.339 251.398 498.691 251.398C496.042 251.398 448.176 219.57 448.176 219.57" fill="white"/>
<path d="M430.712 244.631L490.905 259.999L492.505 256.186C492.505 256.186 469.831 251.646 455.671 244.544C441.51 237.442 440.608 239.668 435.747 236.583C430.886 233.498 434.859 230.383 434.859 230.383C434.859 230.383 448.147 235.695 455.234 236.132C462.322 236.568 453.022 233.483 447.71 228.608C445.512 226.599 443.475 224.576 441.889 222.917L422.969 232.843C422.969 232.843 421.135 239.988 430.712 244.631Z" fill="#FA7254"/>
<path opacity="0.5" d="M430.712 244.631L490.905 259.999L492.505 256.186C492.505 256.186 469.831 251.646 455.671 244.544C441.51 237.442 440.608 239.668 435.747 236.583C430.886 233.498 434.859 230.383 434.859 230.383C434.859 230.383 448.147 235.695 455.234 236.132C462.322 236.568 453.022 233.483 447.71 228.608C445.512 226.599 443.475 224.576 441.889 222.917L422.969 232.843C422.969 232.843 421.135 239.988 430.712 244.631Z" fill="white"/>
<path d="M496.697 262.197H496.522C496.522 262.197 444.61 249.521 436.766 247.644C430.217 246.028 425.778 243.278 423.58 239.625C422.3 237.601 421.842 235.164 422.3 232.814C422.351 232.628 422.472 232.47 422.638 232.372C422.803 232.275 423 232.245 423.187 232.29C423.372 232.341 423.529 232.463 423.625 232.629C423.72 232.795 423.746 232.992 423.697 233.177C423.367 235.167 423.782 237.208 424.861 238.912C426.855 242.259 430.988 244.733 437.115 246.188C444.392 248.007 490.555 259.286 496.289 260.654C498.079 256.696 499.2 252.854 498.691 252.257C495.926 252.257 455.831 225.624 447.826 220.239C447.666 220.13 447.555 219.962 447.517 219.772C447.478 219.581 447.517 219.383 447.623 219.221C447.675 219.141 447.743 219.073 447.823 219.021C447.902 218.968 447.991 218.932 448.085 218.914C448.178 218.897 448.275 218.898 448.368 218.918C448.461 218.938 448.549 218.977 448.627 219.031C467.474 231.591 496.377 250.409 498.72 250.773C498.957 250.776 499.19 250.838 499.398 250.952C499.606 251.066 499.783 251.229 499.913 251.427C501.121 253.334 498.254 259.825 497.337 261.775C497.28 261.898 497.19 262.003 497.077 262.077C496.964 262.152 496.832 262.193 496.697 262.197Z" fill="#2E353A"/>
<path d="M498.691 251.442C498.691 251.442 515.733 259.417 517.057 261.629C518.382 263.842 521.423 275.339 521.423 278.89C521.423 282.441 520.987 282.426 518.775 282.426C516.562 282.426 510.799 274.014 509.475 272.239C508.15 270.463 505.109 270.463 501.063 267.873C499.936 267.158 498.967 266.219 498.216 265.116C497.465 264.012 496.948 262.766 496.697 261.455L498.691 251.442Z" fill="white"/>
<path d="M518.833 283.154C516.926 283.154 513.783 279.356 509.649 273.651C509.358 273.243 509.126 272.908 508.951 272.69C508.119 271.863 507.078 271.279 505.938 271.002C504.103 270.349 502.349 269.485 500.714 268.426C499.489 267.656 498.436 266.642 497.62 265.448C496.804 264.254 496.242 262.904 495.969 261.484C495.962 261.411 495.962 261.338 495.969 261.266L497.963 251.296C497.985 251.189 498.031 251.088 498.096 251C498.162 250.912 498.245 250.84 498.341 250.787C498.441 250.737 498.55 250.711 498.662 250.711C498.773 250.711 498.882 250.737 498.982 250.787C501.892 252.126 516.3 258.966 517.668 261.251C519.036 263.536 522.195 275.237 522.195 278.89C522.195 282.543 521.525 283.154 518.833 283.154ZM497.439 261.426C497.699 262.62 498.194 263.749 498.896 264.749C499.599 265.749 500.494 266.598 501.529 267.247C503.074 268.241 504.729 269.052 506.462 269.663C507.863 270.027 509.131 270.785 510.115 271.846C510.29 272.064 510.537 272.399 510.828 272.821C516.155 280.185 518.105 281.728 518.833 281.728C520.754 281.728 520.754 281.728 520.754 278.919C520.754 275.484 517.727 264.176 516.388 262.022C515.544 260.567 505.72 255.619 499.171 252.519L497.439 261.426Z" fill="#2E353A"/>
<path d="M491.414 260.421C491.342 260.435 491.268 260.435 491.196 260.421C491.104 260.393 491.019 260.347 490.945 260.286C490.871 260.224 490.811 260.148 490.768 260.062C490.724 259.977 490.698 259.883 490.692 259.787C490.685 259.691 490.698 259.595 490.73 259.505L493.379 251.282C493.406 251.188 493.451 251.1 493.513 251.024C493.574 250.948 493.65 250.885 493.737 250.839C493.823 250.793 493.918 250.765 494.015 250.757C494.113 250.748 494.211 250.759 494.304 250.79C494.397 250.82 494.483 250.869 494.557 250.933C494.631 250.998 494.691 251.076 494.733 251.164C494.776 251.252 494.8 251.348 494.805 251.446C494.81 251.544 494.795 251.641 494.761 251.733L492.113 259.956C492.057 260.095 491.96 260.214 491.835 260.297C491.711 260.38 491.564 260.423 491.414 260.421Z" fill="#2E353A"/>
<path d="M620.634 189.43C620.634 189.43 616.268 204.478 614.434 213.326C612.601 222.175 600.274 257.598 600.274 257.598L610.898 264.234C610.898 264.234 634.358 215.626 638.826 204.973C643.294 194.32 641.926 186.373 637.502 181.949" fill="white"/>
<path d="M610.898 265.006C610.763 265.003 610.632 264.962 610.519 264.889L599.895 258.253C599.754 258.166 599.647 258.034 599.592 257.877C599.536 257.721 599.535 257.551 599.59 257.394C599.706 257.045 611.989 221.928 613.721 213.239C615.453 204.551 619.906 189.43 619.906 189.27C619.961 189.077 620.089 188.913 620.264 188.815C620.438 188.717 620.645 188.692 620.838 188.746C621.031 188.8 621.195 188.928 621.293 189.103C621.391 189.278 621.416 189.484 621.362 189.677C621.362 189.823 616.923 204.798 615.177 213.516C613.518 221.826 602.821 252.65 601.176 257.336L610.621 263.23C613.532 257.103 634.067 214.462 638.142 204.682C642.071 195.237 641.649 187.218 636.978 182.459C636.843 182.324 636.767 182.14 636.767 181.949C636.767 181.758 636.843 181.575 636.978 181.44C637.113 181.305 637.296 181.229 637.487 181.229C637.678 181.229 637.861 181.305 637.996 181.44C643.119 186.548 643.658 195.237 639.452 205.249C635.086 215.771 611.8 264.104 611.553 264.598C611.51 264.69 611.447 264.772 611.369 264.837C611.291 264.903 611.2 264.95 611.102 264.977L610.898 265.006Z" fill="#2E353A"/>
<path d="M602.282 252.533C603.083 252.533 613.168 258.093 613.168 258.093L602.282 252.533Z" fill="#2E353A"/>
<path d="M532.484 172.591C530.039 172.184 516.984 163.626 508.019 156.699C499.055 149.771 494.165 148.549 494.165 148.549L488.052 152.624C487.127 149.645 487.42 146.422 488.867 143.659C491.312 139.177 499.87 134.694 508.427 131.434C516.984 128.174 526.764 125.394 532.891 125.394C539.018 125.394 540.634 127.839 540.634 131.099C540.634 134.359 540.634 144.547 538.596 152.289C536.559 160.032 532.484 172.591 532.484 172.591Z" fill="white"/>
<g style="mix-blend-mode:multiply">
<path d="M528.642 130.095C528.642 130.095 524.872 141.389 521.103 144.78C518.192 147.22 515.042 149.361 511.702 151.169C511.702 151.169 509.446 143.266 503.799 143.266C498.152 143.266 489.493 147.035 489.493 147.035C489.493 147.035 489.493 144.023 496.639 140.254L503.799 136.499L520.361 130.095H528.642Z" fill="#FA7254"/>
</g>
<path opacity="0.5" d="M528.642 130.095C528.642 130.095 524.872 141.389 521.103 144.78C518.192 147.22 515.042 149.361 511.702 151.169C511.702 151.169 509.446 143.266 503.799 143.266C498.152 143.266 489.493 147.035 489.493 147.035C489.493 147.035 489.493 144.023 496.639 140.254L503.799 136.499L520.361 130.095H528.642Z" fill="white"/>
<path d="M532.484 173.319H532.353C529.646 172.868 516.242 163.976 507.612 157.31C500.117 151.489 495.489 149.757 494.31 149.378L488.489 153.264C488.394 153.322 488.288 153.359 488.178 153.374C488.068 153.389 487.955 153.381 487.848 153.352C487.744 153.316 487.649 153.256 487.571 153.178C487.493 153.1 487.433 153.005 487.397 152.9C486.898 151.329 486.717 149.675 486.865 148.033C487.012 146.392 487.485 144.796 488.256 143.339C491.167 137.896 502.023 133.151 508.209 130.779C513.07 128.931 525.207 124.623 532.95 124.623C538.64 124.623 541.42 126.719 541.42 131.056C541.42 134.403 541.42 144.605 539.353 152.435C537.286 160.264 533.27 172.722 533.226 172.81C533.18 172.967 533.081 173.103 532.945 173.196C532.81 173.289 532.647 173.332 532.484 173.319ZM494.165 147.821H494.339C494.543 147.821 499.491 149.16 508.471 156.102C516.897 162.608 528.642 170.35 532.004 171.674C532.877 168.938 536.151 158.576 537.825 151.998C539.848 144.358 539.848 134.301 539.848 130.997C539.848 128.538 539.018 126.02 532.833 126.02C527.565 126.02 518.745 128.232 508.631 132.089C498.516 135.946 491.458 140.297 489.449 143.979C488.245 146.266 487.884 148.904 488.431 151.431L493.699 147.923C493.838 147.837 494.002 147.801 494.165 147.821Z" fill="#2E353A"/>
<path d="M496.202 120.868C500.976 126.134 504.328 132.531 505.938 139.453C508.587 150.965 525.236 164.5 529.224 164.5C533.212 164.5 532.935 144.765 531.611 139.017C530.286 133.268 524.974 117.768 524.974 117.768C524.974 117.768 503.784 107.581 496.202 120.868Z" fill="white"/>
<path d="M529.282 165.227C525.003 165.227 507.976 151.314 505.283 139.613C503.687 132.828 500.403 126.555 495.736 121.378C495.624 121.265 495.552 121.118 495.531 120.961C495.51 120.803 495.541 120.643 495.62 120.504C503.391 106.795 525.12 116.997 525.338 117.114C525.426 117.155 525.505 117.214 525.57 117.286C525.635 117.359 525.685 117.443 525.716 117.536C525.935 118.161 531.058 133.122 532.382 138.856C533.532 143.892 534.07 160.439 531.014 164.296C530.817 164.575 530.559 164.804 530.258 164.966C529.957 165.128 529.623 165.217 529.282 165.227ZM497.163 120.766C501.831 126.053 505.108 132.421 506.695 139.293C509.344 150.717 525.891 163.772 529.282 163.772C529.282 163.772 529.559 163.772 529.864 163.379C532.338 160.279 532.178 144.459 530.956 139.177C529.733 133.894 525.134 120.475 524.436 118.292C522.005 117.215 504.032 109.691 497.163 120.766Z" fill="#2E353A"/>
<g style="mix-blend-mode:multiply">
<path d="M528.642 130.095C528.642 130.095 524.872 141.389 521.103 144.78C518.192 147.22 515.042 149.361 511.701 151.169C511.701 151.169 509.446 143.266 503.799 143.266C498.152 143.266 489.493 147.035 489.493 147.035C489.493 147.035 489.493 144.023 496.639 140.254L503.799 136.499L520.361 130.095H528.642Z" fill="#FA7254"/>
</g>
<path opacity="0.5" d="M528.642 130.095C528.642 130.095 524.872 141.389 521.103 144.78C518.192 147.22 515.042 149.361 511.701 151.169C511.701 151.169 509.446 143.266 503.799 143.266C498.152 143.266 489.493 147.035 489.493 147.035C489.493 147.035 489.493 144.023 496.639 140.254L503.799 136.499L520.361 130.095H528.642Z" fill="white"/>
<path d="M496.202 120.868C500.976 126.134 504.328 132.531 505.938 139.453C508.587 150.965 525.236 164.5 529.224 164.5C533.212 164.5 532.935 144.765 531.611 139.017C530.286 133.268 524.974 117.768 524.974 117.768C524.974 117.768 503.784 107.581 496.202 120.868Z" fill="white"/>
<path d="M529.282 165.227C525.003 165.227 507.976 151.314 505.283 139.613C503.687 132.828 500.403 126.555 495.736 121.378C495.624 121.265 495.552 121.118 495.531 120.961C495.51 120.803 495.541 120.643 495.62 120.504C503.391 106.795 525.12 116.997 525.338 117.114C525.426 117.155 525.505 117.214 525.57 117.286C525.635 117.359 525.685 117.443 525.716 117.536C525.935 118.161 531.058 133.122 532.382 138.856C533.532 143.892 534.07 160.439 531.014 164.296C530.817 164.575 530.559 164.804 530.258 164.966C529.957 165.128 529.623 165.217 529.282 165.227ZM497.163 120.766C501.831 126.053 505.108 132.421 506.695 139.293C509.344 150.717 525.891 163.772 529.282 163.772C529.282 163.772 529.559 163.772 529.864 163.379C532.338 160.279 532.178 144.459 530.956 139.177C529.733 133.894 525.134 120.475 524.436 118.292C522.005 117.215 504.032 109.691 497.163 120.766Z" fill="#2E353A"/>
<path d="M482.216 99.5329C485.339 108.024 489.201 116.225 493.757 124.041C500.481 135.087 513.463 141.345 520.666 138.463C527.87 135.582 532.775 126.282 530.854 111.874C530.432 108.702 527.667 107.406 526.779 104.598C523.592 94.4101 520.346 84.5865 519.226 80.8463C517.77 76.0291 506.244 71.2264 494.237 74.5883C482.231 77.9501 480.295 87.992 482.216 99.5329Z" fill="white"/>
<path d="M522.107 90.7136C522.107 90.7136 517.741 93.959 507.932 92.0816C498.123 90.2042 491.37 90.6263 491.749 93.2168C492.127 95.8073 492.884 99.2274 492.884 99.2274C492.884 99.2274 481.11 89.04 491.778 86.333C499.462 84.3392 503.901 87.3663 505.778 87.7884C507.656 88.2104 522.107 90.7136 522.107 90.7136Z" fill="#FA7254"/>
<path opacity="0.5" d="M522.107 90.7136C522.107 90.7136 517.741 93.959 507.932 92.0816C498.123 90.2042 491.37 90.6263 491.749 93.2168C492.127 95.8073 492.884 99.2274 492.884 99.2274C492.884 99.2274 481.11 89.04 491.778 86.333C499.462 84.3392 503.901 87.3663 505.778 87.7884C507.656 88.2104 522.107 90.7136 522.107 90.7136Z" fill="white"/>
<path d="M516.65 139.948C508.834 139.948 498.662 133.559 493.131 124.463C488.536 116.602 484.64 108.353 481.489 99.8095C481.48 99.7711 481.48 99.7314 481.489 99.6931C479.087 85.3579 483.191 76.9024 494.019 73.8752C506.579 70.3533 518.382 75.5343 519.91 80.6135C520.434 82.3745 521.365 85.4598 522.66 89.3456C524.116 93.7116 525.76 98.9945 527.448 104.408C527.871 105.485 528.493 106.473 529.282 107.319C530.459 108.555 531.248 110.108 531.552 111.787C533.706 127.956 527.477 136.528 520.928 139.147C519.566 139.685 518.114 139.956 516.65 139.948ZM482.929 99.3438C486.03 107.766 489.858 115.903 494.368 123.663C501.136 134.767 513.928 140.37 520.404 137.779C526.444 135.364 532.178 127.316 530.126 111.962C529.859 110.559 529.198 109.262 528.22 108.221C527.3 107.213 526.592 106.03 526.139 104.743C524.45 99.3438 522.748 94.0463 521.35 89.6949C520.113 85.8527 519.124 82.7529 518.585 80.9628C517.363 76.9169 506.608 71.8087 494.485 75.1414C484.472 78.023 480.703 85.911 482.929 99.3438Z" fill="#2E353A"/>
<path d="M490.876 115.382C490.876 115.382 483.177 112.02 482.696 115.382C482.216 118.744 485.607 121.203 488.94 122.658C489.771 123.113 490.718 123.31 491.662 123.225C492.605 123.139 493.502 122.775 494.237 122.178" fill="white"/>
<path d="M491.37 123.939C490.437 123.927 489.515 123.724 488.663 123.342C483.904 121.305 481.532 118.467 481.983 115.353C482.022 114.996 482.147 114.655 482.347 114.358C482.547 114.062 482.817 113.818 483.133 113.65C485.447 112.354 490.584 114.538 491.167 114.799C491.33 114.886 491.455 115.031 491.515 115.207C491.576 115.382 491.567 115.573 491.491 115.742C491.415 115.911 491.277 116.045 491.106 116.115C490.935 116.186 490.743 116.189 490.57 116.124C488.649 115.28 485.112 114.217 483.832 114.916C483.715 114.98 483.617 115.072 483.545 115.184C483.474 115.296 483.433 115.424 483.424 115.556C482.958 118.802 486.859 120.985 489.246 122.003C489.946 122.393 490.745 122.569 491.544 122.509C492.343 122.45 493.108 122.157 493.743 121.669C493.883 121.55 494.062 121.489 494.245 121.498C494.428 121.506 494.602 121.583 494.73 121.714C494.859 121.844 494.934 122.019 494.939 122.202C494.945 122.385 494.882 122.564 494.761 122.702C493.828 123.528 492.616 123.97 491.37 123.939Z" fill="#2E353A"/>
<path d="M522.296 96.3748C522.296 96.3748 513.724 94.3374 517.392 105.762C518.12 108.018 523.111 110.652 523.111 110.652C523.111 110.652 522.704 114.319 520.666 114.727" fill="white"/>
<path d="M520.652 115.454C520.485 115.452 520.324 115.393 520.194 115.287C520.065 115.182 519.975 115.035 519.939 114.872C519.92 114.778 519.92 114.68 519.939 114.585C519.958 114.491 519.996 114.401 520.05 114.321C520.104 114.241 520.174 114.173 520.255 114.12C520.335 114.067 520.426 114.031 520.521 114.014C521.569 113.795 522.107 112.063 522.311 111.103C520.972 110.346 517.392 108.192 516.708 106.038C515.34 101.789 515.456 98.7616 517.043 97.0443C518.993 94.9341 522.311 95.7054 522.457 95.7345C522.643 95.7794 522.805 95.8965 522.906 96.0601C523.007 96.2237 523.039 96.4206 522.995 96.6077C522.975 96.7012 522.935 96.7897 522.88 96.8678C522.825 96.9459 522.754 97.012 522.673 97.0623C522.591 97.1125 522.5 97.1459 522.406 97.1603C522.311 97.1747 522.215 97.1699 522.122 97.1462C522.122 97.1462 519.473 96.5495 518.105 98.034C516.737 99.5184 516.912 101.934 518.105 105.587C518.571 107.043 521.642 109.095 523.461 110.055C523.587 110.127 523.69 110.234 523.757 110.363C523.824 110.492 523.853 110.638 523.839 110.783C523.839 111.219 523.301 115.003 520.812 115.498L520.652 115.454Z" fill="#2E353A"/>
<path d="M516.169 122.877C516.169 122.877 510.057 124.099 507.612 121.247L516.169 122.877Z" fill="white"/>
<path d="M513.244 123.939C512.12 124.028 510.99 123.883 509.925 123.512C508.86 123.141 507.884 122.553 507.059 121.785C506.997 121.713 506.95 121.628 506.92 121.538C506.89 121.447 506.879 121.351 506.886 121.256C506.894 121.16 506.92 121.067 506.963 120.982C507.007 120.897 507.066 120.821 507.139 120.759C507.212 120.697 507.296 120.65 507.387 120.62C507.477 120.591 507.573 120.579 507.669 120.587C507.764 120.594 507.857 120.62 507.942 120.664C508.027 120.707 508.103 120.767 508.165 120.839C510.304 123.342 515.98 122.295 516.038 122.295C516.131 122.273 516.228 122.272 516.321 122.289C516.415 122.306 516.504 122.343 516.583 122.396C516.662 122.449 516.729 122.518 516.781 122.598C516.832 122.678 516.867 122.768 516.883 122.862C516.902 122.956 516.902 123.052 516.884 123.146C516.866 123.24 516.829 123.329 516.777 123.409C516.724 123.489 516.656 123.557 516.577 123.611C516.498 123.664 516.409 123.702 516.315 123.721C515.3 123.882 514.272 123.955 513.244 123.939Z" fill="#2E353A"/>
<path d="M507.204 103.724C507.204 103.724 502.722 102.094 500.277 104.132C498.968 105.043 497.956 106.318 497.366 107.799" fill="white"/>
<path d="M497.425 108.512H497.25C497.157 108.489 497.07 108.447 496.993 108.389C496.917 108.332 496.852 108.26 496.804 108.177C496.755 108.095 496.723 108.004 496.71 107.909C496.696 107.814 496.702 107.717 496.726 107.625C497.335 106.002 498.408 104.595 499.811 103.579C502.547 101.308 507.263 102.982 507.452 103.055C507.543 103.086 507.627 103.135 507.698 103.199C507.77 103.263 507.828 103.341 507.869 103.428C507.909 103.515 507.932 103.609 507.936 103.705C507.939 103.801 507.923 103.897 507.889 103.986C507.823 104.168 507.688 104.315 507.513 104.397C507.339 104.479 507.139 104.488 506.957 104.423C506.957 104.423 502.838 102.968 500.743 104.699C499.589 105.536 498.688 106.674 498.138 107.988C498.091 108.141 497.996 108.274 497.868 108.368C497.739 108.463 497.584 108.513 497.425 108.512Z" fill="#2E353A"/>
<path d="M507.088 110.695C507.67 112.049 507.554 113.388 506.826 113.693C506.098 113.999 505.051 113.17 504.468 111.816C503.886 110.463 504.017 109.138 504.745 108.818C505.473 108.498 506.52 109.386 507.088 110.695Z" fill="#2E353A"/>
<path d="M521.743 103.564C522.326 104.903 522.195 106.242 521.481 106.562C520.768 106.883 519.691 106.024 519.124 104.685C518.556 103.346 518.658 101.993 519.386 101.687C520.113 101.381 521.161 102.225 521.743 103.564Z" fill="#2E353A"/>
<path d="M488.736 117.317C488.736 117.317 493.597 113.781 492.709 110.681C491.821 107.581 490.061 107.581 491.836 105.82C493.612 104.059 494.921 103.157 494.485 100.508C494.048 97.8593 486.961 93.4205 489.173 90.7718C491.385 88.123 490.497 84.9504 508.645 89.4328C526.793 93.9153 538.305 86.7841 532.993 80.1477C527.681 73.5114 523.257 72.6236 523.257 72.6236C523.257 72.6236 533.444 68.2576 525.032 63.7605C516.621 59.2635 497.585 59.3945 486.961 67.7482C476.337 76.1019 478.549 83.1894 478.549 83.1894C478.549 83.1894 472.8 84.0772 472.349 92.9402C471.898 101.803 488.736 117.317 488.736 117.317Z" fill="#2E353A"/>
<path d="M517.698 87.6719C513.829 87.5095 510.02 86.662 506.448 85.1687C503.648 83.9749 500.666 83.2662 497.628 83.073C490.599 83.073 489.144 87.0607 489.085 87.2353C489.066 87.2975 489.034 87.355 488.991 87.4043C488.949 87.4537 488.897 87.4939 488.838 87.5225C488.78 87.5511 488.716 87.5675 488.651 87.5706C488.586 87.5738 488.521 87.5637 488.46 87.541C488.397 87.5211 488.34 87.4892 488.29 87.4469C488.24 87.4047 488.199 87.353 488.169 87.2948C488.139 87.2366 488.121 87.1731 488.116 87.1079C488.111 87.0428 488.119 86.9773 488.139 86.9152C488.212 86.726 489.842 82.0689 497.628 82.0689C500.782 82.2554 503.88 82.9892 506.782 84.2373C511.309 85.8528 516.009 87.5264 521.918 86.2166C525.12 85.5035 526.997 84.3538 527.463 82.8256C528.074 80.8609 526.182 78.8089 526.168 78.7798C526.075 78.687 526.023 78.5614 526.023 78.4305C526.023 78.2996 526.075 78.174 526.168 78.0812C526.265 77.9912 526.392 77.9412 526.524 77.9412C526.656 77.9412 526.784 77.9912 526.881 78.0812C526.968 78.1831 529.18 80.5844 528.409 83.1022C527.812 85.0087 525.702 86.3767 522.122 87.1771C520.669 87.4985 519.186 87.6643 517.698 87.6719Z" fill="white"/>
<path d="M485.229 86.4494C485.096 86.4382 484.973 86.3756 484.886 86.275C484.799 86.1744 484.755 86.0437 484.763 85.9109C484.763 85.809 485.622 76.2037 494.135 74.0498C499.156 72.7837 504.963 73.7297 509.635 74.4864C512.546 74.9667 515.151 75.3887 516.242 74.9667C516.362 74.941 516.487 74.9594 516.594 75.0185C516.702 75.0776 516.784 75.1734 516.827 75.2883C516.869 75.4033 516.869 75.5297 516.826 75.6444C516.782 75.7591 516.699 75.8543 516.592 75.9127C515.253 76.4075 512.706 76 509.475 75.4761C504.891 74.7193 499.186 73.8024 494.383 75.0104C486.553 77.0042 485.767 85.8963 485.753 85.9837C485.749 86.0487 485.732 86.1123 485.704 86.171C485.676 86.2296 485.636 86.282 485.587 86.3253C485.539 86.3686 485.482 86.4018 485.42 86.4231C485.359 86.4444 485.294 86.4533 485.229 86.4494Z" fill="white"/>
<path d="M479.597 101.469C479.498 101.467 479.402 101.437 479.32 101.381C478.013 100.286 477 98.8813 476.373 97.2957C475.745 95.7101 475.523 93.9931 475.725 92.2999C476.133 85.8964 481.052 85.8236 481.11 85.8236C481.229 85.8439 481.336 85.9054 481.414 85.9973C481.491 86.0891 481.534 86.2055 481.534 86.3257C481.534 86.4459 481.491 86.5623 481.414 86.6542C481.336 86.746 481.229 86.8076 481.11 86.8278C480.936 86.8278 477.064 86.9151 476.744 92.3581C476.547 93.8809 476.733 95.4289 477.284 96.8619C477.836 98.295 478.735 99.5682 479.902 100.566C479.956 100.603 480.002 100.649 480.037 100.704C480.072 100.758 480.096 100.819 480.107 100.883C480.117 100.947 480.115 101.013 480.1 101.076C480.085 101.139 480.057 101.198 480.019 101.25C479.974 101.321 479.912 101.379 479.838 101.417C479.763 101.456 479.68 101.473 479.597 101.469Z" fill="white"/>
<path d="M482.609 97.3353C482.514 97.3354 482.421 97.3079 482.341 97.2563C482.261 97.2047 482.197 97.1311 482.158 97.0443C481.799 96.3803 481.586 95.6473 481.533 94.8943C481.48 94.1413 481.589 93.3857 481.852 92.6782C482.494 91.291 483.639 90.1989 485.054 89.622C485.114 89.5963 485.179 89.583 485.244 89.5831C485.309 89.5832 485.374 89.5966 485.434 89.6225C485.494 89.6484 485.548 89.6862 485.593 89.7336C485.637 89.7811 485.672 89.8372 485.694 89.8985C485.742 90.0201 485.74 90.1557 485.688 90.2757C485.636 90.3957 485.539 90.4903 485.418 90.5389C484.259 91.0297 483.318 91.9243 482.769 93.0566C482.563 93.6378 482.483 94.256 482.533 94.8706C482.583 95.4852 482.763 96.0821 483.06 96.6222C483.115 96.744 483.12 96.8823 483.073 97.0075C483.027 97.1327 482.934 97.2348 482.813 97.2917C482.749 97.3201 482.679 97.335 482.609 97.3353Z" fill="white"/>
<path d="M483.73 105.223C483.649 105.222 483.571 105.201 483.5 105.163C483.429 105.125 483.368 105.071 483.322 105.005L481.445 102.385C481.368 102.277 481.337 102.143 481.358 102.012C481.38 101.881 481.453 101.764 481.561 101.687C481.669 101.61 481.804 101.579 481.935 101.6C482.066 101.622 482.183 101.695 482.26 101.803L484.137 104.438C484.211 104.544 484.241 104.675 484.219 104.803C484.197 104.931 484.126 105.046 484.021 105.122C483.939 105.189 483.836 105.225 483.73 105.223Z" fill="white"/>
<path d="M513.222 411.464C517.499 410.349 521.349 407.99 524.286 404.686C527.222 401.383 529.113 397.282 529.719 392.904C530.325 388.525 529.619 384.066 527.691 380.088C525.762 376.111 522.697 372.795 518.884 370.56C515.071 368.325 510.68 367.271 506.267 367.531C501.855 367.791 497.619 369.354 494.095 372.022C490.57 374.69 487.916 378.343 486.468 382.519C485.02 386.695 484.843 391.207 485.96 395.484C486.7 398.323 487.993 400.989 489.763 403.329C491.534 405.669 493.749 407.637 496.28 409.121C498.812 410.605 501.611 411.576 504.518 411.978C507.425 412.38 510.382 412.205 513.222 411.464ZM504.942 379.745C506.939 379.223 509.047 379.305 510.997 379.982C512.948 380.658 514.654 381.898 515.9 383.544C517.145 385.191 517.875 387.17 517.996 389.231C518.116 391.292 517.623 393.342 516.578 395.123C515.533 396.903 513.983 398.334 512.125 399.233C510.267 400.133 508.183 400.461 506.138 400.176C504.094 399.891 502.179 399.006 500.638 397.632C499.096 396.259 497.997 394.459 497.478 392.461C496.784 389.785 497.18 386.943 498.579 384.559C499.979 382.175 502.267 380.443 504.942 379.745Z" fill="white"/>
<path d="M508.829 411.65L517.145 409.478L518.217 415.484L510.823 417.416L508.829 411.65Z" fill="white"/>
<path d="M523.922 404.718L528.264 397.301L533.274 400.791L529.412 407.381L523.922 404.718Z" fill="white"/>
<path d="M529.695 389.145L527.523 380.83L533.529 379.757L535.455 387.151L529.695 389.145Z" fill="white"/>
<path d="M522.764 374.053L515.347 369.703L518.837 364.701L525.426 368.563L522.764 374.053Z" fill="white"/>
<path d="M507.191 368.28L498.875 370.451L497.796 364.445L505.19 362.512L507.191 368.28Z" fill="white"/>
<path d="M492.098 375.211L487.75 382.62L482.739 379.137L486.609 372.542L492.098 375.211Z" fill="white"/>
<path d="M486.325 390.784L488.49 399.099L482.491 400.172L480.558 392.778L486.325 390.784Z" fill="white"/>
<path d="M493.256 405.876L500.666 410.225L497.183 415.229L490.587 411.366L493.256 405.876Z" fill="white"/>
<path d="M444.595 358.824C449.84 359.513 455.171 358.631 459.914 356.289C464.657 353.948 468.599 350.252 471.242 345.67C473.884 341.088 475.108 335.825 474.759 330.547C474.41 325.268 472.503 320.212 469.28 316.018C466.057 311.824 461.663 308.68 456.652 306.983C451.642 305.287 446.241 305.115 441.133 306.488C436.025 307.862 431.439 310.72 427.955 314.7C424.472 318.681 422.247 323.605 421.562 328.85C420.652 335.877 422.565 342.979 426.883 348.598C431.201 354.217 437.57 357.894 444.595 358.824ZM450.781 311.445C454.91 311.982 458.787 313.731 461.922 316.471C465.056 319.211 467.308 322.819 468.392 326.84C469.475 330.86 469.342 335.111 468.009 339.056C466.676 343 464.203 346.461 460.903 348.999C457.603 351.538 453.624 353.041 449.47 353.318C445.315 353.595 441.172 352.634 437.564 350.555C433.956 348.477 431.046 345.376 429.201 341.643C427.356 337.91 426.66 333.714 427.2 329.586C427.922 324.054 430.812 319.035 435.234 315.633C439.656 312.231 445.248 310.725 450.781 311.445ZM444.595 358.824C449.84 359.513 455.171 358.631 459.914 356.289C464.657 353.948 468.599 350.252 471.242 345.67C473.884 341.088 475.108 335.825 474.759 330.547C474.41 325.268 472.503 320.212 469.28 316.018C466.057 311.824 461.663 308.68 456.652 306.983C451.642 305.287 446.241 305.115 441.133 306.488C436.025 307.862 431.439 310.72 427.955 314.7C424.472 318.681 422.247 323.605 421.562 328.85C420.652 335.877 422.565 342.979 426.883 348.598C431.201 354.217 437.57 357.894 444.595 358.824ZM450.781 311.445C454.91 311.982 458.787 313.731 461.922 316.471C465.056 319.211 467.308 322.819 468.392 326.84C469.475 330.86 469.342 335.111 468.009 339.056C466.676 343 464.203 346.461 460.903 348.999C457.603 351.538 453.624 353.041 449.47 353.318C445.315 353.595 441.172 352.634 437.564 350.555C433.956 348.477 431.046 345.376 429.201 341.643C427.356 337.91 426.66 333.714 427.2 329.586C427.922 324.054 430.812 319.035 435.234 315.633C439.656 312.231 445.248 310.725 450.781 311.445ZM442.221 377.008C451.06 378.164 460.044 376.674 468.036 372.725C476.028 368.776 482.67 362.545 487.121 354.821C491.572 347.097 493.632 338.227 493.042 329.332C492.451 320.437 489.236 311.917 483.804 304.849C478.371 297.781 470.964 292.483 462.52 289.625C454.076 286.767 444.974 286.477 436.365 288.792C427.757 291.107 420.028 295.923 414.156 302.631C408.284 309.338 404.534 317.637 403.378 326.476C401.831 338.327 405.054 350.308 412.338 359.784C419.622 369.26 430.371 375.455 442.221 377.008ZM451.85 303.256C457.599 304.002 462.997 306.437 467.363 310.252C471.728 314.068 474.863 319.092 476.372 324.689C477.881 330.287 477.696 336.206 475.841 341.699C473.985 347.191 470.542 352.01 465.947 355.545C461.353 359.08 455.813 361.173 450.028 361.559C444.243 361.946 438.474 360.607 433.451 357.714C428.427 354.821 424.374 350.502 421.805 345.305C419.236 340.108 418.266 334.266 419.017 328.518C420.033 320.819 424.06 313.838 430.214 309.103C436.368 304.368 444.148 302.265 451.85 303.256ZM444.595 358.824C449.84 359.513 455.171 358.631 459.914 356.289C464.657 353.948 468.599 350.252 471.242 345.67C473.884 341.088 475.108 335.825 474.759 330.547C474.41 325.268 472.503 320.212 469.28 316.018C466.057 311.824 461.663 308.68 456.652 306.983C451.642 305.287 446.241 305.115 441.133 306.488C436.025 307.862 431.439 310.72 427.955 314.7C424.472 318.681 422.247 323.605 421.562 328.85C420.652 335.877 422.565 342.979 426.883 348.598C431.201 354.217 437.57 357.894 444.595 358.824ZM450.781 311.445C454.91 311.982 458.787 313.731 461.922 316.471C465.056 319.211 467.308 322.819 468.392 326.84C469.475 330.86 469.342 335.111 468.009 339.056C466.676 343 464.203 346.461 460.903 348.999C457.603 351.538 453.624 353.041 449.47 353.318C445.315 353.595 441.172 352.634 437.564 350.555C433.956 348.477 431.046 345.376 429.201 341.643C427.356 337.91 426.66 333.714 427.2 329.586C427.922 324.054 430.812 319.035 435.234 315.633C439.656 312.231 445.248 310.725 450.781 311.445Z" fill="white"/>
<path d="M437.076 375.508L447.308 376.843L444.956 386.929L436.76 385.859L437.076 375.508Z" fill="white"/>
<path d="M460.148 375.215L469.677 371.256L472.677 381.156L465.045 384.328L460.148 375.215Z" fill="white"/>
<path d="M479.975 363.416L486.248 355.222L493.804 362.302L488.78 368.864L479.975 363.416Z" fill="white"/>
<path d="M491.249 343.289L492.585 333.057L502.67 335.409L501.6 343.605L491.249 343.289Z" fill="white"/>
<path d="M490.955 320.223L486.996 310.694L496.897 307.688L500.069 315.32L490.955 320.223Z" fill="white"/>
<path d="M479.163 300.391L470.964 294.117L478.043 286.561L484.605 291.585L479.163 300.391Z" fill="white"/>
<path d="M459.03 289.116L448.798 287.78L451.15 277.695L459.346 278.765L459.03 289.116Z" fill="white"/>
<path d="M435.964 289.416L426.435 293.375L423.429 283.467L431.061 280.296L435.964 289.416Z" fill="white"/>
<path d="M416.131 301.208L409.858 309.401L402.308 302.322L407.326 295.76L416.131 301.208Z" fill="white"/>
<path d="M404.857 321.335L403.521 331.567L393.443 329.216L394.513 321.02L404.857 321.335Z" fill="white"/>
<path d="M405.157 344.408L409.116 353.937L399.208 356.936L396.037 349.304L405.157 344.408Z" fill="white"/>
<path d="M416.949 364.234L425.142 370.507L418.063 378.063L411.501 373.038L416.949 364.234Z" fill="white"/>
<path d="M331.447 334.406C333.557 339.655 337.175 344.16 341.845 347.353C346.515 350.546 352.027 352.283 357.683 352.344C363.34 352.405 368.888 350.787 373.626 347.696C378.363 344.604 382.078 340.178 384.3 334.975C386.523 329.773 387.153 324.029 386.111 318.468C385.069 312.908 382.402 307.781 378.447 303.737C374.492 299.692 369.426 296.91 363.891 295.744C358.355 294.577 352.598 295.078 347.347 297.183C343.858 298.582 340.679 300.654 337.991 303.282C335.303 305.91 333.16 309.042 331.683 312.499C330.207 315.956 329.426 319.67 329.385 323.429C329.345 327.188 330.045 330.918 331.447 334.406ZM370.383 318.732C371.37 321.183 371.608 323.871 371.067 326.457C370.526 329.042 369.23 331.41 367.343 333.259C365.457 335.108 363.064 336.357 360.468 336.846C357.872 337.336 355.189 337.044 352.759 336.009C350.328 334.973 348.259 333.24 346.814 331.029C345.368 328.818 344.611 326.227 344.638 323.586C344.665 320.944 345.474 318.37 346.964 316.188C348.454 314.006 350.557 312.316 353.008 311.33C356.294 310.008 359.97 310.045 363.229 311.433C366.487 312.821 369.061 315.447 370.383 318.732Z" fill="white"/>
<path d="M330.501 328.858L334.606 339.069L327.152 341.408L323.499 332.333L330.501 328.858Z" fill="white"/>
<path d="M341.753 346.902L351.872 351.218L348.263 358.144L339.262 354.306L341.753 346.902Z" fill="white"/>
<path d="M362.47 351.705L372.681 347.593L375.02 355.047L365.945 358.7L362.47 351.705Z" fill="white"/>
<path d="M380.515 340.446L384.831 330.327L391.757 333.936L387.918 342.937L380.515 340.446Z" fill="white"/>
<path d="M385.317 319.729L381.205 309.525L388.66 307.179L392.312 316.261L385.317 319.729Z" fill="white"/>
<path d="M374.058 301.684L363.939 297.375L367.548 290.449L376.55 294.281L374.058 301.684Z" fill="white"/>
<path d="M353.342 296.882L343.131 300.993L340.791 293.539L349.873 289.887L353.342 296.882Z" fill="white"/>
<path d="M335.297 308.141L330.981 318.259L324.062 314.651L327.894 305.649L335.297 308.141Z" fill="white"/>
<path d="M380.218 393.188C376.26 391.598 371.92 391.218 367.746 392.096C363.572 392.973 359.752 395.069 356.769 398.117C353.786 401.166 351.775 405.031 350.989 409.223C350.203 413.415 350.678 417.746 352.354 421.668C354.03 425.59 356.831 428.927 360.404 431.257C363.977 433.586 368.16 434.804 372.425 434.756C376.69 434.708 380.845 433.396 384.364 430.986C387.883 428.576 390.608 425.176 392.195 421.217C394.315 415.911 394.245 409.981 392 404.727C389.755 399.473 385.518 395.323 380.218 393.188ZM365.885 428.95C362.768 427.703 360.09 425.559 358.192 422.791C356.293 420.022 355.258 416.752 355.218 413.395C355.178 410.038 356.135 406.745 357.967 403.931C359.799 401.118 362.425 398.911 365.511 397.59C368.598 396.27 372.007 395.894 375.307 396.511C378.607 397.128 381.65 398.709 384.051 401.056C386.452 403.403 388.102 406.409 388.795 409.694C389.487 412.979 389.189 416.396 387.939 419.512C386.265 423.687 383.002 427.027 378.866 428.797C374.73 430.567 370.061 430.622 365.885 428.95ZM380.218 393.188C376.26 391.598 371.92 391.218 367.746 392.096C363.572 392.973 359.752 395.069 356.769 398.117C353.786 401.166 351.775 405.031 350.989 409.223C350.203 413.415 350.678 417.746 352.354 421.668C354.03 425.59 356.831 428.927 360.404 431.257C363.977 433.586 368.16 434.804 372.425 434.756C376.69 434.708 380.845 433.396 384.364 430.986C387.883 428.576 390.608 425.176 392.195 421.217C394.315 415.911 394.245 409.981 392 404.727C389.755 399.473 385.518 395.323 380.218 393.188ZM365.885 428.95C362.768 427.703 360.09 425.559 358.192 422.791C356.293 420.022 355.258 416.752 355.218 413.395C355.178 410.038 356.135 406.745 357.967 403.931C359.799 401.118 362.425 398.911 365.511 397.59C368.598 396.27 372.007 395.894 375.307 396.511C378.607 397.128 381.65 398.709 384.051 401.056C386.452 403.403 388.102 406.409 388.795 409.694C389.487 412.979 389.189 416.396 387.939 419.512C386.265 423.687 383.002 427.027 378.866 428.797C374.73 430.567 370.061 430.622 365.885 428.95ZM385.719 379.463C379.047 376.787 371.732 376.149 364.699 377.631C357.665 379.112 351.228 382.646 346.203 387.786C341.178 392.925 337.79 399.439 336.467 406.505C335.144 413.57 335.946 420.869 338.772 427.478C341.597 434.088 346.319 439.711 352.34 443.636C358.362 447.562 365.412 449.614 372.6 449.533C379.787 449.451 386.789 447.24 392.72 443.179C398.651 439.118 403.245 433.39 405.92 426.718C409.505 417.773 409.391 407.77 405.603 398.908C401.815 390.047 394.662 383.053 385.719 379.463ZM363.407 435.131C359.067 433.395 355.339 430.411 352.695 426.556C350.051 422.701 348.61 418.148 348.554 413.474C348.498 408.8 349.83 404.214 352.381 400.296C354.932 396.379 358.587 393.306 362.884 391.467C367.182 389.627 371.928 389.104 376.523 389.962C381.118 390.821 385.356 393.023 388.699 396.29C392.042 399.558 394.341 403.743 395.305 408.317C396.269 412.891 395.855 417.648 394.115 421.987C391.778 427.795 387.233 432.44 381.477 434.904C375.721 437.368 369.223 437.45 363.407 435.131ZM380.218 393.188C376.26 391.598 371.92 391.218 367.746 392.096C363.572 392.973 359.752 395.069 356.769 398.117C353.786 401.166 351.775 405.031 350.989 409.223C350.203 413.415 350.678 417.746 352.354 421.668C354.03 425.59 356.831 428.927 360.404 431.257C363.977 433.586 368.16 434.804 372.425 434.756C376.69 434.708 380.845 433.396 384.364 430.986C387.883 428.576 390.608 425.176 392.195 421.217C394.315 415.911 394.245 409.981 392 404.727C389.755 399.473 385.518 395.323 380.218 393.188ZM365.885 428.95C362.768 427.703 360.09 425.559 358.192 422.791C356.293 420.022 355.258 416.752 355.218 413.395C355.178 410.038 356.135 406.745 357.967 403.931C359.799 401.118 362.425 398.911 365.511 397.59C368.598 396.27 372.007 395.894 375.307 396.511C378.607 397.128 381.65 398.709 384.051 401.056C386.452 403.403 388.102 406.409 388.795 409.694C389.487 412.979 389.189 416.396 387.939 419.512C386.265 423.687 383.002 427.027 378.866 428.797C374.73 430.567 370.061 430.622 365.885 428.95Z" fill="white"/>
<path d="M389.436 381.667L381.713 378.571L385.573 371.167L391.759 373.646L389.436 381.667Z" fill="white"/>
<path d="M371.358 377.268L363.122 378.449L362.765 370.115L369.362 369.169L371.358 377.268Z" fill="white"/>
<path d="M353.507 382.507L346.965 387.647L342.484 380.603L347.724 376.486L353.507 382.507Z" fill="white"/>
<path d="M340.666 395.964L337.571 403.687L330.166 399.828L332.646 393.641L340.666 395.964Z" fill="white"/>
<path d="M336.27 414.037L337.451 422.273L329.115 422.635L328.169 416.039L336.27 414.037Z" fill="white"/>
<path d="M341.501 431.891L346.647 438.435L339.602 442.917L335.485 437.676L341.501 431.891Z" fill="white"/>
<path d="M354.964 444.734L362.687 447.83L358.827 455.234L352.641 452.755L354.964 444.734Z" fill="white"/>
<path d="M373.039 449.126L381.275 447.945L381.635 456.286L375.038 457.232L373.039 449.126Z" fill="white"/>
<path d="M390.892 443.894L397.435 438.754L401.911 445.796L396.676 449.915L390.892 443.894Z" fill="white"/>
<path d="M403.734 430.437L406.829 422.714L414.229 426.571L411.749 432.757L403.734 430.437Z" fill="white"/>
<path d="M408.127 412.357L406.946 404.121L415.285 403.766L416.231 410.362L408.127 412.357Z" fill="white"/>
<path d="M402.894 394.508L397.753 387.966L404.798 383.484L408.915 388.724L402.894 394.508Z" fill="white"/>
<path d="M463.687 434.952C463.092 430.429 461.17 426.185 458.163 422.754C455.157 419.324 451.2 416.862 446.795 415.68C442.389 414.498 437.732 414.649 433.412 416.113C429.092 417.577 425.303 420.289 422.524 423.906C419.745 427.524 418.101 431.884 417.799 436.435C417.498 440.987 418.553 445.525 420.83 449.477C423.108 453.43 426.506 456.618 430.595 458.639C434.684 460.66 439.281 461.424 443.804 460.833C446.809 460.44 449.708 459.459 452.334 457.946C454.96 456.433 457.263 454.417 459.109 452.013C460.956 449.609 462.31 446.865 463.096 443.938C463.882 441.01 464.082 437.957 463.687 434.952ZM430.135 439.383C429.856 437.272 430.209 435.124 431.15 433.213C432.092 431.303 433.578 429.714 435.423 428.648C437.267 427.582 439.386 427.087 441.512 427.225C443.637 427.364 445.674 428.129 447.365 429.425C449.055 430.722 450.323 432.49 451.009 434.507C451.694 436.524 451.766 438.698 451.215 440.756C450.665 442.814 449.516 444.662 447.915 446.067C446.314 447.472 444.332 448.371 442.22 448.649C439.389 449.023 436.525 448.256 434.259 446.519C431.993 444.781 430.509 442.215 430.135 439.383Z" fill="white"/>
<path d="M463.313 439.474L462.155 430.676L468.446 430.345L469.479 438.164L463.313 439.474Z" fill="white"/>
<path d="M458.144 423.125L451.107 417.725L455.315 413.039L461.575 417.843L458.144 423.125Z" fill="white"/>
<path d="M442.928 415.219L434.129 416.382L433.797 410.092L441.617 409.059L442.928 415.219Z" fill="white"/>
<path d="M426.577 420.393L421.177 427.43L416.492 423.222L421.295 416.963L426.577 420.393Z" fill="white"/>
<path d="M418.672 435.609L419.837 444.404L413.544 444.741L412.514 436.916L418.672 435.609Z" fill="white"/>
<path d="M423.846 451.96L430.885 457.355L426.677 462.041L420.415 457.242L423.846 451.96Z" fill="white"/>
<path d="M439.062 459.866L447.861 458.703L448.193 464.994L440.368 466.024L439.062 459.866Z" fill="white"/>
<path d="M455.413 454.692L460.813 447.655L465.493 451.861L460.695 458.122L455.413 454.692Z" fill="white"/>
</svg>
