<svg width="726" height="659" viewBox="0 0 726 659" fill="none" xmlns="http://www.w3.org/2000/svg">
<path d="M482.33 642.165C347.755 642.165 238.661 633.299 238.661 622.362C238.661 611.425 347.755 602.56 482.33 602.56C616.905 602.56 726 611.425 726 622.362C726 633.299 616.905 642.165 482.33 642.165Z" fill="#EBEBEB"/>
<path d="M287.009 482.315C277.694 475.123 266.456 470.855 254.715 470.05C242.975 469.246 231.259 471.941 221.051 477.795C210.842 483.649 202.599 492.399 197.363 502.939C192.128 513.478 190.135 525.333 191.638 537.005C193.141 548.677 198.071 559.641 205.805 568.51C213.54 577.38 223.731 583.757 235.089 586.834C246.448 589.911 258.464 589.551 269.618 585.799C280.772 582.047 290.562 575.071 297.751 565.754C307.389 553.264 311.671 537.457 309.657 521.81C307.642 506.163 299.496 491.957 287.009 482.315ZM267.64 507.416C271.995 510.772 275.257 515.343 277.013 520.553C278.769 525.762 278.941 531.375 277.506 536.682C276.072 541.989 273.096 546.752 268.954 550.367C264.813 553.982 259.692 556.288 254.24 556.993C248.788 557.698 243.249 556.77 238.325 554.326C233.4 551.883 229.311 548.034 226.574 543.266C223.838 538.498 222.576 533.025 222.95 527.541C223.324 522.056 225.316 516.805 228.675 512.453C230.9 509.556 233.675 507.127 236.84 505.304C240.006 503.481 243.499 502.299 247.121 501.827C250.744 501.355 254.423 501.602 257.95 502.553C261.477 503.505 264.781 505.142 267.675 507.372L267.64 507.416Z" fill="#EBEBEB"/>
<path d="M302.793 555.197L288.83 573.293L302.405 582.192L314.832 566.086L302.793 555.197Z" fill="#EBEBEB"/>
<path d="M270.099 584.941L247.415 587.879L250.745 603.772L270.924 601.171L270.099 584.941Z" fill="#EBEBEB"/>
<path d="M225.933 582.884L207.822 568.909L198.923 582.484L215.044 594.923L225.933 582.884Z" fill="#EBEBEB"/>
<path d="M196.174 550.179L193.236 527.495L177.354 530.809L179.955 550.989L196.174 550.179Z" fill="#EBEBEB"/>
<path d="M198.242 505.997L212.217 487.886L198.631 479.003L186.204 495.108L198.242 505.997Z" fill="#EBEBEB"/>
<path d="M230.948 476.238L253.635 473.327L250.306 457.433L230.126 460.035L230.948 476.238Z" fill="#EBEBEB"/>
<path d="M275.118 478.322L293.229 492.297L302.112 478.71L286.007 466.283L275.118 478.322Z" fill="#EBEBEB"/>
<path d="M304.876 511.027L307.799 533.7L323.697 530.397L321.095 510.217L304.876 511.027Z" fill="#EBEBEB"/>
<path d="M253.09 548.247L268.196 536.716L265.777 517.847L248.27 510.547L233.175 522.063L235.591 540.905L253.09 548.247ZM245.903 525.746C246.629 524.805 247.618 524.1 248.745 523.721C249.872 523.342 251.086 523.305 252.234 523.616C253.382 523.927 254.412 524.571 255.193 525.467C255.975 526.364 256.473 527.471 256.625 528.651C256.777 529.83 256.576 531.028 256.047 532.093C255.519 533.158 254.686 534.042 253.654 534.634C252.623 535.226 251.439 535.498 250.253 535.417C249.067 535.336 247.931 534.905 246.99 534.179C245.727 533.205 244.904 531.769 244.7 530.188C244.496 528.606 244.929 527.009 245.903 525.746Z" fill="#EBEBEB"/>
<path d="M260.287 289.141C251.022 281.997 239.846 277.76 228.173 276.967C216.5 276.174 204.854 278.861 194.707 284.687C184.561 290.512 176.37 299.216 171.17 309.697C165.971 320.178 163.996 331.966 165.495 343.57C166.995 355.173 171.902 366.071 179.595 374.886C187.288 383.701 197.423 390.036 208.717 393.091C220.011 396.146 231.957 395.784 243.045 392.049C254.133 388.315 263.865 381.376 271.01 372.111C280.57 359.679 284.811 343.963 282.801 328.409C280.791 312.856 272.694 298.734 260.287 289.141ZM252.595 299.11C259.893 304.737 265.359 312.402 268.3 321.136C271.241 329.87 271.525 339.28 269.117 348.176C266.709 357.072 261.716 365.053 254.77 371.11C247.825 377.168 239.239 381.029 230.098 382.205C220.958 383.382 211.674 381.82 203.421 377.719C195.168 373.618 188.317 367.161 183.735 359.165C179.152 351.169 177.045 341.994 177.678 332.8C178.312 323.606 181.658 314.806 187.294 307.515C194.841 297.75 205.958 291.382 218.199 289.812C230.44 288.241 242.804 291.597 252.572 299.14L252.595 299.11ZM260.287 289.141C251.022 281.997 239.846 277.76 228.173 276.967C216.5 276.174 204.854 278.861 194.707 284.687C184.561 290.512 176.37 299.216 171.17 309.697C165.971 320.178 163.996 331.966 165.495 343.57C166.995 355.173 171.902 366.071 179.595 374.886C187.288 383.701 197.423 390.036 208.717 393.091C220.011 396.146 231.957 395.784 243.045 392.049C254.133 388.315 263.865 381.376 271.01 372.111C280.57 359.679 284.811 343.963 282.801 328.409C280.791 312.856 272.694 298.734 260.287 289.141ZM252.595 299.11C259.893 304.737 265.359 312.402 268.3 321.136C271.241 329.87 271.525 339.28 269.117 348.176C266.709 357.072 261.716 365.053 254.77 371.11C247.825 377.168 239.239 381.029 230.098 382.205C220.958 383.382 211.674 381.82 203.421 377.719C195.168 373.618 188.317 367.161 183.735 359.165C179.152 351.169 177.045 341.994 177.678 332.8C178.312 323.606 181.658 314.806 187.294 307.515C194.841 297.75 205.958 291.382 218.199 289.812C230.44 288.241 242.804 291.597 252.572 299.14L252.595 299.11ZM285.072 257.02C269.449 244.989 250.609 237.859 230.934 236.532C211.259 235.205 191.633 239.74 174.535 249.566C157.437 259.391 143.636 274.064 134.876 291.731C126.116 309.398 122.79 329.265 125.319 348.822C127.847 368.378 136.117 386.746 149.082 401.604C162.048 416.462 179.127 427.143 198.161 432.296C217.196 437.449 237.33 436.844 256.021 430.557C274.711 424.269 291.118 412.582 303.167 396.972C311.172 386.598 317.054 374.748 320.476 362.099C323.898 349.45 324.793 336.251 323.11 323.256C321.428 310.261 317.2 297.725 310.669 286.365C304.138 275.005 295.432 265.043 285.049 257.05L285.072 257.02ZM263.752 284.651C273.91 292.485 281.517 303.155 285.61 315.313C289.702 327.47 290.097 340.568 286.745 352.95C283.392 365.332 276.443 376.442 266.775 384.874C257.107 393.305 245.156 398.68 232.433 400.318C219.711 401.957 206.788 399.784 195.299 394.077C183.811 388.369 174.274 379.383 167.894 368.254C161.514 357.125 158.578 344.354 159.458 331.556C160.337 318.758 164.993 306.509 172.835 296.358C183.356 282.773 198.833 273.912 215.874 271.718C232.916 269.523 250.133 274.174 263.752 284.651ZM260.287 289.141C251.022 281.997 239.846 277.76 228.173 276.967C216.5 276.174 204.854 278.861 194.707 284.687C184.561 290.512 176.37 299.216 171.17 309.697C165.971 320.178 163.996 331.966 165.495 343.57C166.995 355.173 171.902 366.071 179.595 374.886C187.288 383.701 197.423 390.036 208.717 393.091C220.011 396.146 231.957 395.784 243.045 392.049C254.133 388.315 263.865 381.376 271.01 372.111C280.57 359.679 284.811 343.963 282.801 328.409C280.791 312.856 272.694 298.734 260.287 289.141ZM252.595 299.11C259.893 304.737 265.359 312.402 268.3 321.136C271.241 329.87 271.525 339.28 269.117 348.176C266.709 357.072 261.716 365.053 254.77 371.11C247.825 377.168 239.239 381.029 230.098 382.205C220.958 383.382 211.674 381.82 203.421 377.719C195.168 373.618 188.317 367.161 183.735 359.165C179.152 351.169 177.045 341.994 177.678 332.8C178.312 323.606 181.658 314.806 187.294 307.515C194.841 297.75 205.958 291.382 218.199 289.812C230.44 288.241 242.804 291.597 252.572 299.14L252.595 299.11Z" fill="#FF5A36"/>
<path d="M308.883 386.625L294.931 404.706L314.365 416.812L325.533 402.338L308.883 386.625Z" fill="#FF5A36"/>
<path d="M272.249 422.188L251.142 430.88L261.915 451.084L278.811 444.135L272.249 422.188Z" fill="#FF5A36"/>
<path d="M222.759 434.673L200.127 431.633L199.344 454.527L217.466 456.976L222.759 434.673Z" fill="#FF5A36"/>
<path d="M173.639 420.746L155.558 406.795L143.44 426.243L157.914 437.412L173.639 420.746Z" fill="#FF5A36"/>
<path d="M138.065 384.127L129.384 363.006L109.18 373.778L116.118 390.69L138.065 384.127Z" fill="#FF5A36"/>
<path d="M125.579 334.637L128.619 312.005L105.725 311.223L103.288 329.329L125.579 334.637Z" fill="#FF5A36"/>
<path d="M139.506 285.517L153.458 267.436L134.02 255.304L122.841 269.792L139.506 285.517Z" fill="#FF5A36"/>
<path d="M176.125 249.943L197.247 241.263L186.485 221.043L169.562 227.996L176.125 249.943Z" fill="#FF5A36"/>
<path d="M225.626 237.442L248.259 240.483L249.041 217.589L230.923 215.166L225.626 237.442Z" fill="#FF5A36"/>
<path d="M274.747 251.369L292.828 265.321L304.949 245.899L290.475 234.73L274.747 251.369Z" fill="#FF5A36"/>
<path d="M310.309 288.004L318.99 309.125L339.221 298.349L332.256 281.441L310.309 288.004Z" fill="#FF5A36"/>
<path d="M322.81 337.505L319.77 360.137L342.664 360.919L345.098 342.786L322.81 337.505Z" fill="#FF5A36"/>
<path d="M448.301 191.336C437.762 182.752 424.914 177.485 411.382 176.203C397.85 174.921 384.242 177.68 372.279 184.132C360.315 190.584 350.534 200.439 344.171 212.45C337.808 224.462 335.151 238.09 336.534 251.612C337.917 265.134 343.278 277.942 351.941 288.416C360.603 298.891 372.177 306.561 385.199 310.458C398.221 314.354 412.106 314.301 425.098 310.306C438.091 306.311 449.606 298.553 458.189 288.013C469.697 273.881 475.12 255.757 473.265 237.627C471.411 219.497 462.431 202.846 448.301 191.336ZM425.166 219.74C430.102 223.75 433.738 229.136 435.612 235.214C437.486 241.292 437.515 247.79 435.694 253.884C433.874 259.978 430.286 265.396 425.385 269.45C420.483 273.504 414.49 276.012 408.162 276.658C401.834 277.304 395.457 276.057 389.838 273.077C384.219 270.096 379.611 265.516 376.597 259.915C373.583 254.314 372.299 247.944 372.906 241.613C373.514 235.281 375.987 229.273 380.012 224.347C385.396 217.759 393.172 213.574 401.636 212.71C410.101 211.847 418.562 214.375 425.166 219.74Z" fill="#EBEBEB"/>
<path d="M464.321 275.981L447.632 296.464L463.055 307.146L477.904 288.922L464.321 275.981Z" fill="#EBEBEB"/>
<path d="M425.652 309.353L399.349 312.029L402.7 330.495L426.102 328.112L425.652 309.353Z" fill="#EBEBEB"/>
<path d="M374.702 305.596L354.207 288.923L343.525 304.345L361.761 319.18L374.702 305.596Z" fill="#EBEBEB"/>
<path d="M341.33 266.927L338.642 240.639L320.192 244.001L322.571 267.377L341.33 266.927Z" fill="#EBEBEB"/>
<path d="M345.075 215.992L361.764 195.509L346.342 184.827L331.492 203.051L345.075 215.992Z" fill="#EBEBEB"/>
<path d="M383.745 182.62L410.033 179.932L406.682 161.467L383.294 163.862L383.745 182.62Z" fill="#EBEBEB"/>
<path d="M434.68 186.366L455.162 203.054L465.856 187.617L447.621 172.782L434.68 186.366Z" fill="#EBEBEB"/>
<path d="M468.051 225.035L470.739 251.323L489.205 247.972L486.81 224.585L468.051 225.035Z" fill="#EBEBEB"/>
<path d="M407.084 269.355L426.123 255.605L423.705 232.248L402.289 222.648L383.235 236.386L385.638 259.732L407.084 269.355ZM398.922 241.279C399.854 240.139 401.103 239.301 402.511 238.871C403.919 238.44 405.422 238.437 406.832 238.86C408.242 239.284 409.495 240.116 410.432 241.251C411.37 242.387 411.95 243.774 412.099 245.239C412.248 246.703 411.96 248.179 411.271 249.48C410.582 250.781 409.523 251.849 408.228 252.549C406.932 253.248 405.459 253.548 403.993 253.41C402.527 253.273 401.135 252.704 399.992 251.776C399.229 251.159 398.596 250.398 398.129 249.535C397.661 248.673 397.37 247.726 397.27 246.75C397.171 245.775 397.266 244.789 397.549 243.85C397.833 242.91 398.299 242.037 398.922 241.279Z" fill="#EBEBEB"/>
<path d="M563.455 266.752C556.837 292.003 548.214 308.49 542.432 314.196C528.579 327.869 498.74 330.901 481.958 337.866C476.496 340.141 461.397 305.496 466.987 302.463C471.112 300.215 519.018 294.149 523.092 292.903C525.186 292.26 541.082 271.558 550.078 259.916C564.573 241.257 567.079 252.964 563.455 266.752Z" fill="#FFCAC4"/>
<path d="M455.73 342.724C458.3 342.66 458.39 344.009 454.805 346.977C451.219 349.946 434.527 358.543 438.035 364.133C441.543 369.723 464.918 357.181 470.508 351.809C476.098 346.438 483.281 335.797 483.281 335.797C478.231 337.327 465.625 339.858 455.73 342.724Z" fill="#FFCAC4"/>
<path d="M471.022 301.371C446.144 305.226 436.249 310.097 425.352 322.818C424.107 324.193 423.357 325.943 423.218 327.792C418.232 333.394 419.363 337.442 419.363 337.442C416.331 344.086 418.078 348.057 418.078 348.057C418.078 348.057 412.295 354.7 415.739 358.864C419.595 363.541 426.945 353.287 434.437 350.126C451.618 342.865 478.128 337.365 483.268 335.772L471.022 301.371Z" fill="#FFCAC4"/>
<path d="M447.146 329.899C442.09 331.957 437.182 334.361 432.458 337.095C427.477 340.403 422.752 344.08 418.322 348.095C418.292 348.113 418.257 348.119 418.223 348.114C418.189 348.109 418.157 348.093 418.133 348.067C418.11 348.042 418.095 348.009 418.092 347.975C418.089 347.94 418.098 347.906 418.117 347.877C425.912 339.276 435.917 332.978 447.043 329.668C447.3 329.591 447.403 329.783 447.146 329.899Z" fill="#263238"/>
<path d="M444.28 318.886C439.513 321.328 431.186 325.684 419.53 337.584C419.53 337.584 419.415 337.584 419.453 337.584C425.779 329.12 434.335 322.583 444.165 318.706C444.473 318.526 444.589 318.719 444.28 318.886Z" fill="#263238"/>
<path d="M442.622 313.001C434.694 317.473 430.26 321.289 423.283 327.817C423.283 327.817 423.18 327.817 423.218 327.753C430.35 319.503 433.871 317.319 442.494 312.705C442.802 312.551 442.931 312.821 442.622 313.001Z" fill="#263238"/>
<path d="M535.235 278.202L558.148 299.675C558.148 299.675 567.4 266.367 567.336 255.829C567.336 243.943 561.219 246.564 553.2 254.544C545.182 262.524 535.235 278.202 535.235 278.202Z" fill="#FF5A36"/>
<path opacity="0.1" d="M535.235 278.202L558.148 299.675C558.148 299.675 567.4 266.367 567.336 255.829C567.336 243.943 561.219 246.564 553.2 254.544C545.182 262.524 535.235 278.202 535.235 278.202Z" fill="black"/>
<path d="M539.926 274.809C543.216 277.148 552.095 285.552 553.586 286.927C554.37 287.66 557.351 290.68 558.135 291.399C558.238 291.489 558.135 291.631 557.981 291.541C556.477 290.178 554.832 288.971 553.329 287.596C551.825 286.221 542.47 278.009 539.823 274.925C539.759 274.861 539.849 274.758 539.926 274.809Z" fill="#263238"/>
<path d="M413.812 535.879C416.922 536.894 506.463 533.308 509.817 531.137C510.229 530.893 511.822 513.673 511.822 513.673L501.465 447.506L442.674 448.29L454.021 504.832C454.021 504.832 441.068 510.795 430.389 515.999C423.809 519.186 418.091 522.103 416.78 523.17C413.336 525.92 410.689 534.876 413.812 535.879Z" fill="#FFCAC4"/>
<path d="M413.799 535.879C416.909 536.894 506.476 533.308 509.817 531.15C510.216 530.893 511.835 513.673 511.835 513.673L508.635 493.292L452.235 495.862L454.059 504.781C454.059 504.781 441.119 510.743 430.427 515.935C423.848 519.122 418.13 522.039 416.819 523.105C413.349 525.932 410.702 534.889 413.799 535.879Z" fill="#EBEBEB"/>
<path d="M413.85 535.968C417.024 536.958 507.157 534.863 510.537 532.602C511.822 531.766 512.297 518.608 512.4 502.699V502.21L454.226 502.917V503.894C454.226 503.894 420.083 520.137 416.626 523.015C413.169 525.894 410.676 535.018 413.85 535.968Z" fill="#C7C7C7"/>
<path d="M418.991 536.226C438.716 536.431 507.658 534.581 510.537 532.615C511.822 531.779 512.297 518.62 512.4 502.712V502.223L475.969 502.66L418.991 536.226Z" fill="#A6A6A6"/>
<path d="M414.788 532.473C429.978 531.741 491.3 530.237 506.361 530.674C506.489 530.674 506.489 530.764 506.361 530.777C491.326 531.818 430.003 532.82 414.801 532.717C414.48 532.717 414.467 532.486 414.788 532.473Z" fill="#263238"/>
<path d="M449.395 504.202C455.344 502.917 462.682 503.688 467.385 507.852C467.565 508.006 467.385 508.263 467.141 508.199C461.384 506.49 455.46 505.405 449.472 504.96C449.38 504.956 449.292 504.918 449.226 504.855C449.159 504.791 449.117 504.706 449.108 504.614C449.099 504.523 449.122 504.431 449.175 504.355C449.228 504.28 449.305 504.225 449.395 504.202Z" fill="#263238"/>
<path d="M445.141 506.901C451.091 505.616 458.428 506.4 463.132 510.55C463.312 510.705 463.132 510.962 462.888 510.91C457.117 509.208 451.18 508.131 445.18 507.698C445.074 507.703 444.971 507.666 444.892 507.595C444.814 507.523 444.767 507.424 444.762 507.318C444.757 507.213 444.794 507.109 444.865 507.031C444.936 506.953 445.036 506.906 445.141 506.901Z" fill="#263238"/>
<path d="M440.888 509.599C446.837 508.314 454.175 509.098 458.878 513.249C459.058 513.416 458.878 513.66 458.634 513.609C452.877 511.897 446.954 510.807 440.965 510.358C440.873 510.353 440.785 510.315 440.719 510.252C440.652 510.188 440.61 510.103 440.601 510.012C440.592 509.92 440.615 509.828 440.668 509.752C440.721 509.677 440.798 509.623 440.888 509.599Z" fill="#263238"/>
<path d="M449.086 496.273L514.713 493.292C514.713 493.292 492.032 401.193 494.448 398.199C497.018 394.986 592.034 418.76 611.027 395.192C630.483 371.046 620.729 336.286 620.729 336.286H555.925C555.925 336.286 557.21 344.985 556.336 349.136C556.336 349.136 465.098 335.181 445.257 345.692C441.402 347.761 427.266 359.378 427.035 370.391C425.788 419.03 449.086 496.273 449.086 496.273Z" fill="#455A64"/>
<path d="M448.431 484.387C456.218 483.41 464.018 482.819 471.844 482.228C479.67 481.637 487.496 481.174 495.322 480.879C499.743 480.699 504.163 480.737 508.584 480.583C508.606 480.591 508.626 480.606 508.64 480.625C508.654 480.645 508.661 480.668 508.661 480.692C508.661 480.716 508.654 480.74 508.64 480.759C508.626 480.779 508.606 480.794 508.584 480.802C504.651 481.084 500.732 481.585 496.8 481.894L485.157 482.742C477.331 483.256 469.506 483.693 461.68 484.168C457.272 484.438 452.864 484.58 448.444 484.682C448.411 484.674 448.383 484.656 448.361 484.63C448.34 484.605 448.328 484.573 448.327 484.539C448.325 484.506 448.335 484.473 448.353 484.446C448.372 484.418 448.399 484.398 448.431 484.387Z" fill="#263238"/>
<path d="M484.335 391.658C496.941 392.069 509.483 393.162 522.025 394.395C534.567 395.629 547.186 396.965 559.831 397.788C566.102 398.186 572.399 398.443 578.696 398.482C583.926 398.706 589.16 398.161 594.232 396.863C599.267 395.391 603.57 392.091 606.298 387.61C609.041 383.069 610.837 378.021 611.58 372.768C613.238 362.141 611.58 351.282 609.639 340.796C609.395 339.511 609.151 338.226 608.92 336.838C608.92 336.723 609.087 336.671 609.125 336.838C611.695 347.414 614.099 358.299 613.327 369.221C613.012 374.581 611.705 379.836 609.472 384.719C607.458 389.463 603.995 393.449 599.578 396.104C595.067 398.675 589.734 399.433 584.555 399.69C578.516 399.998 572.399 399.69 566.359 399.42C553.432 398.79 540.556 397.454 527.705 396.117C514.855 394.781 502.069 393.47 489.154 392.828C487.727 392.75 486.301 392.699 484.875 392.648C486.828 404.213 503.366 473.066 504.292 478.514C504.382 479.054 503.868 479.221 503.726 478.668C500.899 467.938 484.849 398.996 483.782 392.262C483.765 392.184 483.767 392.102 483.788 392.025C483.809 391.948 483.848 391.876 483.902 391.817C483.956 391.758 484.024 391.713 484.099 391.685C484.175 391.657 484.255 391.648 484.335 391.658Z" fill="#263238"/>
<path d="M433.743 538.564H573.992V554.075H433.743V538.564Z" fill="#FF5A36"/>
<path d="M697.241 402.491H689.286L637.885 461.295H645.839L697.241 402.491Z" fill="#A6A6A6"/>
<path d="M597.059 397.826H707.598V402.478H597.059V397.826Z" fill="#A6A6A6"/>
<path d="M667.248 402.491H659.293L607.892 461.295H615.846L667.248 402.491Z" fill="#A6A6A6"/>
<path d="M616.103 510.897C576.164 510.897 553.02 538.641 553.02 571.294C553.02 603.947 574.455 631.062 613.405 631.062C656.505 631.062 677.091 596.777 677.091 570.999C677.091 545.221 656.531 510.897 616.103 510.897Z" fill="#37474F"/>
<path d="M622.246 510.897C584.273 510.897 562.286 538.641 562.286 571.294C562.286 603.947 582.654 631.062 619.701 631.062C660.681 631.062 680.227 596.725 680.227 570.947C680.227 545.169 660.681 510.897 622.246 510.897Z" fill="#263238"/>
<path d="M621.86 534.349C598.729 534.349 585.326 551.26 585.326 571.153C585.326 591.045 597.74 607.558 620.305 607.558C645.286 607.558 657.212 586.663 657.212 570.947C657.212 555.231 645.286 534.349 621.86 534.349Z" fill="#C7C7C7"/>
<path d="M503.045 437.688V432.433L637.448 436.763V448.586C637.448 448.586 676.372 491.57 680.304 536.251L545.529 539.104L523.876 538.564H497.288V511.553C497.288 511.553 517.386 496.903 513.865 466.975C512.696 457.041 503.045 437.688 503.045 437.688Z" fill="#FF5A36"/>
<path d="M558.084 532.846C559.484 535.416 579.929 539.104 618.686 540.145C653.575 541.083 679.636 540.312 681.653 538.063C683.671 535.814 678.531 496.042 654.912 474.505C631.292 452.968 597.856 449.871 575.804 462.721C556.413 473.991 541.943 502.635 558.084 532.846Z" fill="#FF5A36"/>
<path opacity="0.1" d="M551.504 495.194C553.576 485.776 558.355 477.169 565.254 470.431C572.17 463.502 580.805 458.539 590.274 456.052C600.836 453.415 611.898 453.535 622.4 456.399C627.656 457.777 632.739 459.747 637.551 462.271C642.631 465.001 647.419 468.244 651.84 471.948C653.022 472.924 654.218 473.901 655.387 474.903C655.49 474.98 655.387 475.122 655.233 475.045C650.785 471.133 645.969 467.66 640.853 464.674C636.185 462.008 631.232 459.875 626.088 458.313C615.889 455.124 605.058 454.514 594.566 456.54C585.083 458.446 576.294 462.887 569.135 469.39C562.236 475.601 557.162 483.576 554.46 492.457C551.247 503.277 552.301 515.189 555.501 525.868C555.925 527.307 556.387 528.721 556.863 530.134C556.863 530.289 556.683 530.34 556.631 530.199C552.314 519.109 549.088 507.158 551.504 495.194Z" fill="black"/>
<path d="M644.927 544.244C668.327 544.244 680.715 543.525 686.999 541.032L684.082 533.694C676.731 536.611 653.716 536.56 616.681 536.136C589.323 535.814 569.135 533.231 556.541 528.425L553.727 535.801C567.349 540.942 587.909 543.666 616.591 544C627.476 544.154 636.857 544.244 644.927 544.244Z" fill="#DBDBDB"/>
<path d="M500.835 435.889C500.835 435.889 499.935 406.488 500.835 405.331C501.734 404.175 637.795 401.72 641.868 402.08C645.942 402.44 646.353 436.776 646.045 438.382C645.736 439.989 504.382 436.198 500.835 435.889Z" fill="#37474F"/>
<path d="M488.087 405.922C488.486 405.46 505.731 404.971 506.682 404.946C507.633 404.92 507.967 436.262 507.453 436.236C506.939 436.211 488.717 436.468 488.113 435.799C487.509 435.131 487.226 406.925 488.087 405.922Z" fill="#455A64"/>
<path d="M583.386 402.106C583.873 402.614 584.192 403.26 584.298 403.956C584.46 404.689 584.576 405.432 584.645 406.179C584.812 407.67 584.902 409.186 584.979 410.69C585.108 413.722 585.185 416.768 585.236 419.826C585.288 422.885 585.365 425.917 585.236 428.937C585.225 430.433 585.122 431.926 584.928 433.409C584.851 434.126 584.682 434.83 584.427 435.504C584.333 435.806 584.167 436.081 583.943 436.305C583.719 436.529 583.444 436.695 583.142 436.789C583.481 436.779 583.81 436.672 584.09 436.481C584.37 436.289 584.59 436.022 584.722 435.71C585.082 435.037 585.362 434.326 585.558 433.589C585.921 432.082 586.158 430.548 586.264 429.002C586.502 425.924 586.579 422.835 586.496 419.749C586.419 416.678 586.29 413.594 585.943 410.523C585.776 408.986 585.532 407.46 585.211 405.948C585.031 405.2 584.813 404.462 584.555 403.738C584.35 403.108 583.99 402.324 583.386 402.106Z" fill="#455A64"/>
<path d="M702.484 397.762H573.992V317.884H702.484V397.762Z" fill="#37474F"/>
<path d="M702.484 397.762H609.652V317.884H702.484V397.762Z" fill="#263238"/>
<path d="M651.069 317.871H661.054V397.749H651.069V317.871Z" fill="#FF5A36"/>
<path d="M609.639 310.482H705.092V317.871H609.639V310.482Z" fill="#37474F"/>
<path d="M571.114 310.482H609.652V317.871H571.114V310.482Z" fill="#263238"/>
<path d="M650.234 310.482H661.902V317.871H650.234V310.482Z" fill="#FF5A36"/>
<path d="M688.875 310.816H595.08V252.501H688.875V310.816Z" fill="#37474F"/>
<path d="M688.875 310.816H621.115V252.501H688.875V310.816Z" fill="#263238"/>
<path d="M651.352 252.514H658.638V310.829H651.352V252.514Z" fill="#FF5A36"/>
<path d="M621.115 247.117H690.79V252.514H621.115V247.117Z" fill="#37474F"/>
<path d="M592.985 247.117H621.115V252.514H592.985V247.117Z" fill="#263238"/>
<path d="M650.735 247.117H659.255V252.514H650.735V247.117Z" fill="#FF5A36"/>
<path d="M322.754 510.409C282.802 510.409 259.671 538.153 259.671 570.806C259.671 603.459 281.105 630.535 320.068 630.535C363.181 630.535 383.767 596.25 383.767 570.485C383.767 544.72 363.181 510.409 322.754 510.409Z" fill="#37474F"/>
<path d="M328.896 510.409C290.923 510.409 268.923 538.153 268.923 570.806C268.923 603.459 289.304 630.535 326.339 630.535C367.319 630.535 386.89 596.25 386.89 570.485C386.89 544.72 367.319 510.409 328.896 510.409Z" fill="#263238"/>
<path d="M328.511 533.861C305.38 533.861 291.964 550.772 291.964 570.665C291.964 590.557 304.378 607.07 326.956 607.07C351.924 607.07 363.849 586.175 363.849 570.472C363.849 554.769 351.924 533.861 328.511 533.861Z" fill="#C7C7C7"/>
<path d="M387.379 374.002H403.095L413.863 358.196H395.449L387.379 374.002Z" fill="#FF5A36"/>
<path d="M413.863 358.196L407.554 367.448L403.095 374.002H387.379L391.632 365.675L395.461 358.196H413.863Z" fill="#FF5A36"/>
<path opacity="0.1" d="M413.863 358.196L407.554 367.448L391.632 365.675L395.461 358.196H413.863Z" fill="black"/>
<path d="M349.187 491.956L364.492 495.477L378.524 482.472L360.585 478.36L349.187 491.956Z" fill="#FF5A36"/>
<path d="M378.524 482.472L370.313 490.092L364.505 495.477L349.174 491.956L355.188 484.798L360.585 478.36L378.524 482.472Z" fill="#FF5A36"/>
<path opacity="0.1" d="M378.524 482.472L370.313 490.092L355.188 484.798L360.585 478.36L378.524 482.472Z" fill="black"/>
<path d="M263.141 518.119L278.009 525.932C278.009 525.932 321.07 518.119 348.686 524.03C376.301 529.942 383.755 544.694 383.755 544.694H397.71C397.71 544.694 385.734 502.146 365.417 486.7C345.101 471.254 312.448 474.71 294.393 484.438C276.338 494.166 263.141 518.119 263.141 518.119Z" fill="#FF5A36"/>
<path opacity="0.1" d="M279.576 522.99C282.456 519.982 285.577 517.215 288.906 514.714C292.205 512.15 295.693 509.839 299.34 507.8C306.411 503.871 314.165 501.324 322.188 500.296C337.892 498.368 354.314 502.943 365.88 515.009C372.382 521.846 377.008 530.237 381.403 538.706C381.467 538.834 381.287 538.937 381.223 538.808C377.5 531.363 372.798 524.448 367.242 518.248C361.889 512.403 355.225 507.911 347.799 505.14C332.983 499.705 316.958 501.786 302.72 508.353C298.643 510.201 294.708 512.348 290.949 514.778C287.104 517.367 283.394 520.151 279.833 523.118C279.81 523.139 279.781 523.152 279.751 523.157C279.72 523.161 279.689 523.156 279.661 523.142C279.633 523.128 279.61 523.106 279.595 523.079C279.58 523.052 279.573 523.02 279.576 522.99Z" fill="black"/>
<path d="M442.969 365.495C443.201 366.034 474.235 371.74 474.235 371.74C474.235 371.74 479.375 368.27 476.201 363.876L445.064 357.155C443.867 358.137 443.017 359.477 442.64 360.979C442.263 362.481 442.379 364.064 442.969 365.495Z" fill="#263238"/>
<path d="M377.831 325.376V362.192C377.831 362.192 397.71 360.457 403.005 360.277C408.299 360.098 431.828 363.143 431.828 363.143L433.653 354.893C433.653 354.893 415.508 348.558 407.798 343.61C400.088 338.663 391.208 329.205 386.44 327.111C383.742 325.877 380.796 325.284 377.831 325.376Z" fill="#FF5A36"/>
<path d="M431.751 353.852C430.569 355.068 429.678 356.535 429.143 358.144C428.609 359.753 428.446 361.462 428.667 363.143C428.667 363.143 443.483 365.855 443.663 365.855C443.54 364.111 443.963 362.373 444.872 360.881C445.782 359.389 447.133 358.217 448.739 357.528L431.751 353.852Z" fill="#DBDBDB"/>
<path d="M377.638 362.192C372.258 362.192 367.897 353.953 367.897 343.79C367.897 333.627 372.258 325.389 377.638 325.389C383.017 325.389 387.378 333.627 387.378 343.79C387.378 353.953 383.017 362.192 377.638 362.192Z" fill="#DBDBDB"/>
<path d="M377.034 360.213C372.428 360.213 368.694 352.86 368.694 343.79C368.694 334.72 372.428 327.368 377.034 327.368C381.64 327.368 385.374 334.72 385.374 343.79C385.374 352.86 381.64 360.213 377.034 360.213Z" fill="white"/>
<path d="M374.502 374.053C371.264 378.795 358.298 443.278 355.754 446.517C353.209 449.755 348.339 449.986 348.339 449.986L339.768 471.292C339.768 471.292 361.061 478.013 372.883 487.728C388.162 500.283 402.285 541.905 402.285 541.905C404.598 543.525 433.306 555.334 441.183 555.797C441.183 555.797 404.572 515.601 401.591 459.971C400.435 438.421 413.696 408.068 414.557 393.033C415.508 376.893 410.625 374.053 402.054 374.053H374.502Z" fill="#FF5A36"/>
<path d="M442.944 560.384L448.675 554.961C416.549 520.959 404.701 467.386 405.639 452.762C406.127 445.27 408.53 436.892 411.087 428.012C413.812 418.541 416.896 407.811 418.207 396.156C419.427 385.336 418.207 378.345 414.519 374.169C410.831 369.992 405.767 370.005 402.401 370.018H371.817V377.908H402.413C405.356 377.908 407.361 378.011 408.633 379.437C409.905 380.864 411.563 384.578 410.355 395.282C409.07 406.269 406.256 416.215 403.493 425.828C400.82 435.131 398.353 443.908 397.762 452.248C396.759 467.861 409.083 524.699 442.944 560.384Z" fill="#DBDBDB"/>
<path d="M355.599 464.109C353.8 470.74 348.133 474.955 342.942 473.541C337.75 472.128 334.987 465.612 336.799 458.994C338.611 452.377 344.278 448.136 349.47 449.549C354.661 450.963 357.411 457.491 355.599 464.109Z" fill="#DBDBDB"/>
<path d="M353.672 463.582C352.065 469.493 347.157 473.297 342.71 472.089C338.264 470.881 335.977 465.111 337.57 459.239C339.164 453.366 344.085 449.524 348.519 450.732C352.952 451.94 355.278 457.671 353.672 463.582Z" fill="white"/>
<path opacity="0.1" d="M378.332 463.042C379.758 456.373 381.3 449.729 382.637 443.047C383.973 436.365 385.207 429.67 386.248 422.949C387.263 416.691 388.355 410.368 388.754 404.033C389.152 397.415 388.754 390.733 385.541 384.758C385.534 384.746 385.53 384.733 385.528 384.719C385.526 384.706 385.527 384.692 385.531 384.679C385.534 384.666 385.541 384.653 385.549 384.643C385.557 384.632 385.568 384.623 385.579 384.616C385.591 384.609 385.604 384.605 385.618 384.603C385.631 384.602 385.645 384.603 385.658 384.606C385.671 384.61 385.684 384.616 385.694 384.624C385.705 384.633 385.714 384.643 385.721 384.655C389.023 389.474 390.103 395.269 390.283 401.013C390.266 407.346 389.707 413.666 388.612 419.903C386.737 433.6 384.164 447.192 380.902 460.626C379.039 468.221 376.636 475.687 374.065 483.063C374.065 483.087 374.056 483.11 374.039 483.127C374.022 483.144 373.999 483.153 373.976 483.153C373.952 483.153 373.929 483.144 373.912 483.127C373.895 483.11 373.886 483.087 373.886 483.063C375.419 476.355 376.901 469.682 378.332 463.042Z" fill="black"/>
<path opacity="0.1" d="M497.288 511.553V538.539H520.316V518.106C520.316 518.106 533.167 511.617 535.737 488.011C538.05 466.628 520.984 438.087 517.746 432.908L503.084 432.433V437.688C503.084 437.688 512.734 457.041 513.904 466.975C517.386 496.903 497.288 511.553 497.288 511.553Z" fill="black"/>
<path d="M439.371 544.848C442.481 545.851 532.036 542.278 535.39 540.106C535.788 539.862 537.381 522.63 537.381 522.63L527.024 456.463L468.233 457.247L479.58 513.789C479.58 513.789 466.64 519.738 455.948 524.943C449.369 528.143 443.65 531.06 442.34 532.113C438.909 534.889 436.262 543.846 439.371 544.848Z" fill="#FFCAC4"/>
<path d="M439.359 544.848C442.481 545.851 532.036 542.278 535.377 540.106C535.788 539.862 537.394 522.643 537.394 522.643L534.195 502.249L477.794 504.819L479.58 513.712C479.58 513.712 466.64 519.674 455.948 524.866C449.382 528.065 443.651 530.983 442.34 532.036C438.909 534.902 436.262 543.846 439.359 544.848Z" fill="#EBEBEB"/>
<path d="M439.423 544.964C442.584 545.953 532.73 543.846 536.109 541.584C537.394 540.749 537.857 527.603 537.96 511.694V511.193L479.799 511.9V512.889C479.799 512.889 445.655 529.119 442.198 531.998C438.742 534.876 436.249 543.974 439.423 544.964Z" fill="#C7C7C7"/>
<path d="M440.361 541.43C455.537 540.71 516.859 539.207 531.92 539.644C532.049 539.644 532.049 539.734 531.92 539.734C516.885 540.787 455.563 541.79 440.361 541.687C440.04 541.674 440.04 541.443 440.361 541.43Z" fill="#263238"/>
<path d="M474.954 513.159C480.904 511.874 488.241 512.658 492.945 516.809C493.137 516.976 492.945 517.22 492.701 517.168C486.944 515.456 481.02 514.366 475.031 513.917C474.939 513.912 474.852 513.875 474.785 513.812C474.719 513.748 474.677 513.663 474.667 513.571C474.658 513.48 474.682 513.388 474.734 513.312C474.787 513.236 474.865 513.182 474.954 513.159Z" fill="#263238"/>
<path d="M470.701 515.87C476.65 514.585 483.988 515.356 488.691 519.507C488.871 519.674 488.691 519.931 488.447 519.867C482.686 518.153 476.758 517.064 470.765 516.616C470.716 516.62 470.667 516.615 470.62 516.6C470.573 516.585 470.53 516.561 470.492 516.529C470.454 516.498 470.423 516.459 470.401 516.415C470.378 516.372 470.364 516.324 470.36 516.275C470.356 516.226 470.361 516.177 470.376 516.13C470.391 516.083 470.415 516.04 470.447 516.002C470.478 515.965 470.517 515.934 470.56 515.911C470.604 515.888 470.652 515.875 470.701 515.87Z" fill="#263238"/>
<path d="M466.447 518.569C472.397 517.284 479.734 518.055 484.438 522.219C484.618 522.373 484.438 522.63 484.194 522.566C478.435 520.864 472.512 519.778 466.524 519.327C466.432 519.322 466.345 519.285 466.278 519.222C466.212 519.158 466.17 519.073 466.16 518.981C466.151 518.89 466.175 518.798 466.227 518.722C466.28 518.646 466.358 518.592 466.447 518.569Z" fill="#263238"/>
<path d="M474.62 505.243L540.247 502.249C540.247 502.249 517.553 410.15 519.969 407.156C522.539 403.93 609.074 427.717 628.08 404.149C647.535 380.003 628.08 339.588 628.08 339.588H561.553C561.553 339.588 561.553 346.99 566.076 358.067C566.076 358.067 490.644 344.099 470.765 354.61C466.846 356.692 452.774 368.309 452.543 379.322C451.386 428.025 474.62 505.243 474.62 505.243Z" fill="#455A64"/>
<path d="M473.99 493.356C481.778 492.38 489.591 491.776 497.417 491.198C505.243 490.619 513.056 490.144 520.894 489.835C525.302 489.668 529.723 489.707 534.143 489.54C534.174 489.54 534.203 489.552 534.225 489.574C534.247 489.595 534.259 489.625 534.259 489.656C534.259 489.686 534.247 489.716 534.225 489.737C534.203 489.759 534.174 489.771 534.143 489.771C530.211 490.054 526.292 490.542 522.359 490.851C518.427 491.159 514.649 491.442 510.717 491.699C502.904 492.226 495.078 492.65 487.252 493.138C482.831 493.408 478.424 493.549 474.003 493.652C473.971 493.644 473.942 493.626 473.921 493.6C473.9 493.574 473.888 493.542 473.886 493.509C473.885 493.476 473.894 493.443 473.913 493.415C473.932 493.388 473.959 493.367 473.99 493.356Z" fill="#263238"/>
<path d="M600.259 345.153C600.346 345.424 600.458 345.686 600.593 345.936C600.607 345.955 600.615 345.977 600.615 346.001C600.615 346.024 600.607 346.047 600.593 346.065C601.364 348.468 601.685 351.012 602.43 353.428C603.138 355.993 604.709 358.235 606.877 359.776C611.426 362.938 616.887 364.364 622.181 365.675C622.213 365.684 622.241 365.704 622.261 365.73C622.281 365.757 622.292 365.789 622.292 365.822C622.292 365.856 622.281 365.888 622.261 365.915C622.241 365.941 622.213 365.961 622.181 365.97C619.129 365.987 616.094 365.523 613.186 364.595C610.454 363.839 607.878 362.603 605.579 360.946C603.419 359.311 601.878 356.991 601.21 354.366C600.886 352.971 600.633 351.56 600.451 350.138C600.154 348.505 599.978 346.851 599.925 345.191C599.943 345.166 599.967 345.145 599.994 345.129C600.022 345.113 600.052 345.103 600.083 345.1C600.115 345.096 600.146 345.099 600.176 345.108C600.207 345.117 600.235 345.132 600.259 345.153Z" fill="#263238"/>
<path d="M555.372 354.778C558.991 355.822 562.516 357.167 565.909 358.8L566.076 358.877C566.007 358.667 565.955 358.452 565.922 358.234C565.922 357.977 565.845 357.733 565.794 357.476C565.742 357.219 565.794 356.949 565.717 356.679V356.268C565.279 356.24 564.853 356.121 564.463 355.92C564.074 355.719 563.731 355.439 563.455 355.099C562.745 354.113 562.267 352.98 562.054 351.783C561.656 350.293 561.283 348.776 560.962 347.26C560.641 345.744 560.294 343.88 560.024 342.12C559.698 340.454 559.504 338.766 559.446 337.07C559.446 337.008 559.47 336.949 559.513 336.906C559.557 336.863 559.616 336.838 559.677 336.838C559.738 336.838 559.797 336.863 559.841 336.906C559.884 336.949 559.908 337.008 559.908 337.07C560.307 338.625 560.487 340.231 560.782 341.799C561.078 343.366 561.412 344.947 561.772 346.515C562.131 348.082 562.517 349.65 562.954 351.192C563.391 352.734 563.725 354.572 565.318 355.047C568.608 355.985 567.13 348.622 566.989 347.157C566.655 343.816 566.449 340.398 565.858 337.082C565.858 336.954 566.051 336.89 566.076 337.082C566.796 340.128 567.606 343.122 568.145 346.206C568.415 347.723 568.608 349.252 568.775 350.768C569.042 352.082 568.935 353.444 568.467 354.7C568.263 355.125 567.958 355.493 567.58 355.773C567.201 356.053 566.76 356.236 566.295 356.307L566.398 356.654C566.475 356.898 566.552 357.142 566.616 357.386C566.68 357.63 566.732 357.887 566.783 358.131C566.896 358.421 566.936 358.735 566.899 359.044C566.87 359.131 566.811 359.204 566.732 359.249C568.133 359.853 569.546 360.457 570.934 361.113C572.679 361.798 574.367 362.619 575.984 363.567C576.177 363.657 575.984 363.914 575.843 363.876C574.034 363.368 572.264 362.728 570.548 361.961C568.788 361.293 567.053 360.573 565.305 359.841C561.844 358.57 558.495 357.009 555.295 355.176C555.242 355.166 555.196 355.135 555.165 355.09C555.135 355.046 555.124 354.991 555.134 354.938C555.145 354.885 555.175 354.839 555.22 354.809C555.265 354.778 555.319 354.767 555.372 354.778Z" fill="#263238"/>
<path d="M454.496 370.956C456.773 364.264 461.379 358.613 467.475 355.034C473.733 351.578 481.032 350.652 488.036 350.434C496.183 350.19 504.382 350.614 512.516 351.128C521.177 351.668 529.838 352.49 538.448 353.698C547.058 354.906 555.513 356.384 563.982 358.209C566.012 358.645 568.03 359.185 570.047 359.751C570.202 359.751 570.176 360.085 570.047 360.059C561.63 358.877 553.252 357.489 544.835 356.332C536.418 355.176 527.911 354.263 519.404 353.621C510.897 352.978 502.48 352.619 494.011 352.49C487.072 352.387 479.876 352.49 473.284 354.726C470.024 355.768 467.005 357.45 464.404 359.673C461.849 361.958 459.755 364.71 458.236 367.782C454.766 374.606 454.445 382.432 454.098 389.988C453.096 412.412 469.223 483.667 472.089 495.117C472.096 495.216 472.068 495.315 472.01 495.396C471.952 495.477 471.867 495.535 471.77 495.56C471.673 495.584 471.571 495.574 471.481 495.53C471.392 495.487 471.32 495.413 471.279 495.323C468.053 482.395 452.003 415.085 452.003 394.858C451.99 386.788 451.695 378.564 454.496 370.956Z" fill="#263238"/>
<path d="M510.331 399.394C522.089 399.805 533.783 400.898 545.477 402.131C557.171 403.365 568.955 404.701 580.726 405.524C586.586 405.922 592.458 406.179 598.331 406.218C603.214 406.447 608.102 405.9 612.813 404.599C617.599 403.052 621.621 399.751 624.07 395.359C626.641 390.757 628.312 385.706 628.992 380.478C630.534 369.851 628.992 358.992 627.18 348.506C626.949 347.221 626.731 345.936 626.499 344.561C626.499 344.433 626.666 344.382 626.692 344.561C629.146 355.137 631.344 366.022 630.547 376.944C630.255 382.283 629.042 387.53 626.962 392.455C625.148 397.116 621.922 401.092 617.735 403.828C613.424 406.134 608.618 407.364 603.728 407.413C598.069 407.625 592.402 407.535 586.753 407.143C574.699 406.513 562.697 405.177 550.707 403.84C538.718 402.504 526.806 401.193 514.803 400.551C513.518 400.486 512.143 400.422 510.82 400.384C512.632 411.885 528.052 480.789 528.913 486.237C529.003 486.777 528.515 486.944 528.386 486.404C525.816 475.661 510.781 406.732 509.792 399.985C509.774 399.909 509.776 399.829 509.796 399.753C509.816 399.677 509.855 399.607 509.908 399.549C509.96 399.491 510.027 399.447 510.1 399.42C510.174 399.393 510.253 399.384 510.331 399.394Z" fill="#263238"/>
<path d="M631.896 347.8C631.716 348.057 543.807 354.816 542.881 353.994C541.596 352.824 550.296 262.756 558.148 249.545C559.831 246.731 566.269 245.253 571.911 245.305C573.379 245.298 574.846 245.422 576.293 245.677H576.434C577.602 245.876 578.727 246.271 579.762 246.847C596.648 257.384 614.664 298.994 619.2 311.587C626.718 332.354 632.552 346.874 631.896 347.8Z" fill="#FF5A36"/>
<path d="M562.196 261.034C566.565 261.034 573.941 253.979 575.406 247.361C575.509 246.898 573.697 242.953 571.744 238.044C570.561 235.05 569.315 231.709 568.402 228.573C568.222 227.918 550.116 239.072 550.116 239.072C552.378 242.671 554.191 246.534 555.513 250.573C555.632 250.994 555.714 251.424 555.758 251.858C555.752 251.931 555.752 252.004 555.758 252.077C556.105 254.686 557.531 261.098 562.196 261.034Z" fill="#FFCAC4"/>
<path d="M555.758 251.897C555.753 251.97 555.753 252.043 555.758 252.115C556.451 252.014 557.134 251.855 557.801 251.64C569.366 248.016 568.158 232.621 567.67 228.779C564.316 230.295 550.078 239.059 550.078 239.059C552.338 242.661 554.154 246.523 555.488 250.561C555.613 250.998 555.703 251.445 555.758 251.897Z" fill="#263238"/>
<path d="M566.796 204.492C569.97 211.405 568.994 232.763 564.509 238.057C557.994 245.767 545.914 248.093 538.988 239.946C532.28 232.043 534.04 204.273 539.181 199.275C546.775 191.924 562.093 194.301 566.796 204.492Z" fill="#FFCAC4"/>
<path d="M548.189 219.707C548.189 219.707 548.291 219.784 548.291 219.848C548.189 221.274 548.291 222.945 549.577 223.472C549.577 223.472 549.577 223.562 549.577 223.549C547.996 223.266 547.867 221.056 548.189 219.707Z" fill="#263238"/>
<path d="M549.538 218.267C551.851 218.178 551.838 222.829 549.692 222.906C547.546 222.984 547.585 218.332 549.538 218.267Z" fill="#263238"/>
<path d="M539.862 219.938C539.862 219.938 539.746 220.002 539.759 220.067C539.759 221.493 539.605 223.151 538.307 223.626C538.307 223.626 538.307 223.716 538.307 223.703C539.9 223.485 540.157 221.287 539.862 219.938Z" fill="#263238"/>
<path d="M538.577 218.435C536.276 218.255 536.084 222.894 538.23 223.048C540.376 223.202 540.517 218.563 538.577 218.435Z" fill="#263238"/>
<path d="M551.363 216.147C550.756 215.966 550.16 215.751 549.577 215.505C548.912 215.377 548.31 215.028 547.867 214.515C547.758 214.327 547.714 214.107 547.742 213.891C547.77 213.675 547.868 213.474 548.022 213.32C548.372 213.064 548.784 212.906 549.216 212.863C549.647 212.82 550.082 212.894 550.476 213.076C551.333 213.317 552.067 213.872 552.532 214.631C552.626 214.809 552.666 215.011 552.649 215.212C552.631 215.413 552.557 215.604 552.433 215.764C552.31 215.923 552.144 216.044 551.954 216.112C551.764 216.18 551.559 216.192 551.363 216.147Z" fill="#263238"/>
<path d="M536.79 216.083C537.416 215.962 538.034 215.804 538.641 215.607C539.314 215.54 539.944 215.245 540.427 214.772C540.557 214.6 540.628 214.39 540.628 214.175C540.628 213.959 540.557 213.749 540.427 213.577C540.101 213.29 539.703 213.095 539.276 213.014C538.849 212.932 538.407 212.967 537.998 213.114C537.125 213.279 536.346 213.765 535.814 214.477C535.706 214.641 535.647 214.833 535.643 215.03C535.64 215.226 535.693 215.42 535.795 215.588C535.897 215.756 536.045 215.892 536.221 215.98C536.397 216.067 536.595 216.103 536.79 216.083Z" fill="#263238"/>
<path d="M549.499 233.058C549.152 233.392 548.806 233.855 548.214 233.906C547.68 233.89 547.155 233.764 546.672 233.534C546.672 233.534 546.582 233.534 546.608 233.611C546.813 233.894 547.091 234.116 547.413 234.254C547.734 234.392 548.086 234.441 548.433 234.395C548.729 234.319 548.995 234.156 549.197 233.927C549.399 233.698 549.527 233.413 549.564 233.11C549.654 233.045 549.551 233.007 549.499 233.058Z" fill="#263238"/>
<path d="M547.996 228.753C547.63 229.322 547.149 229.809 546.585 230.183C546.021 230.556 545.386 230.809 544.719 230.925C544.139 231.035 543.546 231.061 542.959 231.002C542.848 231.016 542.735 231.016 542.625 231.002H542.303C542.228 230.986 542.16 230.946 542.109 230.888C542.058 230.83 542.027 230.758 542.021 230.681C542.014 230.634 542.014 230.587 542.021 230.54V230.411C542.021 229.306 542.11 227.623 542.11 227.623C541.699 227.828 539.63 228.753 539.669 228.175C539.805 223.183 540.451 218.219 541.596 213.359C541.596 213.325 541.61 213.292 541.634 213.268C541.658 213.244 541.691 213.23 541.725 213.23C541.759 213.23 541.792 213.244 541.816 213.268C541.84 213.292 541.853 213.325 541.853 213.359C541.751 217.972 540.851 222.534 540.671 227.16C541.406 226.822 542.185 226.589 542.984 226.466C543.139 226.466 542.714 229.717 542.766 230.218C543.672 230.308 544.586 230.215 545.456 229.946C546.325 229.677 547.132 229.236 547.829 228.651C547.957 228.548 548.073 228.638 547.996 228.753Z" fill="#263238"/>
<path d="M543.614 230.437C544.218 231.233 545.02 231.858 545.94 232.249C546.444 232.444 546.996 232.48 547.52 232.352C548.664 232.056 548.703 231.066 548.497 230.09C548.375 229.615 548.202 229.154 547.983 228.715C546.748 229.741 545.217 230.345 543.614 230.437Z" fill="#263238"/>
<path d="M545.94 232.249C546.444 232.444 546.996 232.48 547.52 232.352C548.664 232.056 548.703 231.067 548.497 230.09C547.89 230.109 547.307 230.333 546.843 230.725C546.379 231.117 546.061 231.654 545.94 232.249Z" fill="#FF9BBC"/>
<path d="M536.109 206.329C536.893 204.505 537.806 202.667 538.911 202.294C540.016 201.922 540.723 204.62 543.228 204.787C546.595 205.019 548.227 201.922 552.943 201.588C559.728 201.125 562.71 206.728 562.864 216.391C563.005 224.975 568.197 225.785 568.197 225.785C568.197 225.785 571.345 206.856 566.012 200.585C560.679 194.314 548.433 191.59 540.209 197.527C537.214 199.699 536.109 206.329 536.109 206.329Z" fill="#263238"/>
<path d="M563.866 222.418C563.866 222.418 567.811 215.132 571.063 216.456C574.314 217.779 571.898 228.021 568.492 229.73C568.066 229.986 567.592 230.154 567.098 230.222C566.605 230.29 566.104 230.258 565.623 230.127C565.143 229.996 564.694 229.769 564.304 229.46C563.914 229.151 563.59 228.767 563.352 228.329L563.866 222.418Z" fill="#FFCAC4"/>
<path d="M570.291 219.347V219.437C567.888 220.722 566.835 223.292 566.179 225.772C566.297 225.503 566.471 225.262 566.69 225.067C566.91 224.871 567.169 224.726 567.45 224.64C567.731 224.555 568.027 224.531 568.318 224.572C568.609 224.612 568.888 224.714 569.135 224.873C569.212 224.873 569.135 225.027 569.135 225.014C568.675 224.926 568.2 224.981 567.772 225.172C567.345 225.362 566.986 225.68 566.745 226.081C566.355 226.761 566.037 227.481 565.794 228.227C565.704 228.458 565.28 228.394 565.344 228.124V228.059C564.907 224.847 566.886 220.067 570.291 219.347Z" fill="#263238"/>
<path d="M536.919 200.688C538.911 200.213 549.949 200.547 554.909 202.68C559.87 204.813 568.685 211.945 569.135 212.318C569.585 212.69 571.859 194.494 557.094 191.179C541.018 187.555 536.919 200.688 536.919 200.688Z" fill="#FF5A36"/>
<path d="M568.287 211.572C568.287 211.572 558.533 198.722 553.11 195.766C547.688 192.811 535.544 191.166 528.026 194.481C522.179 197.051 536.469 204.582 536.469 204.582C536.604 203.965 536.882 203.389 537.279 202.898C537.676 202.407 538.182 202.016 538.756 201.755C542.406 200.303 549.345 201.421 553.303 202.744C558.289 204.428 568.287 211.572 568.287 211.572Z" fill="#FF5A36"/>
<path opacity="0.2" d="M568.287 211.637C568.287 211.637 558.533 198.709 553.11 195.766C547.688 192.824 535.544 191.166 528.026 194.481C522.179 197.051 536.469 204.582 536.469 204.582C536.604 203.965 536.882 203.389 537.279 202.898C537.676 202.407 538.182 202.016 538.756 201.755C542.406 200.303 549.345 201.421 553.303 202.744C558.289 204.428 568.287 211.637 568.287 211.637Z" fill="black"/>
<path d="M585.326 270.877C586.149 296.218 576.794 343.675 569.906 346.9C547.675 357.283 510.267 357.939 497.455 358.054C491.93 358.054 483.448 318.758 488.923 316.548C492.559 315.083 547.405 315.07 548.369 313.116C549.332 311.163 562.401 282.944 568.043 267.318C575.534 246.538 584.851 255.996 585.326 270.877Z" fill="#FFCAC4"/>
<path d="M494.808 316.021C494.808 316.021 478.013 317.049 467.077 318.231C460.96 318.886 450.59 320.955 446.336 323.487C439.911 327.342 415.701 347.234 420.404 353.223C424.67 358.633 443.329 338.856 443.329 338.856C443.329 338.856 422.769 357.142 429.065 362.732C435.362 368.322 453.481 343.148 453.481 343.148C453.481 343.148 432.741 362.424 440.181 367.152C445.797 370.712 463.492 348.853 463.492 348.853C463.492 348.853 445.771 365.559 451.399 369.414C457.619 373.745 475.211 354.585 475.211 354.585C491.184 362.141 501.876 359.198 509.239 356.204C511.051 355.536 494.808 316.021 494.808 316.021Z" fill="#FFCAC4"/>
<path d="M450.05 332.071C447.557 334.127 445.013 336.196 442.713 338.496C440.412 340.796 438.176 343.135 436.095 345.615C433.309 348.805 430.895 352.302 428.898 356.037C432.921 349.612 441.042 341.387 443.355 339.113C445.668 336.838 447.84 334.448 450.14 332.174C450.204 332.097 450.114 332.019 450.05 332.071Z" fill="#263238"/>
<path d="M458.416 340.244C455.344 343.007 452.196 345.654 449.24 348.558C446.285 351.462 443.766 354.456 441.029 357.553C440.823 357.785 441.029 357.823 441.247 357.553C444.1 354.585 446.966 352.053 449.844 349.111C452.723 346.168 455.511 343.109 458.493 340.282C458.544 340.269 458.467 340.205 458.416 340.244Z" fill="#263238"/>
<path d="M466.91 345.962C462.09 350.096 457.711 354.716 453.841 359.751C453.648 359.995 453.905 360.02 454.124 359.751C458.377 355.086 461.68 351.398 467.051 346.116C467.09 346.052 466.91 345.885 466.91 345.962Z" fill="#263238"/>
<path d="M448.457 321.456C452.449 319.751 456.686 318.688 461.011 318.308C470.341 317.164 479.722 316.419 489.102 315.738C498.483 315.057 508.005 314.453 517.463 314.106C522.783 313.9 528.103 313.742 533.424 313.63C538.744 313.528 539.849 313.72 545.195 313.785C545.336 313.785 545.323 313.977 545.195 313.99C535.878 314.479 530.738 314.864 521.421 315.352C512.105 315.841 502.814 316.393 493.523 317.036C484.232 317.678 475.095 318.321 465.92 319.349C461.482 319.65 457.082 320.36 452.774 321.469C448.555 323.019 444.64 325.298 441.209 328.203C437.277 331.3 422.537 345.474 421.188 347.311C421.021 347.53 420.957 347.466 421.047 347.183C422.113 343.341 439.834 325.479 448.457 321.456Z" fill="#263238"/>
<path d="M558.79 287.236L586.123 302.733C586.123 302.733 587.28 268.191 584.748 257.937C581.895 246.371 576.627 250.381 570.69 259.993C564.753 269.605 558.79 287.236 558.79 287.236Z" fill="#FF5A36"/>
<path opacity="0.1" d="M558.79 287.236L586.123 302.733C586.123 302.733 587.28 268.191 584.748 257.937C581.895 246.371 576.627 250.381 570.69 259.993C564.753 269.605 558.79 287.236 558.79 287.236Z" fill="black"/>
<path d="M562.556 282.815C566.295 284.319 576.909 290.41 578.67 291.399C579.595 291.913 583.219 294.162 584.144 294.676C584.26 294.74 584.144 294.907 584.029 294.843C582.242 293.867 580.366 293.07 578.567 292.106C576.768 291.142 565.717 285.334 562.478 282.944C562.466 282.932 562.458 282.916 562.456 282.898C562.454 282.881 562.458 282.864 562.466 282.849C562.475 282.834 562.489 282.823 562.505 282.817C562.521 282.811 562.539 282.81 562.556 282.815Z" fill="#263238"/>
<path d="M563.095 274.45C563.519 272.843 563.956 271.25 564.444 269.656C564.175 270.839 563.866 272.021 563.558 273.203C564.547 270.967 565.562 268.757 566.668 266.611H566.732C565.537 270.093 564.162 273.511 562.877 276.968C561.592 280.425 560.307 283.728 559.022 287.107C559.6 287.557 560.165 287.994 560.756 288.392C560.78 288.408 560.797 288.432 560.803 288.459C560.809 288.487 560.804 288.516 560.789 288.54C560.773 288.564 560.749 288.581 560.721 288.587C560.694 288.593 560.665 288.587 560.641 288.572C559.934 288.212 559.227 287.852 558.495 287.531C558.41 287.499 558.341 287.437 558.3 287.356C558.26 287.275 558.251 287.181 558.276 287.094C559.716 282.892 561.309 278.626 563.095 274.45Z" fill="#263238"/>
</svg>
