<svg width="240" height="24" viewBox="0 0 240 24" fill="none" xmlns="http://www.w3.org/2000/svg">
<path d="M6.248 12.308L8.096 12.396C9.768 12.396 10.7653 11.3547 11.088 9.272C11.44 7.13067 10.6773 6.06 8.8 6.06C8.36 6.06 7.788 6.08933 7.084 6.148L6.248 12.308ZM7.348 15.432L5.808 15.388L4.752 23H0.748L3.564 3.024C3.564 3.024 5.35333 2.98 8.932 2.892C11.484 2.892 13.244 3.376 14.212 4.344C15.2387 5.312 15.6053 6.984 15.312 9.36C15.0773 10.944 14.564 12.1907 13.772 13.1C12.98 13.98 12.1147 14.5667 11.176 14.86L13.948 23H9.46L7.348 15.432ZM23.7984 14.068C22.6837 14.508 22.0237 15.4467 21.8184 16.884C21.7011 17.8227 21.8184 18.6 22.1704 19.216C22.5224 19.8027 23.0944 20.096 23.8864 20.096C24.8544 20.096 25.6757 19.7 26.3504 18.908L23.7984 14.068ZM25.3384 9.844C26.4237 9.14 27.0691 8.26 27.2744 7.204C27.3331 6.852 27.2744 6.48533 27.0984 6.104C26.9517 5.72267 26.6584 5.532 26.2184 5.532C25.8077 5.532 25.4704 5.64933 25.2064 5.884C24.9424 6.08933 24.7664 6.44133 24.6784 6.94C24.5904 7.43867 24.5464 7.864 24.5464 8.216C24.5757 8.53867 24.7224 8.92 24.9864 9.36L25.3384 9.844ZM28.4184 21.548C26.8931 22.7507 25.0451 23.352 22.8744 23.352C20.9677 23.352 19.5011 22.868 18.4744 21.9C17.3597 20.8733 16.9491 19.2893 17.2424 17.148C17.5651 14.6547 19.0757 12.7627 21.7744 11.472C21.2757 10.8853 20.8797 10.2547 20.5864 9.58C20.2931 8.876 20.2051 8.04 20.3224 7.072C20.5277 5.51733 21.1877 4.35867 22.3024 3.596C23.4171 2.804 24.8104 2.408 26.4824 2.408C28.1837 2.408 29.4744 2.77467 30.3544 3.508C31.2637 4.212 31.6157 5.268 31.4104 6.676C31.2051 8.084 30.6917 9.228 29.8704 10.108C29.0491 10.988 28.0371 11.7507 26.8344 12.396L29.5624 16.092C29.6797 15.8867 29.8117 15.6667 29.9584 15.432C30.1051 15.168 30.2517 14.8893 30.3984 14.596C30.5744 14.244 30.7504 13.716 30.9264 13.012H34.9304C34.5784 14.7133 33.8451 16.312 32.7304 17.808C32.4077 18.2187 32.0997 18.5707 31.8064 18.864L34.9304 23H29.5184L28.4184 21.548ZM43.8532 5.928C43.8532 5.928 43.4279 5.94267 42.5772 5.972L41.8292 11.78H42.7972C44.7919 11.78 45.9359 10.7533 46.2292 8.7C46.2879 7.82 46.1706 7.14533 45.8772 6.676C45.5839 6.17733 44.9092 5.928 43.8532 5.928ZM40.5972 20.096L41.5652 20.14C42.7679 20.14 43.6919 19.92 44.3372 19.48C44.9826 19.04 45.3932 18.2187 45.5692 17.016C45.8332 15.168 44.8652 14.244 42.6652 14.244H42.0492C41.8439 14.244 41.6532 14.2587 41.4772 14.288L40.5972 20.096ZM39.0132 3.024L44.1172 2.892C46.5519 2.892 48.2679 3.27333 49.2652 4.036C50.2626 4.76933 50.6146 6.08933 50.3212 7.996C50.1452 9.14 49.7639 10.108 49.1772 10.9C48.5906 11.6627 47.9746 12.2347 47.3292 12.616C49.2359 13.1733 50.0426 14.7133 49.7492 17.236C49.4266 19.2893 48.6052 20.8 47.2852 21.768C45.9946 22.7067 44.0586 23.176 41.4772 23.176C40.3919 23.176 39.3652 23.1467 38.3972 23.088C37.4586 23.0293 36.7252 23 36.1972 23L39.0132 3.024ZM68.3189 13.056C67.9669 15.4907 68.0255 17.2507 68.4949 18.336C69.0229 19.5093 70.1082 20.096 71.7509 20.096C72.4842 20.096 73.1589 19.9933 73.7749 19.788C74.4202 19.5827 74.9042 19.436 75.2269 19.348C75.2562 19.876 75.2709 20.404 75.2709 20.932C75.2709 21.46 75.3002 21.988 75.3589 22.516C74.6255 22.8093 73.8042 23.044 72.8949 23.22C71.9855 23.396 71.2082 23.484 70.5629 23.484C67.8349 23.484 65.9135 22.6333 64.7989 20.932C63.7135 19.2307 63.4202 16.6053 63.9189 13.056C64.4175 9.47733 65.4589 6.852 67.0429 5.18C68.6269 3.508 70.7829 2.672 73.5109 2.672C74.4202 2.672 75.2415 2.76 75.9749 2.936C76.7082 3.112 77.1922 3.25867 77.4269 3.376C77.6909 3.49333 77.8815 3.56667 77.9989 3.596L76.9869 6.764C76.6642 6.676 76.2095 6.52933 75.6229 6.324C75.0655 6.11867 74.4495 6.016 73.7749 6.016C72.0149 6.016 70.7389 6.60267 69.9469 7.776C69.1549 8.92 68.6122 10.68 68.3189 13.056ZM91.6742 23H88.1102L88.1542 20.888L87.1862 21.636C86.6875 22.252 85.8222 22.7653 84.5902 23.176C84.1502 23.3227 83.6808 23.396 83.1822 23.396C81.7155 23.396 80.7475 22.956 80.2782 22.076C79.8088 21.1667 79.6915 19.788 79.9262 17.94L81.4222 7.424H85.5142L84.3262 15.916C84.0915 17.4707 84.0182 18.4387 84.1062 18.82C84.1942 19.2013 84.3408 19.4653 84.5462 19.612C84.7515 19.7293 85.0155 19.788 85.3382 19.788C85.6902 19.788 85.9982 19.7293 86.2622 19.612C86.5555 19.4653 86.8195 19.304 87.0542 19.128C87.6115 18.6587 88.0075 18.3067 88.2422 18.072L89.7382 7.424H93.8742L91.6742 23ZM95.8851 19.436C95.9731 19.4653 96.1344 19.5387 96.3691 19.656C96.6038 19.7733 96.8824 19.8907 97.2051 20.008C98.0264 20.272 98.7158 20.404 99.2731 20.404C99.8304 20.404 100.27 20.316 100.593 20.14C100.945 19.9347 101.15 19.5973 101.209 19.128C101.297 18.6293 101.224 18.2187 100.989 17.896C100.754 17.544 100.446 17.2067 100.065 16.884C99.7131 16.5613 99.3171 16.2387 98.8771 15.916C98.4371 15.564 98.0411 15.168 97.6891 14.728C96.8678 13.76 96.5451 12.6307 96.7211 11.34C96.8971 10.0493 97.4838 9.02267 98.4811 8.26C99.5078 7.468 100.872 7.072 102.573 7.072C103.893 7.072 105.169 7.27733 106.401 7.688L105.785 10.68C105.55 10.6507 105.14 10.548 104.553 10.372C103.996 10.196 103.394 10.108 102.749 10.108C101.517 10.108 100.828 10.5187 100.681 11.34C100.622 11.7213 100.71 12.0733 100.945 12.396C101.209 12.6893 101.532 12.9973 101.913 13.32C102.294 13.6133 102.72 13.936 103.189 14.288C103.658 14.6107 104.084 14.9773 104.465 15.388C105.345 16.3267 105.682 17.4413 105.477 18.732C105.36 20.0227 104.802 21.1227 103.805 22.032C102.749 22.9413 101.312 23.396 99.4931 23.396C98.2904 23.396 97.3811 23.2787 96.7651 23.044C95.7091 22.6627 95.0491 22.3693 94.7851 22.164L95.8851 19.436ZM116.975 7.424L116.623 10.416H113.235L112.179 17.896C112.061 18.5707 112.061 19.0693 112.179 19.392C112.296 19.7147 112.589 19.876 113.059 19.876C113.557 19.876 113.983 19.8173 114.335 19.7C114.687 19.5533 114.921 19.4653 115.039 19.436V22.34C114.921 22.3693 114.745 22.4427 114.511 22.56C114.276 22.6773 114.012 22.7947 113.719 22.912C112.985 23.2347 112.164 23.396 111.255 23.396C109.847 23.396 108.893 23.0293 108.395 22.296C107.896 21.5333 107.764 20.2573 107.999 18.468L109.187 10.416H107.515L107.911 7.424H109.583L110.111 3.684L114.291 3.024L113.631 7.424H116.975ZM124.333 20.404C125.213 20.404 125.902 19.9933 126.401 19.172C126.929 18.3507 127.31 17.0307 127.545 15.212C127.809 13.364 127.794 12.044 127.501 11.252C127.208 10.46 126.636 10.064 125.785 10.064C124.934 10.064 124.26 10.46 123.761 11.252C123.262 12.044 122.881 13.364 122.617 15.212C122.382 17.06 122.397 18.3947 122.661 19.216C122.925 20.008 123.482 20.404 124.333 20.404ZM131.857 11.472C132.033 12.4987 132.004 13.7453 131.769 15.212C131.564 16.6787 131.226 17.9253 130.757 18.952C130.317 19.9787 129.76 20.8293 129.085 21.504C127.824 22.7653 126.108 23.396 123.937 23.396C120.71 23.396 118.848 21.9147 118.349 18.952C118.173 17.9253 118.202 16.664 118.437 15.168C118.76 12.4107 119.654 10.3427 121.121 8.964C122.441 7.70267 124.128 7.072 126.181 7.072C129.466 7.072 131.358 8.53867 131.857 11.472ZM135.238 7.424H138.846L138.67 9.492C138.817 9.37467 139.007 9.184 139.242 8.92C139.506 8.62667 139.814 8.348 140.166 8.084C141.075 7.40933 141.999 7.072 142.938 7.072C143.877 7.072 144.581 7.248 145.05 7.6C145.519 7.92267 145.813 8.53867 145.93 9.448C146.517 8.59733 147.455 7.89333 148.746 7.336C149.215 7.16 149.714 7.072 150.242 7.072C151.562 7.072 152.457 7.48267 152.926 8.304C153.395 9.12533 153.498 10.504 153.234 12.44L151.826 23H147.734L149.098 12.792C149.245 12.1173 149.259 11.5893 149.142 11.208C149.025 10.8267 148.702 10.636 148.174 10.636C147.734 10.636 147.323 10.7973 146.942 11.12C146.355 11.5893 145.989 12 145.842 12.352L144.39 23H140.43L141.882 12.792C141.999 12.1173 141.999 11.5893 141.882 11.208C141.765 10.8267 141.427 10.636 140.87 10.636C140.401 10.636 139.99 10.7973 139.638 11.12C139.051 11.648 138.699 12.0587 138.582 12.352L137.086 23H133.038L135.238 7.424ZM165.297 23L168.113 3.024H172.337L169.961 19.568H175.901L175.153 23H165.297ZM183.469 20.404C184.349 20.404 185.038 19.9933 185.537 19.172C186.065 18.3507 186.446 17.0307 186.681 15.212C186.945 13.364 186.93 12.044 186.637 11.252C186.343 10.46 185.771 10.064 184.921 10.064C184.07 10.064 183.395 10.46 182.897 11.252C182.398 12.044 182.017 13.364 181.753 15.212C181.518 17.06 181.533 18.3947 181.797 19.216C182.061 20.008 182.618 20.404 183.469 20.404ZM190.993 11.472C191.169 12.4987 191.139 13.7453 190.905 15.212C190.699 16.6787 190.362 17.9253 189.893 18.952C189.453 19.9787 188.895 20.8293 188.221 21.504C186.959 22.7653 185.243 23.396 183.073 23.396C179.846 23.396 177.983 21.9147 177.485 18.952C177.309 17.9253 177.338 16.664 177.573 15.168C177.895 12.4107 178.79 10.3427 180.257 8.964C181.577 7.70267 183.263 7.072 185.317 7.072C188.602 7.072 190.494 8.53867 190.993 11.472ZM198.422 20.404C199.302 20.404 199.991 19.9933 200.49 19.172C201.018 18.3507 201.399 17.0307 201.634 15.212C201.898 13.364 201.883 12.044 201.59 11.252C201.296 10.46 200.724 10.064 199.874 10.064C199.023 10.064 198.348 10.46 197.85 11.252C197.351 12.044 196.97 13.364 196.706 15.212C196.471 17.06 196.486 18.3947 196.75 19.216C197.014 20.008 197.571 20.404 198.422 20.404ZM205.946 11.472C206.122 12.4987 206.092 13.7453 205.858 15.212C205.652 16.6787 205.315 17.9253 204.846 18.952C204.406 19.9787 203.848 20.8293 203.174 21.504C201.912 22.7653 200.196 23.396 198.026 23.396C194.799 23.396 192.936 21.9147 192.438 18.952C192.262 17.9253 192.291 16.664 192.526 15.168C192.848 12.4107 193.743 10.3427 195.21 8.964C196.53 7.70267 198.216 7.072 200.27 7.072C203.555 7.072 205.447 8.53867 205.946 11.472ZM210.207 1.176L214.343 0.604001L212.451 14.156L217.335 7.424H221.955L215.927 14.376L220.239 23H215.399L212.231 15.564L211.219 23H207.127L210.207 1.176ZM223.857 19.436C223.945 19.4653 224.106 19.5387 224.341 19.656C224.575 19.7733 224.854 19.8907 225.177 20.008C225.998 20.272 226.687 20.404 227.245 20.404C227.802 20.404 228.242 20.316 228.565 20.14C228.917 19.9347 229.122 19.5973 229.181 19.128C229.269 18.6293 229.195 18.2187 228.961 17.896C228.726 17.544 228.418 17.2067 228.037 16.884C227.685 16.5613 227.289 16.2387 226.849 15.916C226.409 15.564 226.013 15.168 225.661 14.728C224.839 13.76 224.517 12.6307 224.693 11.34C224.869 10.0493 225.455 9.02267 226.453 8.26C227.479 7.468 228.843 7.072 230.545 7.072C231.865 7.072 233.141 7.27733 234.373 7.688L233.757 10.68C233.522 10.6507 233.111 10.548 232.525 10.372C231.967 10.196 231.366 10.108 230.721 10.108C229.489 10.108 228.799 10.5187 228.653 11.34C228.594 11.7213 228.682 12.0733 228.917 12.396C229.181 12.6893 229.503 12.9973 229.885 13.32C230.266 13.6133 230.691 13.936 231.161 14.288C231.63 14.6107 232.055 14.9773 232.437 15.388C233.317 16.3267 233.654 17.4413 233.449 18.732C233.331 20.0227 232.774 21.1227 231.777 22.032C230.721 22.9413 229.283 23.396 227.465 23.396C226.262 23.396 225.353 23.2787 224.737 23.044C223.681 22.6627 223.021 22.3693 222.757 22.164L223.857 19.436ZM237.554 19.744C238.053 19.744 238.434 19.9053 238.698 20.228C238.962 20.5213 239.05 20.9467 238.962 21.504C238.874 22.032 238.654 22.4573 238.302 22.78C237.95 23.1027 237.525 23.264 237.026 23.264C236.557 23.264 236.176 23.1027 235.882 22.78C235.618 22.4573 235.516 22.032 235.574 21.504C235.662 20.9467 235.897 20.5213 236.278 20.228C236.66 19.9053 237.085 19.744 237.554 19.744Z" fill="white"/>
</svg>
